<svg width="277" height="277" viewBox="0 0 277 277" fill="none" xmlns="http://www.w3.org/2000/svg">
<g clip-path="url(#clip0_64_10640)">
<mask id="mask0_64_10640" style="mask-type:alpha" maskUnits="userSpaceOnUse" x="-19" y="196" width="320" height="103">
<ellipse cx="140.868" cy="247.406" rx="159.808" ry="50.9017" fill="#D9D9D9"/>
</mask>
<g mask="url(#mask0_64_10640)">
<path d="M303.043 113.137C303.043 151.638 289.476 186.976 266.851 214.611C237.447 250.529 192.767 273.448 142.732 273.448C92.6972 273.448 48.0167 250.529 18.6129 214.611C-4.0123 186.966 -17.5795 151.638 -17.5795 113.137C-17.5795 26.0061 51.9366 -44.8952 138.527 -47.1154C139.922 -47.1449 141.327 -47.1646 142.732 -47.1646C144.137 -47.1646 145.542 -47.1449 146.937 -47.1154C147.624 -47.0958 148.312 -47.0761 148.99 -47.0467C234.628 -43.7654 303.043 26.6938 303.043 113.137Z" fill="#FFD243"/>
<path d="M301.683 112.951C301.683 150.774 288.577 185.542 266.669 212.961C266.276 213.453 265.883 213.934 265.49 214.425C265.058 214.956 264.626 215.476 264.194 215.987C234.79 251.011 190.679 273.262 141.371 273.262C92.0636 273.262 47.9627 251.011 18.549 215.987C18.1167 215.467 17.6746 214.946 17.2522 214.425C16.8592 213.944 16.4663 213.453 16.0733 212.961C-5.83469 185.552 -18.9402 150.784 -18.9402 112.951C-18.9402 25.8201 50.5759 -45.0812 137.166 -47.3015C138.562 -47.3309 139.966 -47.3506 141.371 -47.3506C142.776 -47.3506 144.181 -47.3309 145.576 -47.3015C146.264 -47.2818 146.951 -47.2622 147.629 -47.2327C233.267 -43.9514 301.683 26.5078 301.683 112.951Z" fill="#FFD243"/>
<path d="M227.819 237.02C231.061 234.594 233.262 231.617 233.999 228.267C235.325 222.196 231.444 216.655 224.479 212.558C219.911 209.866 213.997 207.951 207.306 207.263C190.409 205.514 174.926 212.254 172.735 222.304C171.919 226.047 173.059 229.721 175.682 232.943C180.113 238.386 188.817 242.217 199.427 243.308" fill="#FFD243"/>
<path d="M233.36 228.13C233.566 226.597 233.429 225.065 232.997 223.64C232.564 222.216 231.818 220.899 230.884 219.71C229.961 218.522 228.841 217.461 227.633 216.508C226.424 215.555 225.118 214.7 223.752 213.944C221.031 212.441 218.093 211.291 215.067 210.476C212.042 209.631 208.908 209.14 205.764 208.874C199.476 208.373 193.051 208.963 187.068 210.898C184.092 211.89 181.213 213.217 178.738 215.093C176.262 216.94 174.179 219.396 173.265 222.402V222.412C173.177 222.687 172.882 222.854 172.607 222.766C172.352 222.687 172.195 222.432 172.234 222.176C172.362 221.331 172.578 220.487 172.872 219.681C173.177 218.875 173.56 218.089 174.012 217.353C174.906 215.869 176.065 214.563 177.333 213.393C179.897 211.095 182.923 209.395 186.086 208.157C189.249 206.9 192.57 206.114 195.92 205.662C199.27 205.2 202.669 205.141 206.039 205.367C209.409 205.603 212.759 206.202 216.02 207.126C217.651 207.597 219.253 208.187 220.815 208.864C222.377 209.542 223.909 210.309 225.363 211.232C226.807 212.146 228.202 213.158 229.489 214.307C230.767 215.476 231.945 216.783 232.908 218.256C233.861 219.74 234.598 221.4 234.922 223.159C235.079 224.033 235.138 224.927 235.099 225.811C235.05 226.695 234.893 227.56 234.647 228.395C234.549 228.739 234.185 228.945 233.832 228.837C233.507 228.759 233.311 228.454 233.36 228.13Z" fill="#30356A"/>
<path d="M204.772 239.437C217.72 238.858 227.603 232.099 226.847 224.337C226.09 216.586 214.969 210.77 202.021 211.35C189.073 211.93 179.19 218.689 179.946 226.44C180.702 234.211 191.823 240.027 204.772 239.437Z" fill="#FF9D33"/>
<path d="M203.386 232.03C214.301 230.861 222.16 225.36 220.932 219.73C219.704 214.101 209.861 210.476 198.946 211.645C188.031 212.814 180.172 218.316 181.4 223.945C182.628 229.574 192.472 233.199 203.386 232.03Z" fill="#FFD243"/>
<path d="M185.143 216.921C184.406 217.559 183.709 218.237 183.129 218.994C182.53 219.73 182.039 220.536 181.675 221.371C181.322 222.206 181.086 223.09 181.017 223.965C180.948 224.849 181.046 225.723 181.282 226.558C181.744 228.248 182.795 229.78 184.112 231.058C185.418 232.354 187 233.415 188.68 234.29C190.37 235.154 192.167 235.842 194.014 236.382C195.871 236.903 197.767 237.276 199.693 237.483C203.534 237.954 207.454 237.827 211.226 237.09C214.979 236.363 218.663 234.968 221.522 232.698C222.937 231.568 224.116 230.183 224.745 228.621C225.383 227.059 225.491 225.35 224.971 223.709C224.469 222.059 223.399 220.536 222.092 219.21C220.776 217.874 219.184 216.773 217.494 215.82C214.085 213.934 210.234 212.785 206.295 212.107C206.01 212.058 205.813 211.783 205.862 211.498C205.912 211.232 206.147 211.046 206.403 211.056C210.509 211.242 214.635 212.097 218.487 213.846C220.402 214.74 222.239 215.85 223.88 217.304C225.511 218.738 226.935 220.565 227.741 222.766C228.134 223.866 228.36 225.055 228.35 226.254C228.35 227.452 228.114 228.641 227.702 229.751C226.867 231.981 225.354 233.818 223.664 235.253C221.964 236.707 220.039 237.787 218.054 238.632C216.07 239.487 214.007 240.086 211.924 240.518C209.841 240.951 207.719 241.167 205.607 241.216C203.495 241.285 201.373 241.157 199.28 240.892C195.095 240.312 190.939 239.133 187.196 236.991C185.34 235.911 183.561 234.624 182.068 232.983C180.595 231.352 179.367 229.348 178.895 227.079C178.669 225.949 178.64 224.77 178.816 223.64C179.003 222.511 179.376 221.42 179.917 220.447C180.457 219.475 181.125 218.591 181.882 217.824C182.638 217.058 183.483 216.4 184.357 215.81C184.662 215.604 185.065 215.693 185.271 215.987C185.458 216.331 185.399 216.704 185.143 216.921Z" fill="#30356A"/>
<path d="M73.1275 229.613C75.1709 227.619 76.4284 225.33 76.6249 222.923C76.9786 218.561 73.7562 215.053 68.5101 212.833C65.0716 211.379 60.7588 210.593 56.0137 210.731C44.0478 211.084 33.8601 217.234 33.2707 224.455C33.0545 227.147 34.1843 229.603 36.326 231.617C39.9216 235.006 46.3663 236.873 53.8818 236.647" fill="#FFD243"/>
<path d="M76.2221 222.893C76.2319 221.793 76.0059 220.722 75.5639 219.759C75.1316 218.787 74.4832 217.922 73.7169 217.175C72.9604 216.419 72.0762 215.771 71.1331 215.22C70.1998 214.66 69.1978 214.179 68.176 213.776C66.1228 212.971 63.9615 212.43 61.751 212.145C59.5504 211.831 57.3006 211.782 55.0705 211.89C50.6103 212.126 46.1698 213.147 42.1517 215.083C40.1574 216.065 38.2711 217.274 36.7091 218.836C35.9232 219.612 35.2453 220.476 34.6853 221.419C34.145 222.372 33.7618 223.414 33.585 224.504V224.514C33.5555 224.691 33.3885 224.819 33.2117 224.789C33.0447 224.76 32.9268 224.612 32.9366 224.455C32.9661 223.257 33.2608 222.058 33.7422 220.948C34.2334 219.838 34.9211 218.826 35.6972 217.912C37.2691 216.085 39.2241 214.631 41.3068 213.482C43.3896 212.322 45.6295 211.468 47.9185 210.849C50.2076 210.22 52.5654 209.866 54.933 209.709C57.3006 209.562 59.6879 209.67 62.0457 210.004C64.3937 210.367 66.7319 210.996 68.9227 211.978C70.0132 212.479 71.0742 213.049 72.0861 213.727C73.0783 214.415 74.0214 215.211 74.8369 216.144C75.6424 217.077 76.3105 218.158 76.7035 219.337C77.0964 220.516 77.2045 221.783 77.0178 222.982C76.9884 223.207 76.7722 223.355 76.5463 223.325C76.3596 223.266 76.2122 223.09 76.2221 222.893Z" fill="#30356A"/>
<path d="M57.2515 233.455C66.2406 231.843 72.5183 226.204 71.2706 220.85C70.0131 215.506 61.7117 212.48 52.7225 214.091C43.7334 215.702 37.4557 221.341 38.7034 226.696C39.951 232.04 48.2525 235.066 57.2515 233.455Z" fill="#FF9D33"/>
<path d="M55.5911 228.405C63.1066 226.577 68.0875 221.999 66.7022 218.177C65.3269 214.356 58.1061 212.745 50.5905 214.572C43.075 216.399 38.0941 220.977 39.4794 224.799C40.8646 228.621 48.0755 230.242 55.5911 228.405Z" fill="#FFD243"/>
<path d="M41.405 219.514C40.9432 220.025 40.5208 220.565 40.1769 221.145C39.8233 221.714 39.5384 222.324 39.3615 222.952C38.9882 224.21 39.057 225.536 39.5678 226.676C40.0492 227.835 40.9334 228.827 41.9846 229.613C43.026 230.409 44.2442 231.018 45.5017 231.48C48.0461 232.393 50.7969 232.767 53.5379 232.708C56.2788 232.678 59.0198 232.226 61.6035 231.352C64.1775 230.487 66.6335 229.161 68.4412 227.285C69.3352 226.351 70.0327 225.251 70.3373 224.072C70.6418 222.893 70.5436 221.655 70.0229 220.536C69.512 219.416 68.5984 218.433 67.5472 217.628C66.496 216.812 65.2581 216.193 63.9908 215.692C61.4267 214.68 58.6072 214.277 55.7876 214.189C55.601 214.179 55.4634 214.032 55.4634 213.845C55.4732 213.678 55.601 213.541 55.768 213.531C57.2121 213.413 58.6661 213.413 60.1201 213.56C61.5741 213.698 63.0182 213.973 64.4427 214.395C65.8574 214.837 67.2328 215.447 68.5001 216.311C69.7576 217.156 70.9071 218.286 71.6635 219.74C72.42 221.174 72.6558 222.942 72.2726 224.544C71.8993 226.155 71.025 227.56 69.9836 228.699C68.9422 229.859 67.7044 230.792 66.4076 231.558C65.1108 232.334 63.7354 232.943 62.3207 233.435C59.5012 234.407 56.5244 234.849 53.5575 234.879C50.6004 234.869 47.5942 234.437 44.8041 233.297C43.4091 232.727 42.0632 232 40.8745 230.998C39.6956 230.006 38.6738 228.749 38.1335 227.226C37.5932 225.713 37.6619 224.003 38.2219 222.569C38.497 221.842 38.8802 221.174 39.3222 220.565C39.7742 219.956 40.2948 219.425 40.845 218.934C41.012 218.787 41.2773 218.797 41.4246 218.964C41.5523 219.111 41.5425 219.347 41.405 219.514Z" fill="#30356A"/>
<path d="M141.189 254.164C143.233 252.169 144.49 249.88 144.687 247.473C145.04 243.111 141.818 239.604 136.572 237.384C133.134 235.93 128.821 235.144 124.076 235.282C112.11 235.635 101.922 241.785 101.333 249.006C101.116 251.698 102.246 254.154 104.388 256.168C107.984 259.557 114.428 261.424 121.944 261.198" fill="#FFD243"/>
<path d="M144.274 247.434C144.284 246.334 144.058 245.263 143.616 244.3C143.184 243.328 142.536 242.463 141.769 241.716C141.013 240.96 140.129 240.312 139.186 239.761C138.252 239.201 137.25 238.72 136.228 238.317C134.175 237.512 132.014 236.971 129.803 236.686C127.603 236.372 125.353 236.323 123.123 236.431C118.663 236.667 114.222 237.689 110.204 239.624C108.21 240.606 106.324 241.815 104.761 243.377C103.976 244.153 103.298 245.017 102.738 245.96C102.197 246.913 101.814 247.955 101.637 249.045V249.055C101.608 249.232 101.441 249.36 101.264 249.33C101.097 249.301 100.979 249.153 100.989 248.996C101.018 247.798 101.313 246.599 101.795 245.489C102.286 244.379 102.973 243.367 103.75 242.453C105.321 240.626 107.276 239.172 109.359 238.023C111.442 236.863 113.682 236.009 115.971 235.39C118.26 234.761 120.618 234.407 122.985 234.25C125.353 234.103 127.74 234.211 130.098 234.545C132.446 234.908 134.784 235.537 136.975 236.519C138.066 237.02 139.127 237.59 140.138 238.268C141.131 238.956 142.074 239.752 142.889 240.685C143.695 241.618 144.363 242.699 144.756 243.878C145.149 245.057 145.257 246.324 145.07 247.523C145.041 247.748 144.825 247.896 144.599 247.866C144.422 247.817 144.274 247.64 144.274 247.434Z" fill="#30356A"/>
<path d="M125.314 257.995C134.303 256.384 140.58 250.745 139.333 245.391C138.075 240.046 129.774 237.02 120.785 238.632C111.796 240.243 105.518 245.882 106.766 251.236C108.013 256.59 116.315 259.616 125.314 257.995Z" fill="#FF9D33"/>
<path d="M123.653 252.956C131.169 251.128 136.15 246.55 134.765 242.729C133.389 238.907 126.168 237.296 118.653 239.123C111.137 240.951 106.156 245.529 107.542 249.35C108.927 253.172 116.138 254.783 123.653 252.956Z" fill="#FFD243"/>
<path d="M109.467 244.055C109.005 244.566 108.583 245.106 108.239 245.686C107.885 246.255 107.601 246.865 107.424 247.493C107.05 248.751 107.119 250.077 107.63 251.217C108.111 252.376 108.996 253.368 110.047 254.154C111.088 254.95 112.306 255.559 113.564 256.021C116.108 256.934 118.859 257.308 121.6 257.249C124.341 257.219 127.082 256.767 129.666 255.893C132.24 255.028 134.696 253.702 136.503 251.826C137.397 250.892 138.095 249.792 138.399 248.613C138.704 247.434 138.606 246.196 138.085 245.077C137.574 243.957 136.661 242.974 135.609 242.169C134.558 241.353 133.32 240.734 132.053 240.233C129.489 239.221 126.669 238.818 123.85 238.73C123.663 238.72 123.526 238.573 123.526 238.386C123.535 238.219 123.663 238.082 123.83 238.072C125.274 237.954 126.728 237.954 128.182 238.101C129.636 238.239 131.08 238.514 132.505 238.936C133.92 239.378 135.295 239.988 136.562 240.852C137.82 241.697 138.969 242.827 139.726 244.281C140.482 245.715 140.718 247.483 140.335 249.085C139.962 250.696 139.087 252.101 138.046 253.24C137.004 254.4 135.767 255.333 134.47 256.099C133.173 256.875 131.798 257.485 130.383 257.976C127.563 258.948 124.587 259.39 121.62 259.42C118.663 259.41 115.656 258.978 112.866 257.838C111.471 257.268 110.125 256.541 108.937 255.539C107.758 254.547 106.736 253.29 106.196 251.767C105.655 250.254 105.724 248.544 106.284 247.11C106.559 246.383 106.942 245.715 107.384 245.106C107.836 244.497 108.357 243.966 108.907 243.475C109.074 243.328 109.339 243.338 109.487 243.505C109.615 243.662 109.605 243.898 109.467 244.055Z" fill="#30356A"/>
<path d="M155.828 220.034C157.979 218.659 159.384 217.028 159.757 215.24C160.435 211.998 157.537 209.198 152.566 207.243C149.304 205.956 145.139 205.121 140.492 204.954C128.742 204.531 118.309 208.54 117.179 213.914C116.757 215.908 117.69 217.814 119.635 219.435C122.907 222.176 129.066 223.934 136.444 224.2" fill="#FFD243"/>
<path d="M159.354 215.152C159.462 214.189 159.246 213.256 158.745 212.47C158.264 211.664 157.537 211.006 156.761 210.426C155.159 209.287 153.273 208.481 151.357 207.852C147.496 206.585 143.37 206.084 139.273 206.015C135.167 205.956 131.041 206.388 127.082 207.44C125.117 207.99 123.181 208.687 121.443 209.699C120.568 210.2 119.753 210.799 119.055 211.497C118.358 212.195 117.788 213.02 117.513 213.973C117.464 214.15 117.277 214.248 117.1 214.199C116.943 214.15 116.845 213.992 116.864 213.835C117.022 212.715 117.562 211.674 118.259 210.799C118.957 209.915 119.812 209.198 120.696 208.56C122.504 207.302 124.498 206.398 126.551 205.72C128.604 205.033 130.717 204.561 132.848 204.257C134.98 203.932 137.132 203.814 139.283 203.824C143.576 203.854 147.909 204.453 152.015 205.956C154.049 206.742 156.034 207.715 157.753 209.188C158.598 209.925 159.374 210.809 159.875 211.88C160.12 212.411 160.278 213 160.337 213.59C160.395 214.179 160.317 214.768 160.16 215.319C160.101 215.535 159.875 215.662 159.659 215.604C159.462 215.554 159.334 215.358 159.364 215.161L159.354 215.152Z" fill="#30356A"/>
<path d="M268.03 213.148C267.637 213.639 267.244 214.121 266.851 214.612C266.419 215.143 265.986 215.663 265.554 216.174C181.282 190.454 103.18 190.454 19.9194 216.174C19.4872 215.653 19.0451 215.133 18.6226 214.612C18.2297 214.131 17.8367 213.639 17.4437 213.148C17.6206 213.001 17.8269 212.883 18.0626 212.814C60.071 199.768 100.272 193.352 140.954 193.205H142.349C183.512 193.205 224.44 199.62 267.411 212.814C267.637 212.883 267.853 212.991 268.03 213.148Z" fill="#30356A"/>
<path d="M139.981 224.21C148.911 223.522 155.484 219.661 154.649 215.594C153.823 211.527 145.915 208.786 136.985 209.483C128.054 210.171 121.482 214.032 122.317 218.099C123.142 222.157 131.061 224.898 139.981 224.21Z" fill="#FF9D33"/>
<path d="M138.743 220.339C146.239 219.406 151.456 216.262 150.395 213.334C149.334 210.397 142.388 208.786 134.882 209.719C127.386 210.652 122.17 213.796 123.231 216.724C124.302 219.661 131.237 221.282 138.743 220.339Z" fill="#FFD243"/>
<path d="M125.471 212.99C124.479 213.727 123.575 214.611 123.133 215.643C122.681 216.664 122.818 217.755 123.467 218.629C124.086 219.523 125.068 220.24 126.119 220.79C127.18 221.36 128.33 221.783 129.518 222.117C131.896 222.775 134.381 223.109 136.877 223.178C139.372 223.266 141.877 223.08 144.314 222.628C146.74 222.176 149.147 221.429 151.151 220.191C152.144 219.572 153.018 218.796 153.46 217.902C153.902 217.008 153.863 216.055 153.293 215.151C152.743 214.248 151.79 213.491 150.768 212.862C149.737 212.234 148.587 211.742 147.408 211.34C145.041 210.524 142.526 210.072 139.991 209.817C139.804 209.797 139.677 209.64 139.696 209.453C139.716 209.286 139.854 209.159 140.021 209.159C142.624 209.1 145.247 209.355 147.811 210.023C149.088 210.367 150.356 210.819 151.564 211.448C152.763 212.086 153.951 212.902 154.816 214.159C155.238 214.788 155.582 215.544 155.661 216.37C155.749 217.195 155.592 218.03 155.258 218.747C154.58 220.191 153.44 221.174 152.291 221.95C151.132 222.736 149.874 223.286 148.607 223.748C147.34 224.199 146.043 224.543 144.726 224.799C142.103 225.31 139.441 225.457 136.798 225.359C134.156 225.221 131.503 224.838 128.949 223.993C127.672 223.571 126.424 223.05 125.245 222.343C124.086 221.626 122.946 220.741 122.17 219.454C121.787 218.816 121.531 218.059 121.512 217.283C121.482 216.507 121.679 215.741 122.042 215.102C122.759 213.805 123.889 212.961 125.039 212.302C125.235 212.194 125.481 212.263 125.599 212.46C125.697 212.636 125.638 212.872 125.471 212.99Z" fill="#30356A"/>
<path d="M265.377 218.355C265.81 217.844 266.242 217.323 266.674 216.793C266.871 216.547 267.067 216.304 267.264 216.061C267.46 215.818 267.656 215.575 267.853 215.329L265.377 218.355ZM265.377 218.355C235.973 253.378 191.863 275.63 142.555 275.63C93.2473 275.63 49.1465 253.378 19.7328 218.355H265.377ZM301.683 115.319C301.683 152.863 288.675 187.372 266.929 214.59C266.735 214.831 266.541 215.071 266.346 215.314L266.343 215.317C266.148 215.558 265.951 215.802 265.753 216.049C265.326 216.573 264.9 217.086 264.474 217.59L264.471 217.594C235.282 252.361 191.498 274.446 142.555 274.446C93.6136 274.446 49.841 252.362 20.6426 217.598C20.4932 217.418 20.3458 217.242 20.2001 217.067C19.9128 216.724 19.632 216.388 19.3552 216.047L19.353 216.044C18.9643 215.568 18.575 215.082 18.1814 214.59C-3.56471 187.382 -16.5726 152.873 -16.5726 115.319C-16.5726 28.8322 52.4288 -41.5451 138.378 -43.7503C139.767 -43.7797 141.162 -43.7991 142.555 -43.7991C143.948 -43.7991 145.342 -43.7797 146.73 -43.7504C147.418 -43.7307 148.095 -43.7113 148.762 -43.6824L148.768 -43.6821C233.772 -40.4251 301.683 29.5141 301.683 115.319Z" stroke="#30356A" stroke-width="2.36752"/>
</g>
<path d="M92.8375 107.464C85.7831 114.357 82.2899 143.229 86.2846 159.633C90.2877 176.045 119.874 173.419 136.634 170.665C153.395 167.911 148.329 129.868 146.765 119.703C144.335 103.835 103.292 97.2481 92.8375 107.464Z" fill="white"/>
<g opacity="0.25">
<path d="M136.634 170.665C119.874 173.418 90.2878 176.036 86.2847 159.633C85.7662 157.482 85.3668 155.119 85.0948 152.621C90.2198 155.663 96.2713 151.558 96.4668 146.994C97.0873 132.307 99.79 122.032 102.875 114.943C106.445 106.75 115.335 102.152 124.072 104.064C135.444 106.555 145.601 112.054 146.774 119.703C148.329 129.868 153.395 167.911 136.634 170.665Z" fill="#30356A"/>
</g>
<path d="M114.366 174.344C99.9259 174.344 87.381 170.97 84.7037 160.015C80.4711 142.676 84.2617 113.558 91.6986 106.299C98.821 99.3384 117.46 99.7804 130.642 104.183C141.096 107.676 147.394 113.099 148.372 119.456C149.519 126.927 150.769 137.951 150.191 148.056C149.349 162.811 144.879 170.953 136.898 172.271C129.605 173.469 121.744 174.344 114.366 174.344ZM110.618 104.175C103.266 104.175 96.9852 105.687 93.9764 108.628C87.432 115.028 84.0068 143.416 87.8739 159.25C91.5031 174.124 119.823 171.778 136.379 169.058C151.16 166.627 146.842 130.854 145.168 119.949C144.394 114.926 138.725 110.302 129.622 107.268C123.375 105.186 116.635 104.175 110.618 104.175Z" fill="#30356A"/>
<path d="M98.1666 135.18L90.3048 133.183C88.5285 132.732 86.7521 133.939 86.5311 135.758C85.7577 142.013 84.9928 154.881 91.4182 156.649C99.212 158.791 100.708 149.935 100.461 138.061C100.436 136.693 99.4925 135.511 98.1666 135.18Z" fill="white"/>
<g opacity="0.25">
<path d="M100.444 138.045C100.716 149.91 99.2374 158.774 91.4435 156.65C88.2393 155.783 86.8199 152.153 86.293 147.963C87.0664 149.085 88.0693 149.893 89.3782 150.25C96.3561 152.153 98.2769 145.243 98.3959 135.257C99.5858 135.648 100.419 136.761 100.444 138.045Z" fill="#30356A"/>
</g>
<path d="M93.611 158.587C92.7951 158.587 91.9282 158.459 91.0103 158.213C83.5394 156.182 83.9644 143.152 84.8908 135.571C85.0523 134.245 85.7747 133.047 86.8796 132.29C87.9845 131.534 89.3699 131.279 90.6703 131.61L98.5321 133.591C100.563 134.101 102.017 135.919 102.068 138.01C102.314 148.898 101.014 154.643 97.7162 157.219C96.5518 158.128 95.1749 158.587 93.611 158.587ZM89.5229 134.721C89.2424 134.721 88.9619 134.806 88.724 134.976C88.384 135.205 88.1715 135.562 88.1205 135.97C87.0921 144.436 87.5426 153.904 91.8687 155.085C93.5175 155.536 94.7754 155.4 95.7104 154.66C99.1271 151.983 98.8891 141.52 98.8126 138.087C98.7956 137.458 98.3536 136.905 97.7332 136.752L89.8714 134.772C89.7609 134.738 89.6419 134.721 89.5229 134.721Z" fill="#30356A"/>
<path d="M91.4946 108.425C92.472 108.646 93.4069 108.875 94.3588 109.113C95.3023 109.351 96.2457 109.606 97.1891 109.869C99.0674 110.405 100.937 110.991 102.773 111.688C103.173 111.841 103.368 112.283 103.215 112.674C103.079 113.04 102.688 113.235 102.323 113.15H102.314C100.47 112.717 98.5915 112.394 96.7046 112.122C95.7612 111.986 94.8178 111.858 93.8659 111.748C92.9225 111.637 91.9621 111.535 91.0356 111.45H91.0271C90.1857 111.374 89.5568 110.634 89.6333 109.784C89.7097 108.943 90.4492 108.314 91.2991 108.391C91.3586 108.399 91.4266 108.408 91.4946 108.425Z" fill="#30356A"/>
<path d="M218.397 99.6533C216.043 110.328 210.739 119.89 203.608 123.494C197.217 126.732 193.069 127.769 182.352 128.806C176.742 129.35 171.226 129.112 166.382 128.568C156.879 127.488 149.961 125.194 149.961 125.194L148.89 115.997L148.295 110.847L146.748 97.503C146.748 97.503 152.213 98.5654 159.31 99.1093C164.206 99.4833 169.883 99.6108 175.059 98.9648C181.34 98.1914 186.907 96.2791 189.534 92.3184C195.007 84.0486 189.049 73.722 195.313 68.4015C200.727 63.7949 217.513 69.1664 219.23 80.309C220.165 86.4624 219.817 93.2533 218.397 99.6533Z" fill="white"/>
<g opacity="0.25">
<path d="M218.397 99.6538C216.043 110.329 210.739 119.891 203.608 123.494C197.217 126.732 193.069 127.769 182.352 128.806C176.742 129.35 171.226 129.112 166.381 128.568C156.879 127.489 149.961 125.194 149.961 125.194L148.89 115.998L148.295 110.847L163.322 109.938C163.322 109.938 178.782 126.342 200.277 117.307C208.716 113.754 214.521 106.657 218.397 99.6538Z" fill="#30356A"/>
</g>
<path d="M175.757 130.744C172.671 130.744 169.476 130.557 166.195 130.183C156.633 129.095 149.732 126.826 149.443 126.732L148.457 126.409L144.862 95.4804L147.046 95.9053C147.097 95.9138 152.511 96.9592 159.421 97.4862C165.311 97.9366 170.504 97.8941 174.847 97.3502C181.638 96.5088 186.117 94.5199 188.165 91.4262C190.537 87.8395 190.511 83.7004 190.486 79.6972C190.46 75.1331 190.426 70.416 194.242 67.1693C197.141 64.7045 202.64 64.458 208.249 66.5488C213.629 68.5547 219.757 73.1528 220.82 80.0712C223.284 96.1093 217.122 118.488 204.331 124.956C197.727 128.296 193.444 129.375 182.496 130.438C180.329 130.642 178.077 130.744 175.757 130.744ZM151.449 123.953C153.658 124.599 159.387 126.137 166.56 126.953C172.085 127.582 177.337 127.659 182.19 127.191C192.645 126.18 196.707 125.168 202.869 122.049C213.128 116.865 220.157 97.0867 217.615 80.5556C216.766 75.0311 211.64 71.2744 207.127 69.5916C202.742 67.9597 198.314 67.9767 196.359 69.6426C193.698 71.9034 193.724 75.4986 193.749 79.6717C193.775 83.9553 193.8 88.8084 190.885 93.2196C188.284 97.1377 183.032 99.6195 175.255 100.58C170.691 101.149 165.285 101.2 159.174 100.733C154.678 100.393 150.854 99.849 148.601 99.4835L151.449 123.953Z" fill="#30356A"/>
<path d="M146.29 164.248C143.468 182.411 134.076 197.786 109.921 201.713C109.921 201.713 110.117 202.027 110.397 202.571C111.026 203.77 112.08 206.073 112.428 208.504C113.049 212.762 111.511 217.445 101.745 217.385C90.7553 217.326 84.5848 208.691 82.7575 199.358C81.4231 192.533 82.4175 185.335 85.5537 180.83C90.2878 174.022 98.9401 172.875 106.266 167.189C108.009 165.837 109.683 164.222 111.213 162.208C112.53 160.474 113.746 158.434 114.842 156.216C117.299 151.236 119.126 145.363 120.018 140.084L147.25 146.102C147.428 152.247 147.199 158.392 146.29 164.248Z" fill="white"/>
<g opacity="0.25">
<path d="M109.921 201.712C109.921 201.712 110.117 202.027 110.397 202.571C106.496 201.908 99.5519 200.013 94.0614 194.65C94.0614 194.65 112.93 199.188 121.174 187.808C128.024 178.348 110.813 181.102 106.258 167.188C108 165.837 109.675 164.214 111.204 162.208C112.522 160.474 113.737 158.434 114.834 156.216C125.993 156.292 143.417 163.092 146.281 164.248C143.468 182.411 134.076 197.786 109.921 201.712Z" fill="#30356A"/>
</g>
<g opacity="0.25">
<path d="M101.753 217.394C90.7638 217.334 84.5933 208.699 82.766 199.358C86.1062 204.806 93.0586 212.974 104.55 212.286C109.097 212.014 111.349 210.314 112.445 208.504C113.057 212.77 111.519 217.445 101.753 217.394Z" fill="#30356A"/>
</g>
<path d="M101.915 219.026C101.855 219.026 101.804 219.026 101.745 219.026C94.0274 218.983 87.687 214.954 83.9133 207.671C79.3577 198.899 79.4937 186.703 84.2278 179.912C87.279 175.526 91.6646 173.384 96.3137 171.115C101.09 168.786 106.028 166.373 109.921 161.231C113.737 156.199 117.069 147.793 118.42 139.821C118.573 138.937 119.406 138.342 120.299 138.486C121.183 138.639 121.778 139.472 121.633 140.365C120.188 148.949 116.695 157.703 112.522 163.202C108.153 168.956 102.629 171.659 97.7501 174.039C93.3135 176.206 89.4718 178.076 86.905 181.773C82.8084 187.663 82.7659 198.381 86.8115 206.175C89.0723 210.526 93.5005 215.728 101.77 215.779C101.821 215.779 101.881 215.779 101.932 215.779C106.368 215.779 109.199 214.759 110.329 212.753C112.08 209.642 109.641 204.356 108.553 202.579L107.286 200.514L109.675 200.123C135.172 195.976 146.595 178.833 145.626 146.161C145.601 145.26 146.306 144.512 147.207 144.487C148.125 144.461 148.856 145.167 148.882 146.068C149.859 179.266 137.926 197.896 112.394 202.936C113.644 205.665 115.284 210.569 113.159 214.342C111.4 217.445 107.618 219.026 101.915 219.026Z" fill="#30356A"/>
<path d="M131.152 191.063C124.472 191.063 117.842 187.808 111.757 181.502C106.3 175.841 103.232 169.807 103.105 169.552C102.799 168.948 103.045 168.217 103.649 167.911C104.244 167.605 104.983 167.852 105.289 168.455C105.408 168.693 117.299 191.837 134.85 188.25C135.512 188.114 136.15 188.539 136.286 189.202C136.422 189.865 135.997 190.502 135.334 190.638C133.94 190.919 132.546 191.063 131.152 191.063Z" fill="#30356A"/>
<path d="M94.665 194.174C94.8604 194.378 95.1409 194.633 95.3959 194.854C95.6594 195.075 95.9313 195.304 96.2203 195.508C96.5008 195.721 96.7898 195.925 97.0872 196.112C97.3762 196.316 97.6822 196.494 97.9882 196.673C99.2121 197.387 100.504 197.973 101.821 198.475C102.493 198.696 103.156 198.942 103.844 199.121C104.184 199.214 104.524 199.325 104.873 199.393L105.909 199.622C106.249 199.707 106.606 199.758 106.955 199.809L108 199.979C108.706 200.064 109.411 200.123 110.108 200.2L110.202 200.208C111.043 200.302 111.655 201.058 111.562 201.9C111.468 202.741 110.712 203.353 109.87 203.26C109.828 203.251 109.785 203.251 109.743 203.243C108.986 203.098 108.23 202.962 107.482 202.801L106.36 202.52C105.986 202.427 105.612 202.333 105.247 202.214L104.142 201.874C103.776 201.764 103.419 201.611 103.054 201.483C102.331 201.228 101.626 200.905 100.92 200.599C99.535 199.936 98.1836 199.18 96.9258 198.288C96.6113 198.067 96.2968 197.846 95.9993 197.599C95.6934 197.361 95.3959 197.115 95.1069 196.86C94.8179 196.605 94.5375 196.333 94.2655 196.061C93.985 195.772 93.7385 195.508 93.4581 195.151C93.1946 194.82 93.2541 194.335 93.5855 194.08C93.9 193.834 94.342 193.868 94.614 194.148L94.665 194.174Z" fill="#30356A"/>
<path d="M165.158 156.938C164.775 157.831 164.376 158.655 163.959 159.42C163.636 160.023 163.296 160.593 162.931 161.145C156.905 170.427 146.68 172.789 139.278 173.741C131.441 174.753 104.618 172.211 101.507 153.64C101.49 153.555 101.473 153.462 101.464 153.377C100.971 150.3 100.861 147.402 101.031 144.563C101.048 144.223 101.073 143.883 101.107 143.543C101.447 139.472 102.323 135.486 103.419 131.228C104.94 125.304 106.887 118.853 108.357 110.915C108.434 110.498 108.51 110.082 108.587 109.657C109.216 106.087 109.751 102.203 110.108 97.9448C110.151 97.4603 110.185 96.9674 110.227 96.4744C110.558 91.9783 110.686 87.0487 110.533 81.6177L154.984 90.2444L157.814 96.0494L159.31 99.1092L162.311 105.263L163.228 109.504L163.322 109.937C164.027 113.609 165.319 120.102 165.736 123.281C165.974 125.125 166.195 126.885 166.382 128.568C167.937 142.489 167.691 151.023 165.158 156.938Z" fill="white"/>
<g opacity="0.26">
<path d="M162.591 161.655C156.523 170.512 146.536 172.807 139.278 173.741C131.849 174.702 107.371 172.467 102.187 156.42C112.241 168.531 134.068 170.282 141.462 169.33C147.811 168.506 155.936 166.798 162.591 161.655Z" fill="#30356A"/>
</g>
<path d="M164.07 109.776C165.421 113.754 166.356 117.842 167.07 121.981C167.419 124.046 167.691 126.129 167.946 128.22C168.201 130.302 168.405 132.401 168.558 134.501C168.855 138.708 168.966 142.94 168.643 147.207C168.49 149.34 168.201 151.474 167.75 153.607C167.283 155.732 166.628 157.857 165.574 159.888C165.047 160.882 164.487 161.826 163.849 162.735C163.22 163.645 162.532 164.52 161.775 165.336C161.036 166.16 160.237 166.942 159.387 167.656C158.546 168.37 157.662 169.05 156.735 169.654C153.038 172.093 148.856 173.589 144.658 174.49C143.604 174.719 142.55 174.906 141.496 175.076C140.969 175.161 140.442 175.238 139.915 175.306C139.66 175.34 139.388 175.374 139.099 175.408C138.819 175.433 138.538 175.459 138.266 175.484C136.065 175.628 133.923 175.561 131.79 175.391C127.523 175.034 123.308 174.243 119.211 172.917C115.131 171.583 111.137 169.704 107.703 166.9C105.995 165.497 104.448 163.857 103.19 161.987C101.94 160.126 100.988 158.035 100.428 155.859C100.292 155.315 100.164 154.771 100.062 154.219C99.9601 153.666 99.9006 153.148 99.8156 152.604C99.7306 152.069 99.6796 151.533 99.6286 150.998C99.5776 150.462 99.5181 149.927 99.5011 149.383C99.3736 147.224 99.4161 145.057 99.6286 142.923C100.037 138.64 100.997 134.492 102.042 130.446C103.096 126.392 104.218 122.406 105.187 118.394C106.156 114.383 106.972 110.354 107.592 106.291C108.816 98.1661 109.216 89.9134 108.995 81.6776C108.969 80.8276 109.641 80.1307 110.482 80.1052C111.324 80.0797 112.029 80.7511 112.055 81.5926C112.284 89.9813 111.876 98.4211 110.618 106.75C109.989 110.915 109.148 115.037 108.162 119.117C107.176 123.196 106.046 127.217 105.009 131.22C103.972 135.214 103.062 139.209 102.68 143.212C102.484 145.218 102.45 147.224 102.561 149.213C102.578 149.714 102.629 150.207 102.68 150.709C102.722 151.21 102.773 151.703 102.85 152.196C102.926 152.689 102.977 153.199 103.071 153.666C103.156 154.142 103.266 154.61 103.385 155.069C103.87 156.922 104.677 158.672 105.748 160.253C106.819 161.834 108.153 163.254 109.666 164.486C112.692 166.951 116.364 168.676 120.171 169.909C123.996 171.132 128.008 171.872 132.036 172.195C134.042 172.348 136.073 172.407 138.028 172.263C138.275 172.246 138.513 172.22 138.751 172.195C138.98 172.169 139.227 172.135 139.482 172.101C139.983 172.033 140.485 171.957 140.986 171.88C141.989 171.719 142.975 171.532 143.961 171.319C147.879 170.461 151.67 169.093 154.925 166.934C155.741 166.398 156.514 165.812 157.254 165.183C157.993 164.554 158.69 163.882 159.336 163.16C159.99 162.446 160.594 161.681 161.146 160.882C161.699 160.092 162.209 159.242 162.651 158.4C163.084 157.568 163.45 156.675 163.756 155.757C164.062 154.831 164.317 153.887 164.538 152.918C164.962 150.981 165.251 148.992 165.413 146.969C165.744 142.932 165.676 138.835 165.413 134.739C165.149 130.642 164.657 126.545 164.07 122.466C163.535 118.369 162.914 114.289 162.566 110.125C162.532 109.7 162.846 109.326 163.271 109.292C163.637 109.232 163.951 109.453 164.07 109.776Z" fill="#30356A"/>
<path d="M173.717 137.322C173.929 140.263 171.719 142.83 168.77 143.042C165.829 143.254 163.263 141.045 163.05 138.095C162.838 135.155 165.047 132.588 167.997 132.375C170.946 132.163 173.504 134.381 173.717 137.322Z" fill="white"/>
<g opacity="0.25">
<path d="M173.717 137.322C173.929 140.263 171.719 142.829 168.778 143.042C165.838 143.254 163.271 141.036 163.058 138.095C162.999 137.279 163.126 136.497 163.407 135.775C164.393 137.517 166.322 138.631 168.447 138.478C170.572 138.325 172.323 136.939 173.045 135.078C173.419 135.75 173.657 136.506 173.717 137.322Z" fill="#30356A"/>
</g>
<path d="M168.379 144.275C166.807 144.275 165.302 143.714 164.096 142.677C162.77 141.53 161.971 139.932 161.843 138.189C161.58 134.577 164.308 131.432 167.912 131.169C171.532 130.905 174.669 133.634 174.932 137.237C175.196 140.85 172.467 143.994 168.864 144.258C168.702 144.266 168.541 144.275 168.379 144.275ZM168.388 133.583C168.286 133.583 168.184 133.583 168.09 133.591C165.821 133.753 164.113 135.733 164.274 138.002C164.351 139.099 164.86 140.102 165.693 140.824C166.526 141.547 167.589 141.895 168.694 141.819C170.963 141.657 172.671 139.677 172.51 137.407C172.348 135.24 170.529 133.583 168.388 133.583Z" fill="#30356A"/>
<g opacity="0.35">
<path d="M168.311 141.461C167.368 135.469 167.164 129.902 167.393 124.947C167.529 127.803 167.818 130.803 168.311 133.931C168.889 137.594 169.076 141.419 168.753 145.176C168.651 143.935 168.506 142.685 168.311 141.461Z" fill="#30356A"/>
</g>
<path d="M163.22 151.839L135.317 153.42C132.011 153.607 129.155 151.057 128.968 147.751L128.126 132.902C127.965 130.004 129.894 127.463 132.606 126.74C132.988 126.638 133.388 126.579 133.796 126.553L161.699 124.973C165.005 124.786 167.861 127.335 168.048 130.642L168.719 142.405L168.897 145.49C169.076 148.805 166.526 151.652 163.22 151.839Z" fill="white"/>
<path d="M101.864 134.509C101.864 134.509 98.3026 135.775 98.4216 140.458C98.5151 144.13 100.223 145.643 100.223 145.643C100.223 145.643 112.632 149.765 128.535 145.507C128.535 145.507 131.518 144.181 131.722 139.812C131.798 138.146 130.778 135.614 128.441 135.07C128.441 135.07 113.967 138.019 101.864 134.509Z" fill="white"/>
<path d="M163.22 151.839L135.317 153.42C132.011 153.607 129.155 151.057 128.968 147.751L128.126 132.902C127.965 130.004 129.894 127.463 132.606 126.74C132.988 126.638 133.388 126.579 133.796 126.553L161.699 124.973C165.005 124.786 167.861 127.335 168.048 130.642L168.719 142.405L168.897 145.49C169.076 148.805 166.526 151.652 163.22 151.839Z" fill="white"/>
<path d="M101.864 134.509C101.864 134.509 98.3026 135.775 98.4216 140.458C98.5151 144.13 100.223 145.643 100.223 145.643C100.223 145.643 112.632 149.765 128.535 145.507C128.535 145.507 131.518 144.181 131.722 139.812C131.798 138.146 130.778 135.614 128.441 135.07C128.441 135.07 113.967 138.019 101.864 134.509Z" fill="white"/>
<g opacity="0.25">
<path d="M164.954 135.852L165.617 147.615L165.795 150.7C165.804 150.836 165.804 150.963 165.804 151.099C165.481 152.017 165.141 152.867 164.784 153.658C164.503 154.278 164.197 154.873 163.883 155.451C162.888 156.377 161.588 156.972 160.135 157.057L132.232 158.638C128.925 158.825 126.07 156.275 125.883 152.969L125.747 150.564C125.56 150.674 125.449 150.725 125.449 150.725C122.857 151.422 120.367 151.89 118.004 152.196C111.366 153.046 105.756 152.57 102.034 151.958C101.43 151.864 100.878 151.762 100.385 151.66C100.674 148.966 100.878 146.136 100.997 143.195C101.031 142.243 101.065 141.283 101.082 140.305C101.464 140.39 101.855 140.475 102.238 140.543C112.649 142.549 123.622 140.611 125.177 140.322L125.05 138.121C124.888 135.223 126.818 132.673 129.52 131.959C129.903 131.857 130.302 131.798 130.719 131.772L158.622 130.191C161.911 129.996 164.767 132.545 164.954 135.852Z" fill="#30356A"/>
</g>
<g opacity="0.25">
<path d="M101.643 141.793L103.691 131.296C103.691 131.296 108.051 131.764 112.003 138.784C115.956 145.813 110.924 147.666 110.924 147.666L101.643 141.793Z" fill="#30356A"/>
</g>
<path d="M163.22 151.839L135.317 153.42C132.011 153.607 129.155 151.057 128.968 147.751L128.126 132.902C127.965 130.004 129.894 127.463 132.606 126.74C132.988 126.638 133.388 126.579 133.796 126.553L161.699 124.973C165.005 124.786 167.861 127.335 168.048 130.642L168.719 142.405L168.897 145.49C169.076 148.805 166.526 151.652 163.22 151.839Z" fill="white"/>
<g opacity="0.25">
<path d="M163.22 151.839L135.317 153.419C132.011 153.606 129.155 151.057 128.968 147.75L128.126 132.902C127.965 130.004 129.894 127.463 132.606 126.74C134.246 127.701 135.291 128.321 135.291 128.321C137.323 140.161 141.054 145.915 155.868 145.32C162.26 145.065 166.237 143.858 168.711 142.404L168.889 145.49C169.076 148.804 166.526 151.652 163.22 151.839Z" fill="#30356A"/>
</g>
<path d="M134.977 154.652C131.169 154.652 127.974 151.668 127.753 147.818L126.911 132.97C126.801 131.049 127.455 129.188 128.747 127.743C130.039 126.298 131.807 125.44 133.728 125.329L161.631 123.748C163.56 123.638 165.413 124.292 166.858 125.584C168.303 126.876 169.161 128.644 169.272 130.573L170.113 145.421C170.224 147.342 169.569 149.204 168.277 150.649C166.985 152.093 165.217 152.952 163.297 153.062L135.394 154.643C135.249 154.652 135.113 154.652 134.977 154.652ZM162.039 126.188C161.945 126.188 161.86 126.188 161.767 126.196L133.864 127.777C132.589 127.845 131.416 128.414 130.557 129.375C129.699 130.335 129.266 131.568 129.342 132.834L130.183 147.682C130.336 150.326 132.589 152.348 135.249 152.204L163.152 150.623C164.427 150.555 165.6 149.986 166.458 149.025C167.317 148.065 167.75 146.832 167.674 145.566L166.832 130.718C166.764 129.443 166.195 128.27 165.234 127.412C164.342 126.613 163.22 126.188 162.039 126.188Z" fill="#30356A"/>
<path d="M164.333 151.669C163.976 151.763 163.602 151.822 163.22 151.839L135.317 153.42C132.895 153.556 130.719 152.23 129.648 150.199C129.257 149.459 129.019 148.635 128.968 147.751L128.594 141.156L128.466 138.98L128.126 132.903C127.939 129.597 130.489 126.741 133.795 126.554L139.821 126.214C137.076 126.894 135.096 129.461 135.257 132.393L135.708 140.416L136.099 147.25C136.286 150.556 139.141 153.106 142.448 152.919L164.333 151.669Z" fill="white"/>
<g opacity="0.25">
<path d="M164.333 151.668C163.976 151.762 163.602 151.821 163.22 151.838L135.317 153.419C132.011 153.606 129.155 151.056 128.976 147.75L128.475 138.979C129.265 140.492 130.634 142.319 132.665 142.404C133.778 142.455 134.824 141.597 135.725 140.407L136.116 147.24C136.303 150.547 139.158 153.096 142.465 152.909L164.333 151.668Z" fill="#30356A"/>
</g>
<path d="M134.968 154.653C133.2 154.653 131.509 154.007 130.166 152.808C128.721 151.516 127.863 149.748 127.752 147.819L126.911 132.971C126.682 128.985 129.741 125.559 133.727 125.339L139.753 124.999L140.119 127.404C137.884 127.956 136.354 130.03 136.481 132.333L137.323 147.182C137.391 148.457 137.96 149.629 138.92 150.488C139.881 151.346 141.105 151.78 142.38 151.703L164.265 150.462L164.639 152.859C164.197 152.978 163.738 153.046 163.279 153.072L135.385 154.653C135.249 154.644 135.104 154.653 134.968 154.653ZM135.512 127.676L133.863 127.769C131.22 127.922 129.197 130.192 129.342 132.835L130.183 147.692C130.251 148.966 130.821 150.139 131.781 150.998C132.742 151.856 133.974 152.29 135.24 152.213L137.076 152.111C135.759 150.836 134.977 149.153 134.875 147.318L134.033 132.469C133.948 130.693 134.501 129.01 135.512 127.676Z" fill="#30356A"/>
<path d="M146.689 139.311C146.714 139.863 146.171 144.334 146.171 144.334C146.171 144.334 144.768 144.402 143.043 144.495C140.884 144.606 139.031 142.464 138.887 139.71C138.751 136.957 140.383 134.636 142.533 134.526C143.986 134.449 145.661 134.364 145.661 134.364C145.661 134.364 146.646 138.418 146.689 139.311Z" fill="#3BA1DA"/>
<g opacity="0.35">
<path d="M146.689 139.311C146.714 139.863 146.171 144.334 146.171 144.334C146.171 144.334 144.768 144.402 143.043 144.495C140.884 144.606 139.031 142.464 138.887 139.71C138.751 136.957 140.383 134.636 142.533 134.526C143.986 134.449 145.661 134.364 145.661 134.364C145.661 134.364 146.646 138.418 146.689 139.311Z" fill="#30356A"/>
</g>
<path d="M142.881 145.311C141.657 145.311 140.501 144.75 139.592 143.705C138.691 142.668 138.147 141.257 138.071 139.744C137.909 136.548 139.889 133.837 142.49 133.71L144.675 133.599C145.601 133.548 146.459 134.186 146.672 135.103C147.19 137.347 147.471 138.75 147.496 139.268C147.505 139.396 147.522 139.787 147.088 143.475C146.978 144.419 146.204 145.141 145.253 145.192L143.077 145.303C143.017 145.311 142.949 145.311 142.881 145.311ZM144.777 135.231C144.768 135.231 144.768 135.231 144.76 135.231L142.575 135.341C140.875 135.426 139.583 137.373 139.694 139.668C139.753 140.815 140.153 141.877 140.816 142.642C141.436 143.356 142.201 143.73 142.992 143.679L145.168 143.569C145.329 143.56 145.456 143.441 145.473 143.288C145.779 140.704 145.881 139.549 145.873 139.353C145.864 139.2 145.788 138.478 145.083 135.477C145.057 135.333 144.93 135.231 144.777 135.231Z" fill="#30356A"/>
<path d="M149.825 139.158C149.961 141.912 148.329 144.232 146.179 144.343C144.02 144.453 142.167 142.312 142.023 139.558C141.887 136.804 143.519 134.484 145.669 134.373C147.819 134.263 149.681 136.405 149.825 139.158Z" fill="#3BA1DA"/>
<g opacity="0.7">
<path d="M149.791 140.186C149.307 137.943 147.649 136.328 145.771 136.421C143.884 136.515 142.405 138.3 142.15 140.586C142.074 140.254 142.031 139.906 142.014 139.549C141.878 136.795 143.51 134.475 145.669 134.364C147.828 134.254 149.681 136.396 149.825 139.15C149.842 139.507 149.825 139.855 149.791 140.186Z" fill="white"/>
</g>
<g opacity="0.35">
<path d="M146.179 144.334C144.02 144.444 142.159 142.303 142.023 139.549C141.989 138.92 142.057 138.308 142.193 137.739C142.847 139.583 144.343 140.832 146 140.747C147.658 140.662 149.009 139.268 149.477 137.373C149.672 137.917 149.8 138.52 149.825 139.149C149.961 141.912 148.329 144.223 146.179 144.334Z" fill="#30356A"/>
</g>
<path d="M146.009 145.159C144.785 145.159 143.629 144.598 142.72 143.552C141.819 142.515 141.275 141.104 141.198 139.592C141.122 138.079 141.513 136.625 142.312 135.503C143.145 134.313 144.326 133.625 145.618 133.557C146.918 133.498 148.151 134.058 149.103 135.155C150.004 136.192 150.548 137.603 150.624 139.116C150.701 140.628 150.31 142.082 149.511 143.204C148.678 144.394 147.496 145.082 146.205 145.15C146.145 145.15 146.077 145.159 146.009 145.159ZM145.822 135.18C145.78 135.18 145.746 135.18 145.703 135.18C144.913 135.223 144.182 135.665 143.646 136.438C143.06 137.271 142.771 138.359 142.83 139.507C142.89 140.654 143.289 141.716 143.952 142.481C144.573 143.195 145.329 143.561 146.128 143.518C146.918 143.476 147.649 143.034 148.185 142.26C148.771 141.427 149.06 140.339 149.001 139.184C148.941 138.036 148.542 136.974 147.879 136.209C147.301 135.546 146.57 135.18 145.822 135.18Z" fill="#30356A"/>
<path d="M154.542 153.445C153.888 153.445 153.344 152.927 153.327 152.264L153.08 144.742C153.012 142.583 154.015 140.552 155.775 139.302C156.888 138.512 157.517 137.22 157.441 135.843L156.88 125.253C156.846 124.582 157.364 124.004 158.036 123.97C158.69 123.927 159.285 124.446 159.319 125.126L159.88 135.716C159.999 137.926 158.987 140.008 157.186 141.291C156.098 142.065 155.469 143.331 155.511 144.665L155.758 152.187C155.783 152.859 155.256 153.428 154.576 153.445C154.568 153.445 154.551 153.445 154.542 153.445Z" fill="#30356A"/>
<path d="M101.864 134.509C101.864 134.509 98.3026 135.775 98.4216 140.458C98.5151 144.13 100.223 145.643 100.223 145.643C100.223 145.643 112.632 149.765 128.535 145.507C128.535 145.507 131.518 144.181 131.722 139.812C131.798 138.146 130.778 135.614 128.441 135.07C128.441 135.07 113.967 138.019 101.864 134.509Z" fill="white"/>
<g opacity="0.25">
<path d="M131.722 139.812C131.518 144.181 128.534 145.507 128.534 145.507C112.632 149.765 100.215 145.643 100.215 145.643C100.215 145.643 98.5066 144.13 98.4131 140.458C98.3876 139.345 98.5661 138.427 98.855 137.67C99.3055 140.144 100.487 141.189 100.487 141.189C100.487 141.189 112.896 145.311 128.806 141.053C128.806 141.053 130.523 140.288 131.433 138.019C131.654 138.648 131.747 139.277 131.722 139.812Z" fill="#30356A"/>
</g>
<path d="M113.805 148.668C105.595 148.668 100.172 146.909 99.8325 146.799L99.5945 146.722L99.4076 146.552C99.1951 146.357 97.2997 144.563 97.1977 140.484C97.0618 134.985 101.269 133.421 101.447 133.353L101.821 133.217L102.204 133.327C113.865 136.71 128.059 133.897 128.195 133.863L128.458 133.812L128.713 133.871C131.79 134.577 133.031 137.798 132.937 139.855C132.699 144.92 129.181 146.544 129.028 146.612L128.849 146.68C123.282 148.176 118.157 148.668 113.805 148.668ZM100.886 144.572C102.807 145.133 114.12 148.065 128.101 144.359C128.475 144.155 130.353 142.965 130.506 139.753C130.557 138.588 129.852 136.812 128.39 136.319C126.24 136.727 113.312 138.937 101.966 135.801C101.243 136.2 99.5605 137.458 99.637 140.424C99.705 142.855 100.538 144.138 100.886 144.572Z" fill="#30356A"/>
<path d="M190.639 183.005C187.579 201.474 156.327 207.492 150.42 200.157C143.969 192.159 145.932 179.606 141.334 177.889C133.235 174.863 112.105 181.093 103.436 159.717C102.756 158.051 102.161 156.216 101.651 154.201L124.633 155.34C134.611 150.275 151.134 143.968 164.078 153.173C171.294 158.306 173.555 171.99 172.918 179.232C172.816 180.362 172.646 181.339 172.416 182.096C172.408 182.096 193.12 168.021 190.639 183.005Z" fill="white"/>
<g opacity="0.25">
<path d="M190.639 183.005C187.579 201.474 156.327 207.492 150.42 200.157C143.969 192.159 145.932 179.606 141.334 177.889C133.235 174.863 112.105 181.093 103.436 159.717C106.623 163.941 113.1 170.112 124.072 170.749C136.974 171.489 145.083 167.639 149.069 172.713C152.375 176.911 150.106 187.901 155.775 190.425C160.934 192.72 170.793 181.696 172.918 179.223C172.816 180.354 172.646 181.331 172.416 182.087C172.408 182.096 193.12 168.021 190.639 183.005Z" fill="#30356A"/>
</g>
<path d="M124.285 154.652C126.971 153.165 129.75 151.831 132.614 150.666C135.487 149.527 138.453 148.575 141.522 147.938C144.581 147.301 147.743 146.978 150.93 147.165C154.109 147.334 157.305 148.006 160.279 149.281C161.767 149.91 163.195 150.692 164.529 151.601C164.699 151.712 164.869 151.822 165.03 151.941L165.54 152.332C165.889 152.587 166.195 152.876 166.509 153.156C166.824 153.437 167.104 153.751 167.402 154.049C167.674 154.363 167.954 154.678 168.209 155.001C169.238 156.301 170.088 157.704 170.81 159.148C171.532 160.593 172.119 162.089 172.595 163.602C173.555 166.636 174.15 169.739 174.448 172.875C174.584 174.447 174.635 176.028 174.584 177.626C174.558 178.425 174.507 179.232 174.397 180.04C174.286 180.856 174.15 181.672 173.87 182.538L171.541 180.822C172.918 179.904 174.269 179.105 175.689 178.323C177.099 177.549 178.544 176.827 180.057 176.198C181.57 175.578 183.142 175.017 184.876 174.728C185.752 174.592 186.67 174.515 187.656 174.634C188.149 174.702 188.667 174.821 189.177 175.034C189.687 175.238 190.197 175.552 190.622 175.952C191.047 176.351 191.395 176.827 191.642 177.311C191.897 177.804 192.041 178.297 192.16 178.782C192.364 179.751 192.381 180.669 192.33 181.544C192.211 183.278 191.846 184.935 191.276 186.542C190.129 189.754 188.132 192.593 185.735 194.879C183.329 197.183 180.559 199.002 177.643 200.446C174.72 201.891 171.634 202.971 168.473 203.702C165.311 204.424 162.056 204.832 158.741 204.696C157.084 204.611 155.409 204.407 153.735 203.897C152.902 203.642 152.061 203.302 151.253 202.826C150.845 202.597 150.454 202.308 150.072 201.993C149.885 201.823 149.698 201.662 149.528 201.475C149.358 201.288 149.179 201.084 149.06 200.922C146.944 198.228 145.678 195.058 144.811 191.939C144.377 190.375 144.037 188.802 143.723 187.264C143.4 185.726 143.111 184.196 142.728 182.776C142.533 182.071 142.312 181.391 142.04 180.805C141.768 180.227 141.445 179.742 141.122 179.513C141.037 179.47 140.969 179.394 140.876 179.368C140.825 179.351 140.808 179.326 140.74 179.3L140.502 179.224L140.026 179.071L139.516 178.952C138.836 178.79 138.105 178.697 137.365 178.603C135.878 178.433 134.331 178.357 132.767 178.272C131.203 178.187 129.623 178.102 128.033 177.966C124.854 177.685 121.616 177.201 118.48 176.181C115.344 175.178 112.327 173.589 109.768 171.43C107.227 169.254 105.136 166.585 103.589 163.679C102.034 160.772 100.946 157.687 100.139 154.559C99.9261 153.743 100.419 152.902 101.235 152.698C102.051 152.485 102.892 152.978 103.096 153.794V153.802C103.853 156.743 104.873 159.599 106.275 162.217C107.677 164.843 109.522 167.18 111.732 169.076C113.967 170.954 116.585 172.348 119.415 173.249C122.237 174.167 125.237 174.626 128.288 174.898C129.818 175.025 131.365 175.119 132.929 175.204C134.493 175.289 136.073 175.365 137.705 175.552C138.521 175.654 139.346 175.765 140.187 175.96L140.825 176.113L141.471 176.317L141.793 176.419C141.904 176.461 142.065 176.538 142.193 176.597C142.473 176.716 142.711 176.886 142.958 177.056C143.901 177.77 144.42 178.68 144.811 179.504C145.193 180.346 145.448 181.162 145.678 181.961C146.111 183.567 146.4 185.114 146.715 186.644C147.029 188.165 147.352 189.661 147.76 191.114C148.559 194.013 149.698 196.775 151.466 199.027C151.576 199.189 151.67 199.274 151.755 199.376C151.848 199.478 151.95 199.571 152.061 199.665C152.29 199.851 152.52 200.03 152.8 200.183C153.344 200.506 153.964 200.761 154.619 200.965C155.945 201.373 157.398 201.56 158.869 201.628C161.818 201.747 164.835 201.39 167.776 200.71C170.708 200.021 173.581 199.027 176.275 197.693C178.969 196.367 181.485 194.692 183.61 192.661C185.735 190.63 187.435 188.199 188.395 185.505C188.879 184.17 189.185 182.734 189.279 181.34C189.321 180.652 189.296 179.989 189.177 179.428C189.109 179.156 189.032 178.892 188.922 178.688C188.811 178.484 188.692 178.314 188.548 178.178C188.268 177.906 187.834 177.736 187.273 177.66C186.712 177.592 186.049 177.626 185.378 177.736C184.018 177.966 182.615 178.442 181.239 179.011C179.862 179.589 178.502 180.261 177.167 180.992C175.842 181.723 174.507 182.521 173.266 183.337L169.739 185.828L170.946 181.621C171.116 181.026 171.218 180.337 171.286 179.649C171.362 178.952 171.396 178.238 171.413 177.515C171.439 176.071 171.362 174.609 171.209 173.155C170.921 170.24 170.36 167.333 169.476 164.571C168.583 161.817 167.41 159.14 165.71 156.939C165.498 156.667 165.268 156.412 165.056 156.148C164.818 155.91 164.597 155.647 164.342 155.417C164.087 155.196 163.858 154.95 163.586 154.754L163.195 154.448C163.059 154.346 162.897 154.244 162.753 154.151C161.588 153.326 160.33 152.638 159.03 152.043C156.438 150.845 153.607 150.165 150.718 149.918C147.819 149.663 144.879 149.901 141.955 150.36C139.031 150.836 136.15 151.635 133.32 152.604C130.481 153.556 127.702 154.737 124.956 156.004C124.574 156.182 124.115 156.012 123.937 155.63C123.792 155.273 123.937 154.839 124.285 154.652Z" fill="#30356A"/>
<path d="M190.18 174.201C190.18 174.201 187.392 165.642 177.703 167.053C168.719 168.362 165.719 178.332 163.517 181.145" fill="white"/>
<path d="M188.727 174.677L188.65 174.507L188.548 174.294C188.48 174.15 188.404 174.005 188.327 173.861C188.174 173.572 188.004 173.283 187.826 173.002C187.469 172.441 187.061 171.923 186.602 171.447C185.709 170.495 184.647 169.747 183.474 169.254C182.301 168.761 181.009 168.54 179.675 168.532C179.343 168.523 179.003 168.557 178.672 168.566C178.34 168.608 177.992 168.625 177.66 168.685C176.998 168.77 176.36 168.948 175.731 169.152C173.215 170.002 171.048 171.846 169.263 174.107C168.362 175.229 167.546 176.462 166.747 177.728L165.532 179.657C165.116 180.312 164.691 180.966 164.121 181.621C163.841 181.935 163.356 181.969 163.042 181.689C162.761 181.442 162.702 181.026 162.897 180.72L162.923 180.686C163.263 180.116 163.586 179.445 163.9 178.765C164.215 178.085 164.521 177.38 164.861 176.691C165.523 175.297 166.271 173.912 167.164 172.577C167.606 171.914 168.099 171.269 168.626 170.64C169.153 170.019 169.722 169.416 170.351 168.872C170.98 168.328 171.651 167.809 172.374 167.367C173.096 166.925 173.861 166.534 174.669 166.228C175.468 165.931 176.292 165.676 177.142 165.54C177.975 165.379 178.808 165.302 179.666 165.285C181.366 165.251 183.134 165.523 184.766 166.211C186.406 166.883 187.86 167.962 189.015 169.254C189.593 169.9 190.095 170.597 190.537 171.337C190.758 171.702 190.962 172.076 191.14 172.467C191.234 172.662 191.319 172.858 191.395 173.062L191.514 173.376C191.557 173.487 191.591 173.58 191.642 173.733C191.897 174.541 191.455 175.399 190.656 175.654C189.899 175.901 189.092 175.518 188.786 174.813L188.727 174.677Z" fill="#30356A"/>
<path d="M150.42 200.157C151.644 202.137 152.987 203.591 154.449 204.092C161.826 206.599 179.862 201.287 188.055 188.691C191.565 183.286 191.812 178.178 190.188 174.209C186.024 170.528 178.527 170.486 172.399 180.124C164.18 193.018 158.375 198.653 150.42 200.157Z" fill="#B2B2B2"/>
<g opacity="0.35">
<path d="M150.42 200.157C151.644 202.138 152.987 203.591 154.449 204.092C161.826 206.6 179.862 201.288 188.055 188.692C189.653 186.227 190.579 183.83 190.953 181.569C187.706 189.814 179.794 194.616 173.105 194.225C168.507 193.961 165.991 191.777 166.56 188.573C161.104 195.61 156.361 199.035 150.42 200.157Z" fill="#30356A"/>
</g>
<path d="M158.69 206.302C156.871 206.302 155.248 206.081 153.913 205.622C152.179 205.036 150.582 203.523 149.026 201.007L147.777 198.993L150.106 198.551C157.33 197.191 162.804 192.134 171.005 179.24C175.17 172.696 179.632 170.818 182.641 170.393C185.803 169.951 188.854 170.869 191.251 172.976L191.531 173.223L191.676 173.571C193.707 178.509 192.899 184.187 189.406 189.559C182.267 200.548 167.929 206.302 158.69 206.302ZM153.148 201.16C153.913 202.027 154.534 202.401 154.967 202.545C161.325 204.713 178.689 200.081 186.687 187.791C189.491 183.482 190.239 179.011 188.811 175.169C187.188 173.869 185.174 173.316 183.1 173.605C180.771 173.937 177.252 175.484 173.759 180.974C165.88 193.375 160.211 199.018 153.148 201.16Z" fill="#30356A"/>
<path d="M114.74 98.2509L111.57 112.632L109.377 122.567L107.099 132.919C105.969 132.154 104.737 131.568 103.419 131.22C103.292 131.186 103.156 131.152 103.028 131.126C92.7866 128.865 87.4065 141.852 87.4065 141.852C87.4065 141.852 91.8006 144.648 92.2851 148.21C92.3701 148.83 92.3361 149.382 92.2256 149.884C91.7157 152.281 89.4378 153.377 89.4378 153.377C89.4378 153.377 89.8033 157.117 88.6219 161.069C86.3866 168.497 68.7081 166.568 65.1639 164.426C64.178 163.831 62.8946 161.528 61.8067 158.094C58.968 149.153 57.4381 132.562 65.8949 118.624C73.1447 106.674 84.6443 101.489 94.6649 99.3473C100.81 98.0214 106.402 97.8429 110.108 97.9364C112.989 98.0129 114.74 98.2509 114.74 98.2509Z" fill="white"/>
<g opacity="0.25">
<path d="M107.099 132.92C105.969 132.155 104.737 131.568 103.419 131.22C103.292 131.186 103.156 131.152 103.028 131.126C92.7866 128.865 87.4066 141.852 87.4066 141.852C84.5168 139.761 83.5139 135.903 85.0268 132.673C86.7011 129.078 90.1603 124.956 97.2827 123.213C103.113 121.785 108.391 127.055 107.099 132.92Z" fill="#30356A"/>
</g>
<g opacity="0.25">
<path d="M89.4376 153.377C89.4376 153.377 89.8031 157.116 88.6217 161.069C86.3864 168.497 68.7079 166.568 65.1637 164.426C64.1778 163.831 62.8944 161.536 61.8065 158.094C64.0843 159.479 67.6455 160.771 72.9066 160.686C82.1963 160.533 85.7235 157.533 86.6244 153.7C86.9134 152.467 87.9248 151.498 89.1742 151.277C90.2026 151.099 91.3755 150.699 92.2339 149.875C91.707 152.28 89.4376 153.377 89.4376 153.377Z" fill="#30356A"/>
</g>
<path d="M114.536 99.764C113.831 99.679 113.04 99.611 112.284 99.56C111.519 99.5175 110.745 99.475 109.972 99.4665C108.425 99.4325 106.878 99.441 105.34 99.526C102.255 99.6705 99.1695 100.027 96.1437 100.614C90.1007 101.795 84.2278 103.912 79.1027 107.218C76.5444 108.867 74.1816 110.813 72.0908 113.023C70 115.224 68.2066 117.697 66.6768 120.332C65.1724 122.976 63.957 125.789 63.0816 128.721C62.2061 131.645 61.6197 134.671 61.3222 137.722C61.0417 140.773 60.9992 143.867 61.2542 146.926C61.3647 148.456 61.5602 149.986 61.8067 151.499C62.0532 153.012 62.3761 154.516 62.7756 155.987C63.1751 157.457 63.6425 158.91 64.2205 160.27C64.5094 160.942 64.8324 161.613 65.1894 162.174C65.2744 162.319 65.3679 162.463 65.4529 162.574C65.5464 162.693 65.6313 162.829 65.7163 162.905L65.8353 163.041C65.8693 163.067 65.8863 163.067 65.9033 163.092C65.9118 163.101 65.9203 163.109 65.9288 163.126C65.9458 163.143 65.9798 163.152 66.0138 163.169L66.1838 163.262C66.7278 163.517 67.4417 163.738 68.1386 163.917C68.8526 164.095 69.592 164.239 70.3314 164.367C71.8188 164.605 73.3402 164.758 74.8616 164.809C76.3744 164.86 77.8958 164.834 79.3747 164.664C80.8535 164.503 82.3154 164.222 83.6158 163.73C83.9473 163.619 84.2447 163.458 84.5592 163.322C84.8482 163.16 85.1457 163.007 85.4007 162.82C85.9191 162.455 86.3781 162.055 86.6755 161.588C86.82 161.35 86.9645 161.112 87.0495 160.848L87.126 160.653C87.1515 160.576 87.177 160.483 87.2025 160.398C87.2535 160.228 87.3045 160.049 87.347 159.871C87.5255 159.165 87.6615 158.443 87.7549 157.712C87.8484 156.981 87.9164 156.242 87.9334 155.502C87.9419 155.137 87.9504 154.763 87.9419 154.397L87.9249 153.819C87.8994 153.173 88.1969 152.502 88.6899 152.086C88.7494 152.035 88.8174 151.984 88.8769 151.941L88.9788 151.873L89.0723 151.814C89.1318 151.771 89.1913 151.729 89.2508 151.686C89.3698 151.593 89.4888 151.499 89.5993 151.397C89.8203 151.202 90.0158 150.981 90.1772 150.76C90.5002 150.301 90.7042 149.816 90.7552 149.289C90.7977 149.026 90.7807 148.754 90.7552 148.473C90.7042 148.201 90.6617 147.929 90.5512 147.649C90.3557 147.096 90.0327 146.527 89.6248 145.992C89.2253 145.448 88.7409 144.938 88.2139 144.453C87.9504 144.215 87.6785 143.977 87.398 143.756C87.2535 143.646 87.1175 143.535 86.973 143.433C86.837 143.331 86.6755 143.221 86.565 143.153L86.5481 143.144C85.9191 142.736 85.6896 141.937 85.9701 141.266C86.0976 140.96 86.2081 140.73 86.3271 140.467C86.4461 140.212 86.5736 139.966 86.701 139.719C86.956 139.226 87.2195 138.742 87.5 138.266C88.0609 137.314 88.6984 136.404 89.3868 135.529C90.7807 133.787 92.4975 132.231 94.5459 131.126C95.5658 130.574 96.6792 130.157 97.8266 129.911C98.974 129.664 100.164 129.613 101.32 129.732L102.178 129.851C102.459 129.911 102.739 129.979 103.02 130.038C103.581 130.157 104.125 130.353 104.643 130.582C105.688 131.033 106.657 131.611 107.516 132.299C107.847 132.563 107.898 133.047 107.635 133.379C107.397 133.676 106.989 133.753 106.666 133.574H106.657C105.79 133.098 104.898 132.699 103.98 132.444C103.521 132.316 103.062 132.214 102.595 132.163L101.889 132.078L101.192 132.053C99.331 132.061 97.5546 132.631 95.9907 133.625C94.4184 134.611 93.084 136.005 91.8771 137.518C91.2651 138.274 90.7127 139.082 90.1942 139.915C89.9308 140.331 89.6843 140.756 89.4548 141.181C89.3358 141.393 89.2253 141.614 89.1148 141.827C89.0128 142.039 88.8938 142.277 88.8174 142.447L88.2224 140.561C88.4434 140.705 88.6049 140.824 88.7919 140.96C88.9703 141.087 89.1403 141.223 89.3103 141.359C89.6503 141.631 89.9733 141.912 90.2962 142.201C90.9337 142.787 91.5456 143.425 92.0811 144.156C92.625 144.887 93.1095 145.694 93.441 146.629C93.6109 147.088 93.7214 147.598 93.7979 148.108C93.8489 148.609 93.8744 149.136 93.7979 149.655C93.6874 150.7 93.254 151.729 92.659 152.553C92.3616 152.969 92.0216 153.343 91.6561 153.675C91.4776 153.845 91.2821 153.998 91.0867 154.142C90.9932 154.219 90.8827 154.287 90.7892 154.355L90.6362 154.457L90.5937 154.482C90.5682 154.499 90.6107 154.474 90.6107 154.474C90.6362 154.457 90.6617 154.44 90.6872 154.414C90.8827 154.253 91.0017 153.981 90.9847 153.734L91.0017 154.338C91.0102 154.763 91.0102 155.179 90.9932 155.604C90.9677 156.446 90.8997 157.287 90.7892 158.12C90.6787 158.953 90.5257 159.794 90.3132 160.619C90.2622 160.823 90.2027 161.035 90.1432 161.239C90.1092 161.341 90.0922 161.443 90.0497 161.554L89.9138 161.919C89.7523 162.412 89.4888 162.863 89.2168 163.288C88.6559 164.154 87.8994 164.817 87.126 165.353C86.735 165.633 86.3356 165.846 85.9276 166.067C85.5196 166.254 85.1117 166.458 84.6952 166.602C83.0378 167.231 81.3635 167.537 79.6976 167.724C78.0318 167.911 76.3829 167.937 74.7426 167.877C73.1022 167.818 71.4619 167.656 69.83 167.393C69.0141 167.257 68.1981 167.095 67.3822 166.891C66.5578 166.679 65.7418 166.441 64.8494 166.033L64.5009 165.846C64.4414 165.812 64.3905 165.786 64.3225 165.744L64.1185 165.591C63.9825 165.489 63.838 165.378 63.7275 165.276L63.447 164.979C63.243 164.775 63.1156 164.579 62.9711 164.384C62.8181 164.188 62.6991 163.993 62.5801 163.798C62.0957 163.024 61.7387 162.259 61.3987 161.477C60.7358 159.93 60.2343 158.358 59.8093 156.777C59.3844 155.196 59.0444 153.598 58.7809 151.992C58.5175 150.386 58.3135 148.771 58.1945 147.156C57.931 143.918 57.9735 140.654 58.271 137.416C58.5855 134.178 59.2144 130.956 60.1493 127.829C61.0842 124.692 62.3931 121.667 64.0165 118.811C65.6568 115.972 67.6032 113.295 69.864 110.915C72.1248 108.527 74.6831 106.419 77.4368 104.643C82.9614 101.081 89.2083 98.8461 95.5573 97.6052C98.7445 96.9933 101.966 96.6193 105.187 96.4663C106.802 96.3813 108.417 96.3728 110.04 96.4068C110.847 96.4238 111.655 96.4578 112.471 96.5088C113.295 96.5598 114.077 96.6193 114.944 96.7298C115.786 96.8318 116.38 97.5967 116.279 98.4381C116.177 99.2796 115.412 99.8745 114.57 99.7725L114.536 99.764Z" fill="#30356A"/>
<g opacity="0.25">
<path d="M175.059 98.9566C175 99.0331 174.94 99.1011 174.881 99.1691C173.7 100.58 172.442 101.931 171.099 103.232C170.444 103.869 169.764 104.49 169.067 105.102C167.198 106.725 165.243 108.187 163.229 109.504C162.965 109.674 162.702 109.844 162.438 110.006C160.458 111.247 158.409 112.343 156.31 113.286C153.888 114.383 151.406 115.284 148.89 115.989C148.771 116.023 148.661 116.057 148.55 116.083C147.581 116.346 146.621 116.576 145.652 116.78C134.203 119.21 122.143 117.782 111.587 112.623C110.499 112.088 109.42 111.519 108.374 110.907C103.776 108.238 99.518 104.813 95.8038 100.648C95.4213 100.223 95.0389 99.781 94.6819 99.3391C100.827 98.0132 106.419 97.8347 110.134 97.9282C110.176 97.4437 110.21 96.9508 110.244 96.4578C110.576 91.9617 110.703 87.0321 110.55 81.6011L155.001 90.2278L157.831 96.0328L159.327 99.0926C164.197 99.475 169.875 99.6025 175.059 98.9566Z" fill="#30356A"/>
</g>
<path d="M188.964 67.2289C187.409 75.6516 183.72 83.7429 177.949 90.6443C176.768 92.0552 175.51 93.4066 174.167 94.707C173.513 95.3444 172.833 95.9649 172.136 96.5768C170.028 98.4127 167.81 100.045 165.506 101.481C163.526 102.722 161.469 103.818 159.378 104.762C156.854 105.909 154.253 106.835 151.618 107.558C150.658 107.821 149.689 108.051 148.72 108.263C130.94 112.046 111.697 106.512 98.8635 92.1317C79.9441 70.9515 82.086 38.5948 103.64 19.8624C107.796 16.2587 112.36 13.4115 117.171 11.3376C117.732 11.0912 118.301 10.8532 118.871 10.6322C120.401 10.0288 121.948 9.5103 123.511 9.05984C127.132 8.02293 130.838 7.38548 134.552 7.139C138.266 6.89252 141.997 7.03701 145.677 7.57246C146.842 7.74245 148.006 7.94643 149.162 8.20141C150.896 8.57538 152.613 9.03434 154.313 9.58679C162.77 12.3236 170.614 17.2446 176.912 24.3075C187.783 36.487 191.701 52.3721 188.964 67.2289Z" fill="white"/>
<path d="M137.739 109.58C122.967 109.58 108.68 103.384 98.7275 92.2418C89.5823 82.0087 85.0267 68.8518 85.8936 55.2105C86.7606 41.4586 93.0245 28.8627 103.521 19.7345C107.618 16.1818 112.19 13.3005 117.094 11.1842C117.621 10.9462 118.199 10.7083 118.803 10.4788C120.324 9.88384 121.897 9.34839 123.46 8.89793C127.056 7.86952 130.787 7.21507 134.535 6.96859C138.258 6.72211 142.006 6.8666 145.694 7.40205C146.884 7.57204 148.057 7.78452 149.196 8.031C150.973 8.41347 152.706 8.88093 154.364 9.42488C163.092 12.2466 170.937 17.3547 177.031 24.1881C187.579 36.0021 191.99 51.7003 189.126 67.2454C187.536 75.8637 183.712 83.989 178.068 90.7374C176.87 92.1653 175.595 93.5337 174.269 94.8171C173.657 95.412 172.994 96.0239 172.229 96.6869C170.147 98.4972 167.903 100.155 165.574 101.608C163.628 102.832 161.563 103.937 159.429 104.906C156.931 106.036 154.313 106.98 151.644 107.71C150.675 107.974 149.698 108.212 148.737 108.416C145.083 109.198 141.394 109.58 137.739 109.58ZM138.054 7.18107C136.889 7.18107 135.716 7.22357 134.552 7.30007C130.821 7.54655 127.115 8.19249 123.545 9.2124C121.99 9.66286 120.435 10.1898 118.913 10.7848C118.318 11.0142 117.74 11.2522 117.213 11.4817C112.335 13.5895 107.796 16.4453 103.717 19.981C93.288 29.0497 87.0665 41.5606 86.1996 55.2275C85.3412 68.7838 89.8713 81.8472 98.957 92.0123C111.289 105.832 130.336 111.994 148.661 108.093C149.621 107.889 150.59 107.651 151.55 107.387C154.202 106.657 156.812 105.722 159.285 104.6C161.401 103.639 163.458 102.534 165.396 101.327C167.708 99.8826 169.934 98.2423 172.008 96.4404C172.765 95.7775 173.428 95.1655 174.031 94.5791C175.348 93.3127 176.615 91.9443 177.805 90.5249C183.414 83.819 187.205 75.7532 188.786 67.1859C191.633 51.7343 187.256 36.1381 176.768 24.4006C170.708 17.6097 162.914 12.5356 154.236 9.73086C152.596 9.1954 150.862 8.72794 149.103 8.34548C147.972 8.099 146.799 7.89501 145.626 7.71653C143.136 7.36806 140.595 7.18107 138.054 7.18107Z" fill="#30356A"/>
<g opacity="0.25">
<path d="M98.8465 92.123C111.68 106.504 130.923 112.037 148.703 108.255C149.672 108.051 150.641 107.813 151.601 107.549C154.245 106.827 156.837 105.892 159.361 104.753C161.452 103.801 163.509 102.713 165.489 101.472C167.793 100.036 170.011 98.404 172.119 96.5681C172.816 95.9562 173.496 95.3358 174.15 94.7068C175.493 93.4064 176.751 92.0465 177.932 90.6442C183.703 83.7427 187.4 75.6599 188.956 67.2287C189.806 62.5966 190.018 57.871 189.568 53.1794C187.902 61.1857 184.281 68.852 178.774 75.4305C177.601 76.8413 176.334 78.1927 174.991 79.4931C174.337 80.1221 173.657 80.7425 172.96 81.3544C170.852 83.1903 168.634 84.8222 166.331 86.2585C164.342 87.4994 162.294 88.5873 160.203 89.5392C157.678 90.6866 155.078 91.6131 152.443 92.3355C151.474 92.599 150.514 92.8285 149.536 93.0409C131.756 96.8231 112.522 91.2901 99.6794 76.9093C92.1831 68.5206 88.0014 58.3809 87.0155 48.0288C83.8538 63.2255 87.6785 79.6206 98.8465 92.123Z" fill="#30356A"/>
</g>
<path d="M137.739 110.677C122.653 110.677 108.068 104.353 97.9116 92.9726C88.5709 82.5185 83.9133 69.0812 84.7972 55.1424C85.6896 41.0931 92.0811 28.2337 102.799 18.91C106.98 15.2808 111.646 12.34 116.661 10.1812C117.196 9.94324 117.791 9.69676 118.412 9.45878C119.959 8.84683 121.565 8.31138 123.163 7.85242C126.835 6.79851 130.642 6.13557 134.467 5.88909C138.258 5.63411 142.091 5.7871 145.856 6.33105C147.063 6.50954 148.27 6.72202 149.426 6.97699C151.236 7.36796 153.012 7.84392 154.695 8.39637C163.611 11.2776 171.617 16.4962 177.847 23.4741C188.624 35.543 193.129 51.5727 190.205 67.4663C188.582 76.2716 184.681 84.5668 178.91 91.4598C177.686 92.9216 176.385 94.3155 175.034 95.6244C174.414 96.2278 173.734 96.8483 172.96 97.5282C170.827 99.3811 168.541 101.072 166.161 102.551C164.172 103.792 162.064 104.931 159.888 105.917C157.338 107.073 154.67 108.033 151.941 108.781C150.956 109.045 149.961 109.291 148.975 109.504C145.236 110.286 141.47 110.677 137.739 110.677ZM138.054 8.27739C136.906 8.27739 135.767 8.31138 134.628 8.38788C130.974 8.62585 127.353 9.2548 123.851 10.2662C122.33 10.6997 120.809 11.2181 119.321 11.8046C118.735 12.0341 118.182 12.255 117.672 12.4845C112.887 14.5498 108.442 17.3461 104.456 20.8138C94.2484 29.6871 88.1629 41.9345 87.313 55.3038C86.4716 68.5627 90.9082 81.3456 99.7899 91.2898C111.859 104.812 130.506 110.847 148.448 107.03C149.392 106.826 150.344 106.597 151.287 106.342C153.879 105.628 156.429 104.71 158.86 103.614C160.934 102.67 162.948 101.599 164.835 100.409C167.104 98.9986 169.28 97.3837 171.311 95.6244C172.051 94.9784 172.697 94.3835 173.292 93.8055C174.584 92.5647 175.824 91.2303 176.989 89.8364C182.471 83.275 186.194 75.3791 187.732 66.9989C190.52 51.8871 186.228 36.631 175.977 25.1484C170.045 18.502 162.421 13.5384 153.93 10.7932C152.315 10.2662 150.633 9.81575 148.907 9.44178C147.802 9.2038 146.655 8.99982 145.508 8.82984C143.034 8.46437 140.544 8.27739 138.054 8.27739Z" fill="#30356A"/>
<path d="M137.739 111.042C122.551 111.042 107.864 104.676 97.631 93.2108C88.2308 82.6802 83.5392 69.1493 84.4232 55.117C85.3156 40.9742 91.758 28.0129 102.552 18.6297C106.768 14.975 111.459 12.0172 116.508 9.84142C117.052 9.60344 117.647 9.35696 118.276 9.11898C119.831 8.50703 121.446 7.96308 123.052 7.49562C126.75 6.43321 130.583 5.77027 134.433 5.51529C138.249 5.26031 142.108 5.4133 145.898 5.96575C147.114 6.14423 148.329 6.35671 149.494 6.61169C151.312 7.00266 153.106 7.48712 154.806 8.03957C163.781 10.9463 171.838 16.1904 178.111 23.2193C188.964 35.3732 193.503 51.5218 190.554 67.5175C188.922 76.3907 184.987 84.7455 179.182 91.6809C177.949 93.1513 176.64 94.5621 175.28 95.871C174.66 96.4745 173.971 97.1034 173.19 97.7919C171.039 99.6617 168.736 101.362 166.348 102.849C164.35 104.098 162.225 105.237 160.033 106.232C157.466 107.396 154.772 108.365 152.026 109.121C151.032 109.393 150.029 109.631 149.035 109.844C145.286 110.651 141.496 111.042 137.739 111.042ZM138.054 8.64302C136.915 8.64302 135.784 8.67702 134.654 8.75351C131.025 8.99149 127.429 9.62044 123.953 10.6149C122.44 11.0483 120.928 11.5583 119.457 12.1447C118.871 12.3657 118.327 12.5952 117.817 12.8162C113.057 14.873 108.646 17.6437 104.685 21.0859C94.5543 29.8912 88.5113 42.0537 87.6699 55.321C86.837 68.4779 91.2396 81.1673 100.053 91.0434C112.037 104.472 130.549 110.456 148.363 106.665C149.298 106.461 150.242 106.232 151.176 105.985C153.752 105.28 156.285 104.37 158.69 103.274C160.747 102.339 162.744 101.268 164.622 100.095C166.875 98.6928 169.033 97.0949 171.048 95.3441C171.779 94.6981 172.425 94.1117 173.011 93.5422C174.294 92.3098 175.527 90.9839 176.683 89.5986C182.131 83.0881 185.819 75.2518 187.349 66.931C190.112 51.9298 185.862 36.7841 175.68 25.3866C169.79 18.7911 162.217 13.8616 153.794 11.1333C152.196 10.6149 150.513 10.1559 148.805 9.79042C147.709 9.55244 146.57 9.34846 145.422 9.18697C142.992 8.8215 140.527 8.64302 138.054 8.64302Z" fill="#30356A"/>
<path d="M184.919 79.7396C162.625 109.079 118.582 107.745 105.085 74.0791C95.9057 51.1821 111.587 24.5539 134.492 17.1765C151.159 11.8135 169.79 13.7598 185.208 36.9628C185.208 36.9628 190.418 48.2838 189.789 57.1571C189.16 66.0303 187.026 74.5636 187.026 74.5636L184.919 79.7396Z" fill="#30356A"/>
<path d="M105.093 74.0789C118.59 107.736 162.633 109.07 184.927 79.7394L185.352 78.6855C155.401 94.6641 117.468 86.2668 103.173 52.4907C101.787 59.5961 102.255 67.016 105.093 74.0789Z" fill="#22132C"/>
<path d="M144.071 107.099C137.382 107.099 130.812 105.85 124.778 103.342C112.879 98.3958 103.921 89.1231 98.872 76.5357C94.2314 64.9767 94.8348 51.8878 100.572 39.6743C106.938 26.118 118.947 15.3834 132.682 10.9638C140.314 8.50752 147.632 7.6321 154.432 8.37154L154.559 8.38853L154.678 8.43103C163.585 11.3123 171.583 16.5223 177.813 23.5002C188.582 35.5607 193.086 51.5818 190.163 67.4585C188.539 76.2552 184.638 84.5505 178.884 91.4349C177.66 92.8883 176.36 94.2907 175.008 95.591C174.388 96.1945 173.708 96.8149 172.935 97.4949C170.801 99.3477 168.524 101.039 166.144 102.518L165.974 102.603C158.894 105.595 151.414 107.099 144.071 107.099ZM149.672 10.5558C144.513 10.5558 139.074 11.4653 133.43 13.2841C120.324 17.4998 108.859 27.7584 102.782 40.7113C97.3421 52.2958 96.7557 64.6962 101.141 75.6263C105.943 87.5932 114.443 96.3985 125.721 101.09C137.748 106.088 152.035 105.833 164.937 100.385C167.172 98.9823 169.322 97.3929 171.328 95.6505C172.068 95.0046 172.714 94.4097 173.309 93.8317C174.601 92.5908 175.841 91.2479 177.006 89.8625C182.496 83.3011 186.211 75.3968 187.757 67.008C190.545 51.8793 186.253 36.6146 175.994 25.1151C170.087 18.4942 162.498 13.5391 154.049 10.7853C152.613 10.6323 151.16 10.5558 149.672 10.5558Z" fill="#30356A"/>
<path d="M144.377 101.634C142.286 101.634 140.187 101.498 138.096 101.209C122.5 99.1007 110.125 89.3521 104.15 74.4613C100.028 64.1942 100.572 52.5672 105.663 41.7222C111.323 29.6787 121.981 20.1425 134.195 16.2158C155.222 9.45042 172.671 16.2413 186.074 36.4016L186.151 36.5376C186.372 37.0051 191.463 48.1986 190.826 57.2248C190.197 66.0896 188.055 74.7163 188.029 74.8013L187.987 74.9373L185.828 80.2408L185.743 80.3513C175.493 93.8227 160.075 101.634 144.377 101.634ZM149.154 15.7399C144.581 15.7399 139.796 16.5388 134.798 18.1537C123.12 21.9103 112.904 31.0471 107.49 42.5891C102.637 52.9157 102.119 63.9647 106.028 73.7049C111.723 87.8987 123.503 97.1884 138.36 99.1942C155.384 101.489 172.867 93.8397 184.026 79.2294L186.057 74.2489C186.261 73.4244 188.191 65.3501 188.777 57.0888C189.355 48.938 184.749 38.4159 184.315 37.464C174.694 23.0068 162.905 15.7399 149.154 15.7399Z" fill="#30356A"/>
<path d="M82.4938 79.094C85.0775 88.8597 93.1009 95.5146 100.41 93.9592C107.72 92.4039 111.544 83.2331 108.952 73.4675C108.935 73.408 108.918 73.34 108.901 73.2805C106.266 63.6168 98.2939 57.0639 91.0355 58.6023C85.392 59.8007 81.8223 65.5462 81.6863 72.6006C81.6523 74.6829 81.9073 76.8757 82.4938 79.094Z" fill="white"/>
<g opacity="0.25">
<path d="M82.4938 79.0935C85.0775 88.8592 93.1009 95.5141 100.41 93.9587C107.72 92.4034 111.544 83.2326 108.952 73.467C108.935 73.4075 108.918 73.3395 108.901 73.28C108.366 74.4529 107.371 75.7023 105.595 75.7363C102.476 75.7873 95.4806 70.6367 95.4806 70.6367C95.4806 70.6367 89.4972 71.4526 81.6863 72.6C81.6523 74.6824 81.9073 76.8752 82.4938 79.0935Z" fill="#30356A"/>
</g>
<path d="M98.2942 95.8032C90.8998 95.8032 83.446 89.0208 80.9217 79.5101C79.3069 73.4161 79.9613 67.3561 82.7066 62.877C84.6359 59.7408 87.3982 57.7094 90.6959 57.0125C98.8297 55.2872 107.72 62.4775 110.525 73.0506C112.14 79.1446 111.485 85.2046 108.74 89.6837C106.81 92.8199 104.048 94.8513 100.751 95.5482C99.9346 95.7182 99.1186 95.8032 98.2942 95.8032ZM84.0664 78.6771C86.4292 87.6014 93.6111 93.7379 100.071 92.3695C102.476 91.8595 104.516 90.3381 105.969 87.9838C108.221 84.3207 108.748 79.0511 107.38 73.8921C105.017 64.9678 97.8353 58.8313 91.3758 60.1997C88.9705 60.7097 86.9307 62.2311 85.4773 64.5854C83.225 68.2485 82.6981 73.5181 84.0664 78.6771Z" fill="#30356A"/>
<path d="M83.4969 86.4374C87.806 93.0414 95.0729 94.9962 99.7135 90.8061C104.363 86.6159 104.626 77.8702 100.317 71.2662C96.0078 64.6623 88.7409 62.7075 84.1003 66.8976C79.4512 71.0962 79.1877 79.842 83.4969 86.4374Z" fill="white"/>
<path d="M94.0274 93.1855C93.6194 93.1855 93.203 93.16 92.7865 93.1005C89.2168 92.6415 85.7831 90.2447 83.3608 86.5305C79.0092 79.8756 79.2981 71.0109 83.9897 66.7697C85.9446 65.0019 88.3839 64.2539 91.0356 64.6024C94.6053 65.0614 98.039 67.4582 100.461 71.1724C104.813 77.8273 104.524 86.692 99.8324 90.9247C98.1835 92.4205 96.1947 93.1855 94.0274 93.1855ZM89.7947 64.8659C87.7039 64.8659 85.8001 65.6053 84.2192 67.0332C79.6381 71.1639 79.3831 79.8246 83.6413 86.3521C86.0126 89.9812 89.3613 92.3185 92.829 92.769C95.3788 93.1005 97.7246 92.378 99.6029 90.6867C104.184 86.556 104.439 77.8953 100.181 71.3678C97.8096 67.7386 94.4608 65.4013 90.9931 64.9509C90.5852 64.8914 90.1857 64.8659 89.7947 64.8659Z" fill="#30356A"/>
<g opacity="0.26">
<path d="M103.53 82.179C103.504 79.4253 102.714 76.6715 101.388 74.2407C100.912 80.5217 96.2119 84.2614 90.4409 82.6975C86.7097 81.6861 83.3865 78.6943 81.3467 74.9292C81.3127 75.3286 81.3042 75.7366 81.3042 76.1531C81.3722 83.165 86.4038 90.1939 92.5402 91.8597C98.6852 93.5256 103.598 89.1909 103.53 82.179Z" fill="#30356A"/>
</g>
<path d="M94.1381 94.6728C88.2481 94.6728 82.3496 89.0378 80.1738 80.972C78.78 75.7959 79.2814 70.5434 81.5167 66.9227C82.9871 64.5514 85.0694 63.0215 87.5512 62.5201C94.0022 61.2027 100.938 67.1437 103.334 76.0424C104.728 81.2185 104.227 86.471 101.991 90.0917C100.521 92.463 98.4388 93.9929 95.957 94.4943C95.3535 94.6133 94.7501 94.6728 94.1381 94.6728ZM89.3275 65.5883C88.9536 65.5883 88.5711 65.6223 88.2056 65.6988C86.2083 66.1068 84.9759 67.5177 84.2875 68.6311C82.5111 71.5038 82.1542 75.8044 83.3186 80.1306C85.2054 87.134 90.6959 92.2505 95.311 91.3071C97.3084 90.8992 98.5408 89.4883 99.2292 88.3749C101.006 85.5021 101.363 81.2015 100.198 76.8754C98.4558 70.4414 93.6707 65.5883 89.3275 65.5883Z" fill="#30356A"/>
<g opacity="0.5">
<path d="M125.526 31.2426C125.526 31.2426 147.301 25.718 162.999 34.0388C163.016 34.0473 163.033 34.0558 163.05 34.0643C166.356 35.8152 169.11 38.4245 171.056 41.5862C173.632 45.7678 174.779 49.023 175.671 51.9298C178.4 60.769 178 65.4181 178 65.4181C181.663 59.1967 182.896 53.0262 180.703 45.6403C180.482 44.9094 180.227 44.17 179.947 43.422C179.879 43.252 179.811 43.0736 179.743 42.9036C179.743 42.9036 179.743 42.8951 179.734 42.8951C179.046 41.4077 178.077 39.4954 176.793 37.4215C172.926 31.1661 166.28 23.4997 156.361 22.0209C137.824 19.2416 124.506 30.5456 125.526 31.2426Z" fill="white"/>
</g>
<g opacity="0.5">
<path d="M122.772 57.2078C122.925 61.6105 119.942 65.2907 116.109 65.4351C112.275 65.5796 109.046 62.1289 108.893 57.7263C108.74 53.3237 111.723 49.6435 115.556 49.499C119.389 49.3545 122.619 52.8052 122.772 57.2078Z" fill="white"/>
</g>
<g opacity="0.5">
<path d="M119.194 72.0815C119.1 73.9003 117.74 75.3112 116.16 75.2347C114.579 75.1582 113.372 73.6284 113.465 71.8095C113.559 69.9907 114.919 68.5798 116.5 68.6563C118.08 68.7328 119.287 70.2626 119.194 72.0815Z" fill="white"/>
</g>
<path d="M197.549 67.2114C197.549 67.2114 193.01 68.3588 191.956 73.8239C190.775 79.9518 192.806 82.2126 197.226 83.972C200.982 85.4679 207.017 89.4285 211.173 87.3122C213.816 85.9608 213.85 82.3146 216.366 82.3486L196.775 69.8972L197.549 67.2114Z" fill="white"/>
<g opacity="0.25">
<path d="M216.349 82.3486C213.842 82.3146 213.808 85.9608 211.164 87.3121C207.008 89.437 200.982 85.4678 197.217 83.9719C193.231 82.3826 191.183 80.3767 191.701 75.4727C192.747 77.283 194.616 78.4559 197.183 79.4758C201.518 81.2097 208.479 85.7738 213.264 83.326C213.689 83.105 214.054 82.8415 214.377 82.544C214.921 82.0426 215.729 81.9491 216.349 82.3486Z" fill="#30356A"/>
</g>
<path d="M197.923 68.6991C197.94 68.6991 197.88 68.716 197.855 68.7245L197.744 68.767C197.668 68.7925 197.583 68.835 197.506 68.869C197.345 68.9455 197.175 69.0305 197.022 69.124C196.699 69.3025 196.393 69.5235 196.095 69.7445C195.517 70.2119 195.024 70.7729 194.625 71.3933C194.234 72.0223 193.953 72.7277 193.741 73.4671L193.605 74.0281C193.554 74.2151 193.537 74.4446 193.494 74.6485C193.418 75.0735 193.375 75.4815 193.333 75.8894C193.273 76.6969 193.256 77.4958 193.384 78.2012C193.52 78.9067 193.749 79.5101 194.132 80.0371C194.514 80.564 195.058 81.0315 195.721 81.4395C196.393 81.8559 197.124 82.1959 197.957 82.5529C198.875 82.9438 199.707 83.3603 200.532 83.7683C201.356 84.1762 202.164 84.5757 202.971 84.9497C203.779 85.3236 204.578 85.6551 205.385 85.9356C206.184 86.216 206.991 86.437 207.773 86.5305C208.555 86.6325 209.312 86.6155 209.992 86.437C210.162 86.386 210.332 86.335 210.493 86.267C210.663 86.2076 210.782 86.1141 210.943 86.0461C211.215 85.8591 211.504 85.6636 211.751 85.3661C212.278 84.8137 212.72 84.0487 213.332 83.2328C213.638 82.8333 214.003 82.3914 214.539 82.0429C215.066 81.6859 215.754 81.533 216.358 81.5755C216.782 81.601 217.097 81.9664 217.071 82.3914C217.046 82.7568 216.765 83.0458 216.417 83.0968L216.341 83.1053C216.018 83.1478 215.788 83.2668 215.576 83.4538C215.355 83.6408 215.151 83.9467 214.947 84.3122C214.53 85.0262 214.156 85.9271 213.493 86.794C213.187 87.236 212.762 87.6354 212.303 88.0094C211.81 88.3579 211.309 88.6298 210.773 88.8168C209.703 89.1993 208.581 89.3013 207.535 89.2333C205.427 89.0888 203.549 88.4259 201.781 87.7119C200.013 87.0065 198.348 86.1311 196.758 85.5106C195.891 85.1706 194.931 84.7712 194.03 84.2272C193.121 83.6833 192.211 82.9693 191.497 82.0089C190.775 81.057 190.324 79.9011 190.129 78.7962C189.933 77.6828 189.95 76.6289 190.027 75.609C190.078 75.099 190.129 74.5975 190.222 74.1131C190.273 73.8666 190.299 73.6286 190.358 73.3737L190.554 72.6002C190.851 71.5718 191.276 70.5519 191.888 69.634C192.5 68.7161 193.265 67.9086 194.14 67.2457C194.582 66.9227 195.041 66.6167 195.534 66.3703C195.781 66.2428 196.027 66.1323 196.291 66.0303C196.427 65.9793 196.546 65.9283 196.69 65.8858L196.903 65.8178C196.988 65.7923 197.039 65.7753 197.166 65.7413C197.982 65.5373 198.815 66.0303 199.027 66.8547C199.24 67.6536 198.747 68.4866 197.923 68.6991Z" fill="#30356A"/>
<path d="M191.761 78.4307C191.761 78.4307 199.35 80.1985 199.588 84.4566C199.699 86.386 199.35 88.5193 194.344 87.5334C189.338 86.556 188.48 79.5441 191.761 78.4307Z" fill="white"/>
<g opacity="0.25">
<path d="M194.344 87.5338C190.877 86.8538 189.398 83.2841 189.908 80.7769C190.503 82.5362 191.905 84.1426 194.115 84.576C197.71 85.2815 198.908 84.3805 199.248 83.1057C199.444 83.5221 199.563 83.9726 199.588 84.4485C199.69 86.3864 199.35 88.5197 194.344 87.5338Z" fill="#30356A"/>
</g>
<path d="M196.563 89.4114C195.815 89.4114 194.973 89.3179 194.03 89.1309C190.29 88.4 188.386 85.0682 188.199 82.2805C188.021 79.6882 189.219 77.5719 191.234 76.8834L191.676 76.7305L192.126 76.8325C193.027 77.0449 200.914 79.0253 201.212 84.3543C201.254 85.1022 201.365 87.0741 199.903 88.349C199.096 89.0629 198.008 89.4114 196.563 89.4114ZM191.965 80.1642C191.548 80.5551 191.395 81.3456 191.446 82.068C191.557 83.7084 192.594 85.5357 194.659 85.9437C197.098 86.4196 197.71 85.9607 197.77 85.9097C197.889 85.8077 198.016 85.4847 197.965 84.5498C197.846 82.442 194.183 80.7931 191.965 80.1642Z" fill="#30356A"/>
<path d="M141.334 179.104C141.283 179.104 141.232 179.104 141.173 179.096C140.501 179.011 140.034 178.399 140.119 177.728C140.221 176.946 142.72 158.417 151.771 151.949C154.551 149.96 157.661 149.306 161.01 149.986C161.673 150.122 162.098 150.768 161.962 151.422C161.826 152.085 161.189 152.51 160.526 152.374C157.823 151.822 155.426 152.332 153.191 153.93C144.998 159.777 142.558 177.855 142.541 178.042C142.456 178.654 141.938 179.104 141.334 179.104Z" fill="#30356A"/>
<path d="M190.724 129.401C190.494 129.401 190.265 129.35 190.035 129.248C176.377 122.891 178.23 98.9481 178.315 97.9282C178.391 97.0358 179.173 96.3728 180.074 96.4408C180.966 96.5173 181.629 97.2993 181.561 98.2002C181.544 98.4297 179.811 120.902 191.412 126.299C192.228 126.681 192.576 127.642 192.202 128.458C191.922 129.053 191.336 129.401 190.724 129.401Z" fill="#30356A"/>
<path d="M93.254 135.427C92.4466 135.427 91.7496 134.832 91.6391 134.008C89.1658 114.816 69.7875 115.955 68.9631 116.015C68.0622 116.083 67.2887 115.403 67.2292 114.51C67.1612 113.618 67.8327 112.836 68.7336 112.768C68.9716 112.751 74.5896 112.369 80.6241 114.706C86.2931 116.899 93.3645 121.956 94.8689 133.6C94.9879 134.492 94.3589 135.308 93.4665 135.419C93.39 135.419 93.322 135.427 93.254 135.427Z" fill="#30356A"/>
<path d="M168.592 201.772C161.35 201.772 157.049 198.475 156.812 198.288C156.285 197.871 156.191 197.106 156.608 196.579C157.024 196.052 157.789 195.959 158.316 196.375C158.613 196.605 165.404 201.713 176.462 197.973C177.099 197.761 177.796 198.101 178.009 198.738C178.221 199.376 177.881 200.072 177.244 200.285C174.031 201.364 171.133 201.772 168.592 201.772Z" fill="#30356A"/>
<path d="M177.856 193.639C171.26 193.639 165.064 191.718 164.682 191.599C164.036 191.395 163.687 190.715 163.883 190.069C164.087 189.423 164.775 189.075 165.413 189.27C165.54 189.313 178.391 193.29 186.015 189.678C186.627 189.389 187.349 189.653 187.638 190.256C187.927 190.868 187.664 191.59 187.06 191.879C184.298 193.197 181.026 193.639 177.856 193.639Z" fill="#30356A"/>
<path d="M183.491 183.584C177.473 183.584 172.544 180.439 172.246 180.252C171.685 179.886 171.524 179.13 171.889 178.561C172.255 178 173.011 177.838 173.572 178.204C173.666 178.263 182.751 184.026 190.46 179.173C191.03 178.816 191.786 178.986 192.143 179.555C192.5 180.124 192.33 180.881 191.76 181.238C188.998 182.972 186.134 183.584 183.491 183.584Z" fill="#30356A"/>
</g>
<defs>
<clipPath id="clip0_64_10640">
<rect width="277" height="277" fill="white"/>
</clipPath>
</defs>
</svg>
