<svg width="267" height="182" viewBox="0 0 267 182" fill="none" xmlns="http://www.w3.org/2000/svg">
<path d="M212.579 60.3691C213.865 63.8838 214.92 67.4301 215.754 70.9976C200.49 81.6049 170.827 95.8536 135.689 108.762C100.551 121.67 68.7151 130.019 50.2232 131.802C48.5459 128.552 47.0586 125.164 45.7716 121.649C45.7083 121.48 45.6556 121.322 45.5923 121.153C45.0332 119.601 44.5163 118.039 44.0522 116.477C42.9551 112.815 42.1007 109.142 41.4889 105.458C41.4678 105.311 41.4361 105.163 41.415 105.015C40.5395 99.5372 40.1808 94.0699 40.3285 88.6448C40.6028 78.333 42.6809 68.2429 46.3624 58.7965C55.2866 35.8509 73.6413 16.7049 98.5574 7.55406C123.273 -1.52287 149.423 1.07356 170.964 12.5464C179.804 17.2537 187.873 23.4598 194.751 30.9747C198.433 34.9854 201.766 39.3761 204.688 44.1151C204.931 44.4951 205.163 44.875 205.384 45.2655C207.304 48.4636 209.034 51.8199 210.564 55.3241C211.133 56.6223 211.671 57.9416 212.178 59.282C212.304 59.6303 212.441 59.9997 212.579 60.3691Z" fill="#FFB200"/>
<path d="M216.84 105.5C216.25 109.089 215.437 112.635 214.404 116.108C212.969 120.995 211.112 125.734 208.865 130.293C199.14 150.062 182.093 166.274 159.782 174.464C137.43 182.676 113.895 181.335 93.6629 172.511C89.2219 170.569 84.9391 168.269 80.8568 165.63C77.6605 163.561 74.5909 161.292 71.6794 158.822C93.8106 154.938 119.581 147.951 146.438 138.082C173.295 128.224 197.462 116.868 216.84 105.5Z" fill="#FFB200"/>
<path d="M146.438 138.093C173.295 128.224 197.452 116.868 216.84 105.5C216.25 109.089 215.437 112.635 214.404 116.108C199.445 125.396 175.816 136.489 148.516 146.516C122.366 156.12 98.1567 162.801 80.8568 165.64C77.6605 163.572 74.5909 161.302 71.6794 158.833C93.8212 154.938 119.581 147.951 146.438 138.093Z" fill="#D66B09"/>
<path d="M212.157 59.2715C212.294 59.6409 212.431 59.9997 212.568 60.3691C213.855 63.8838 214.91 67.4302 215.743 70.9976C200.479 81.6049 170.816 95.8536 135.678 108.762C100.541 121.67 68.7046 130.019 50.2127 131.802C48.5355 128.552 47.0481 125.164 45.7612 121.649C45.6979 121.48 45.6451 121.322 45.5818 121.153C63.0505 120.499 95.414 112.54 131.237 99.3894C168.464 85.7107 199.224 70.1638 212.157 59.2715Z" fill="#D66B09"/>
<path d="M39.9383 91.6211L40.6873 85.6789C52.7233 87.1882 85.0446 79.4517 119.296 66.8706C160.162 51.862 186.956 36.5579 192.315 29.2119L197.156 32.7371C190.068 42.4684 159.613 58.4481 121.364 72.4962C85.7514 85.5839 53.0292 93.2676 39.9383 91.6211Z" fill="#D66B09"/>
<path d="M46.5628 61.7832L46.1197 55.8094C59.8542 54.7856 83.9896 48.4106 109.127 39.1753C135.467 29.4968 158.453 18.3828 169.118 10.1714L172.768 14.9209C161.66 23.4807 138.062 34.9324 111.195 44.8009C85.5719 54.2156 60.8141 60.7278 46.5628 61.7832Z" fill="#D66B09"/>
<path d="M41.1724 108.002L41.6365 102.028C55.487 103.105 88.9053 94.9777 124.771 81.795C162.398 67.9685 194.319 51.6723 202.388 42.1626L206.956 46.0361C198.148 56.4218 165.953 73.0558 126.839 87.4206C89.6543 101.089 56.0355 109.163 41.1724 108.002Z" fill="#D66B09"/>
<path d="M93.6628 174.011V172.512L93.0615 171.14L93.3463 171.013H93.6628C105.709 171.024 129.106 165.303 153.252 156.427C177.536 147.508 198.475 137.048 207.905 129.143L209.825 131.444C200.152 139.56 178.865 150.21 154.286 159.245C129.455 168.364 106.226 174.021 93.6628 174.011Z" fill="#D66B09"/>
<path d="M129.244 182C107.999 182 87.0172 174.569 70.3185 160.437L66.8797 157.524L71.3207 156.743C94.127 152.743 119.855 145.608 145.721 136.109C171.586 126.609 195.817 115.39 215.785 103.674L219.667 101.395L218.929 105.838C213.581 138.124 191.196 165.176 160.521 176.438C150.352 180.174 139.761 182 129.244 182ZM76.6056 160.067C100.066 177.905 131.248 182.696 159.065 172.48C186.882 162.263 207.557 138.42 213.897 109.627C194.519 120.625 171.555 131.106 147.166 140.066C122.777 149.027 98.4942 155.909 76.6056 160.067Z" fill="#371A45"/>
<path d="M264.236 54.8065C268.719 67.0287 249.584 86.2908 216.84 105.5C197.452 116.867 173.295 128.224 146.438 138.093C119.581 147.961 93.8106 154.948 71.6794 158.832C34.2948 165.387 7.24785 163.096 2.76464 150.874C-1.30716 139.771 14.094 122.873 41.4679 105.479C42.0797 109.163 42.9342 112.836 44.0312 116.498C36.4256 121.849 32.5437 126.25 33.5774 129.058C34.6218 131.918 40.6345 132.741 50.2022 131.823C68.7047 130.029 100.541 121.691 135.668 108.783C170.806 95.8743 200.469 81.6257 215.733 71.0183C223.623 65.5299 227.674 61.002 226.619 58.1523C225.585 55.3448 219.783 54.5004 210.532 55.3448C209.003 51.8407 207.273 48.4843 205.353 45.2863C237.495 40.79 260.164 43.7031 264.236 54.8065Z" fill="#FFC536"/>
<path d="M41.5839 110.524L42.259 111.527C35.4446 116.023 30.128 120.108 26.0878 123.739C29.1997 119.834 34.3475 115.443 41.5839 110.524Z" fill="#FF9100"/>
<path d="M42.9446 112.519L42.2589 111.527C42.375 111.443 42.5121 111.358 42.6387 111.284L42.9446 112.519Z" fill="#FF9100"/>
<path d="M238.212 55.3133C237.083 52.2525 234.035 50.226 228.971 49.2127C224.077 48.2417 217.294 48.2312 208.549 49.1705L208.676 50.3737L209.066 54.0045C225.743 52.2208 232.695 54.3739 233.666 56.9915C235.269 61.3716 223.634 73.1083 194.277 88.4969C177.873 97.0988 158.179 105.701 137.356 113.353C125.109 117.849 112.935 121.849 101.321 125.195C93.1882 127.549 85.3294 129.586 77.8926 131.253C45.5502 138.526 29.0942 137.111 27.4908 132.721C26.552 130.156 30.3073 124.171 43.5987 114.999C43.8308 114.841 44.0629 114.672 44.3055 114.514L42.9447 112.509L42.259 111.516L41.5839 110.514C34.3475 115.443 29.1997 119.823 26.0984 123.739C22.8494 127.802 21.8262 131.338 22.9443 134.409C24.0414 137.396 27.0267 139.254 31.2884 140.278C42.3856 142.927 62.0695 139.803 78.958 136.003C86.6058 134.283 94.6967 132.182 103.051 129.765C114.665 126.409 126.807 122.409 139.033 117.923C160.057 110.197 179.941 101.511 196.545 92.8137C217.737 81.6786 242.189 66.1423 238.212 55.3133Z" fill="#FFEC90"/>
<path d="M253.001 54.1527C248.835 42.8171 225.532 43.3131 206.713 45.7301L207.325 50.543C207.779 50.4902 208.232 50.4269 208.686 50.3741C216.819 49.382 223.528 49.0548 228.982 49.2131C241.366 49.5931 247.221 52.4956 248.455 55.8203C250.659 61.8364 240.68 75.8634 205.279 95.6005C186.977 105.807 164.909 115.76 141.427 124.383C130.689 128.32 119.992 131.866 109.591 134.937C97.2284 138.6 85.2767 141.576 74.1267 143.793C34.3686 151.666 17.691 147.434 15.4864 141.418C14.2627 138.072 16.8682 132.056 26.1089 123.739C30.1491 120.098 35.4551 116.024 42.2801 111.527C42.3961 111.443 42.5227 111.358 42.6598 111.285C42.913 111.116 43.1662 110.957 43.4193 110.778L42.1008 108.751L40.7716 106.704C24.8642 117.047 6.76256 131.75 10.9398 143.085C12.5538 147.476 16.9632 150.115 22.9548 151.55C37.069 154.907 59.8859 151.561 75.0655 148.553C88.3885 145.914 102.84 142.178 117.735 137.544C126.09 134.948 134.571 132.077 143.094 128.942C166.808 120.235 189.129 110.166 207.642 99.8434C226.893 89.1094 258.402 68.8868 253.001 54.1527Z" fill="#FFEC90"/>
<path d="M35.7399 164.543C16.2036 164.543 3.92493 160.141 0.781414 151.592C-3.58576 139.687 10.4546 122.673 40.3391 103.685L43.029 101.975L43.5565 105.12C44.1577 108.741 45.0016 112.361 46.0565 115.875L46.4996 117.332L45.2548 118.208C34.7272 125.607 35.5605 128.288 35.5711 128.309C35.5816 128.34 36.7103 130.979 50.0123 129.691C68.8945 127.865 101.448 119.073 134.961 106.767C168.474 94.4602 198.971 80.0743 214.551 69.2453C225.522 61.6144 224.667 58.8596 224.667 58.8385C224.657 58.8174 223.56 56.2315 210.754 57.4031L209.235 57.5403L208.623 56.1471C207.157 52.7802 205.458 49.4766 203.57 46.3314L201.935 43.5977L205.089 43.1544C240.142 38.2782 261.862 42.1623 266.229 54.0679C271.008 67.0922 253.402 86.5021 217.927 107.305C197.737 119.147 173.274 130.472 147.187 140.056C121.09 149.64 95.1186 156.848 72.0697 160.891C58.1453 163.339 45.951 164.543 35.7399 164.543ZM39.9699 108.941C14.4842 125.586 1.35104 140.879 4.74773 150.125C8.64021 160.722 34.147 163.255 71.3207 156.732C94.127 152.732 119.855 145.597 145.721 136.098C171.586 126.599 195.817 115.379 215.785 103.664C248.349 84.5706 266.156 66.1212 262.263 55.5244C258.866 46.2786 238.961 43.1122 208.77 46.9224C209.878 48.9278 210.912 50.9859 211.861 53.0757C221.925 52.3263 227.262 53.6984 228.613 57.382C230.047 61.3083 226.345 66.174 216.946 72.7178C200.848 83.9056 170.742 98.1226 136.406 110.735C102.07 123.348 69.9177 132.013 50.4131 133.903C39.0205 135 33.0394 133.692 31.6048 129.765C30.2545 126.082 33.4297 121.575 41.5944 115.633C40.9615 113.437 40.4235 111.2 39.9699 108.941Z" fill="#371A45"/>
<g opacity="0.41">
<path d="M215.743 71.293C213.971 72.5279 211.998 73.805 209.847 75.1349C209.192 72.739 208.422 70.3536 207.557 67.9894C207.42 67.62 207.283 67.2612 207.146 66.8918C206.64 65.5513 206.102 64.232 205.532 62.9338C204.003 59.4297 202.273 56.0733 200.363 52.8753C200.131 52.4953 199.899 52.1048 199.656 51.7248C196.724 46.9964 193.391 42.5951 189.709 38.5844C182.831 31.0801 174.772 24.8635 165.922 20.1667C144.381 8.69385 118.231 6.08686 93.5153 15.1744C77.0171 21.2327 63.3987 31.6817 53.4829 44.706C63.5674 28.2831 79.0424 15.0055 98.5364 7.84948C123.252 -1.22746 149.402 1.36896 170.943 12.8418C179.783 17.5491 187.852 23.7552 194.73 31.2701C198.401 35.2808 201.745 39.6715 204.667 44.4C204.91 44.7799 205.142 45.1704 205.363 45.5504C207.283 48.759 209.013 52.1048 210.532 55.6089C211.102 56.9071 211.64 58.2264 212.146 59.5669C212.294 59.9363 212.431 60.2951 212.558 60.6646C213.866 64.1898 214.92 67.7361 215.743 71.293Z" fill="white"/>
</g>
<path d="M48.9891 134.051L48.3351 132.784C46.6156 129.449 45.0861 125.955 43.778 122.388C43.1345 120.636 42.5438 118.862 42.0164 117.1C40.9088 113.416 40.0227 109.617 39.4003 105.817C32.2694 62.7861 56.8373 20.6311 97.8191 5.58028C138.801 -9.47054 184.804 6.7624 207.188 44.1784C209.161 47.4819 210.944 50.9438 212.484 54.4796C213.222 56.1578 213.918 57.8993 214.562 59.6513C215.87 63.2188 216.956 66.8707 217.811 70.5226L218.138 71.9158L216.967 72.7285C200.869 83.9163 170.763 98.1333 136.427 110.746C102.091 123.359 69.9388 132.024 50.4342 133.913L48.9891 134.051ZM129.138 4.20818C119.17 4.20818 109.064 5.92858 99.2643 9.52769C60.1813 23.8819 36.7526 64.0843 43.5565 105.11C44.1578 108.73 45.0017 112.35 46.0565 115.865C46.5629 117.543 47.122 119.242 47.7338 120.91C48.8097 123.855 50.0545 126.747 51.4364 129.544C70.5085 127.422 102.271 118.768 134.951 106.767C167.63 94.7664 197.441 80.7922 213.349 70.0582C212.6 67.0396 211.671 64.0209 210.585 61.0762C209.973 59.4086 209.308 57.7515 208.602 56.1472C207.135 52.7803 205.437 49.4767 203.549 46.3209C187.568 19.6073 158.928 4.20818 129.138 4.20818Z" fill="#371A45"/>
<g opacity="0.3">
<path d="M106.448 118.715C83.3567 125.924 63.3985 130.536 50.2126 131.813C40.6344 132.742 34.6322 131.908 33.5879 129.048C32.5541 126.24 36.436 121.839 44.0416 116.488C43.4087 114.387 42.8707 112.276 42.4066 110.166C17.7015 126.578 4.09364 142.283 7.95447 152.795C9.07263 155.835 11.5938 158.273 15.3175 160.099C14.9694 159.994 14.6213 159.888 14.2837 159.783C26.3831 163.624 46.7316 163.202 71.7004 158.822C93.8316 154.938 119.602 147.951 146.459 138.082C148.537 137.322 150.605 136.541 152.651 135.76C77.249 151.983 106.448 118.715 106.448 118.715Z" fill="#371A45"/>
</g>
<g opacity="0.3">
<path d="M108.558 106.461C135.204 106.102 190.848 82.755 213.866 72.2743C214.509 71.8416 215.142 71.4194 215.743 70.9972C215.174 68.5591 217.02 70.5012 216.239 68.0947C201.724 75.1663 133.738 105.416 103.378 105.817C102.049 105.838 100.72 105.796 99.4014 105.701C102.397 106.239 105.477 106.503 108.558 106.461Z" fill="#371A45"/>
</g>
<g opacity="0.3">
<path d="M216.239 68.0844C201.724 75.156 133.737 105.405 103.378 105.806C87.4497 106.018 71.5528 98.3761 68.2194 82.7975C68.1561 82.5125 68.1139 82.2698 68.0823 82.0693C68.0612 81.9215 68.0295 81.7737 68.0084 81.6154C67.1329 76.1481 66.7742 70.6703 66.9219 65.2558C67.1962 54.944 69.2743 44.8538 72.9558 35.3969C74.844 30.5524 77.1542 25.8661 79.8546 21.4121C66.9957 31.3967 57.2909 44.6111 51.5208 59.4402C47.8498 68.8971 45.7717 78.9873 45.4869 89.2991C45.3392 94.7136 45.6979 100.191 46.5734 105.669C46.5945 105.817 46.6156 105.965 46.6473 106.113C47.2591 109.796 48.1135 113.48 49.2106 117.132C49.6747 118.694 50.1916 120.245 50.7507 121.807C50.814 121.976 50.8668 122.134 50.93 122.303C52.0693 125.396 53.3668 128.383 54.7909 131.264C54.0419 131.37 53.3035 131.465 52.5756 131.549C71.3524 129.311 101.996 121.132 135.678 108.762C170.816 95.8535 200.479 81.6049 215.743 70.987C215.184 68.5594 217.02 70.5014 216.239 68.0844Z" fill="#371A45"/>
</g>
<g opacity="0.3">
<path d="M80.2133 159.815C84.2851 162.453 88.5679 164.754 93.0194 166.696C113.252 175.52 136.786 176.86 159.139 168.649C181.449 160.458 198.496 144.247 208.222 124.478C210.469 119.918 212.325 115.169 213.76 110.293C214.224 108.72 214.636 107.137 215.015 105.543C195.827 116.689 172.114 127.781 145.795 137.449C121.079 146.526 97.2917 153.165 76.3947 157.197C77.65 158.094 78.9158 158.981 80.2133 159.815Z" fill="#371A45"/>
</g>
</svg>
