<svg width="32" height="32" viewBox="0 0 32 32" fill="none" xmlns="http://www.w3.org/2000/svg">
<path d="M27.5 8.5H4.5C4.22386 8.5 4 8.72386 4 9C4 9.27614 4.22386 9.5 4.5 9.5H27.5C27.7761 9.5 28 9.27614 28 9C28 8.72386 27.7761 8.5 27.5 8.5Z" fill="#FEFEFF"/>
<path d="M27.5 15.5H4.5C4.22386 15.5 4 15.7239 4 16C4 16.2761 4.22386 16.5 4.5 16.5H27.5C27.7761 16.5 28 16.2761 28 16C28 15.7239 27.7761 15.5 27.5 15.5Z" fill="#FEFEFF"/>
<path d="M27.5 22.5H4.5C4.22386 22.5 4 22.7239 4 23C4 23.2761 4.22386 23.5 4.5 23.5H27.5C27.7761 23.5 28 23.2761 28 23C28 22.7239 27.7761 22.5 27.5 22.5Z" fill="#FEFEFF"/>
</svg>
