<svg width="32" height="32" viewBox="0 0 32 32" fill="none" xmlns="http://www.w3.org/2000/svg">
<path d="M24.617 23.617L8.35355 7.35355C8.15829 7.15829 7.84171 7.15829 7.64645 7.35355C7.45118 7.54882 7.45118 7.8654 7.64645 8.06066L23.9099 24.3241C24.1052 24.5194 24.4217 24.5194 24.617 24.3241C24.8123 24.1289 24.8123 23.8123 24.617 23.617Z" fill="#FEFEFF"/>
<path d="M23.617 7.38299L7.35355 23.6464C7.15829 23.8417 7.15829 24.1583 7.35355 24.3536C7.54882 24.5488 7.8654 24.5488 8.06066 24.3536L24.3241 8.0901C24.5194 7.89484 24.5194 7.57825 24.3241 7.38299C24.1289 7.18773 23.8123 7.18773 23.617 7.38299Z" fill="#FEFEFF"/>
</svg>
