<?xml version="1.0" encoding="utf-8"?><svg xmlns="http://www.w3.org/2000/svg" xmlns:xlink="http://www.w3.org/1999/xlink"><symbol fill="none" viewBox="0 0 20 20" id="login" xmlns="http://www.w3.org/2000/svg"><path d="m9.733 12.183 2.134-2.133-2.134-2.133M3.333 10.05h8.475" stroke="#FEFEFF" stroke-width="1.5" stroke-miterlimit="10" stroke-linecap="round" stroke-linejoin="round"/><path d="M10 3.333c3.683 0 6.667 2.5 6.667 6.667S13.683 16.667 10 16.667" stroke="#FEFEFF" stroke-miterlimit="10" stroke-linecap="round" stroke-linejoin="round"/></symbol><symbol fill="none" viewBox="0 0 18 18" id="vk-fill" xmlns="http://www.w3.org/2000/svg"><g clip-path="url(#ba)"><path fill-rule="evenodd" clip-rule="evenodd" d="M17.587 4.461c.125-.41 0-.711-.596-.711h-1.968c-.502 0-.732.26-.858.548 0 0-1.001 2.396-2.42 3.954-.458.451-.667.594-.917.594-.125 0-.314-.143-.314-.553V4.46c0-.492-.138-.711-.555-.711H6.863c-.313 0-.5.228-.5.445 0 .465.709.574.781 1.885v2.848c0 .625-.114.738-.365.738-.667 0-2.291-2.408-3.255-5.164-.187-.536-.376-.752-.879-.752H.675c-.563 0-.675.26-.675.548 0 .511.667 3.052 3.109 6.413 1.627 2.295 3.918 3.539 6.006 3.539 1.252 0 1.406-.276 1.406-.752v-1.735c0-.553.118-.663.515-.663.293 0 .793.144 1.962 1.25 1.335 1.312 1.554 1.9 2.306 1.9h1.969c.562 0 .844-.276.682-.822-.178-.543-.816-1.331-1.661-2.267-.46-.532-1.148-1.106-1.357-1.393-.292-.368-.208-.533 0-.86 0 0 2.4-3.32 2.65-4.447Z" fill="#FEFEFF"/></g><defs><clipPath id="ba"><path fill="#fff" d="M0 0h18v18H0z"/></clipPath></defs></symbol></svg>