<?xml version="1.0" encoding="utf-8"?><svg xmlns="http://www.w3.org/2000/svg" xmlns:xlink="http://www.w3.org/1999/xlink"><symbol fill="none" viewBox="0 0 32 32" id="Burger" xmlns="http://www.w3.org/2000/svg"><path d="M27.5 8.5h-23a.5.5 0 0 0 0 1h23a.5.5 0 0 0 0-1ZM27.5 15.5h-23a.5.5 0 0 0 0 1h23a.5.5 0 0 0 0-1ZM27.5 22.5h-23a.5.5 0 0 0 0 1h23a.5.5 0 0 0 0-1Z" fill="#FEFEFF"/></symbol><symbol fill="none" viewBox="0 0 32 32" id="Close" xmlns="http://www.w3.org/2000/svg"><path d="M24.617 23.617 8.354 7.354a.5.5 0 1 0-.708.707L23.91 24.324a.5.5 0 1 0 .707-.707Z" fill="#FEFEFF"/><path d="M23.617 7.383 7.354 23.646a.5.5 0 0 0 .707.708L24.324 8.09a.5.5 0 1 0-.707-.707Z" fill="#FEFEFF"/></symbol><symbol fill="none" viewBox="0 0 24 24" id="arrow-down" xmlns="http://www.w3.org/2000/svg"><path d="M17.92 8.18H6.08c-.96 0-1.44 1.16-.76 1.84l5.18 5.18c.83.83 2.18.83 3.01 0l1.97-1.97 3.21-3.21c.67-.68.19-1.84-.77-1.84Z" fill="#737373"/></symbol><symbol fill="none" viewBox="0 0 24 24" id="arrow-left" xmlns="http://www.w3.org/2000/svg"><path d="M9.57 5.93 3.5 12l6.07 6.07M20.5 12H3.67" stroke="#737373" stroke-width="1.5" stroke-miterlimit="10" stroke-linecap="round" stroke-linejoin="round"/></symbol><symbol fill="none" viewBox="0 0 24 24" id="arrow-right" xmlns="http://www.w3.org/2000/svg"><path d="M14.43 5.93 20.5 12l-6.07 6.07M3.5 12h16.83" stroke="#737373" stroke-width="1.5" stroke-miterlimit="10" stroke-linecap="round" stroke-linejoin="round"/></symbol><symbol fill="none" viewBox="0 0 24 24" id="card" xmlns="http://www.w3.org/2000/svg"><path d="M2 8.505h20M6 16.505h2M10.5 16.505h4" stroke="#737373" stroke-width="1.5" stroke-miterlimit="10" stroke-linecap="round" stroke-linejoin="round"/><path d="M6.44 3.505h11.11c3.56 0 4.45.88 4.45 4.39v8.21c0 3.51-.89 4.39-4.44 4.39H6.44c-3.55.01-4.44-.87-4.44-4.38v-8.22c0-3.51.89-4.39 4.44-4.39Z" stroke="#737373" stroke-width="1.5" stroke-linecap="round" stroke-linejoin="round"/></symbol><symbol fill="none" viewBox="0 0 24 24" id="clock" xmlns="http://www.w3.org/2000/svg"><path d="M22 12c0 5.52-4.48 10-10 10S2 17.52 2 12 6.48 2 12 2s10 4.48 10 10Z" stroke="#737373" stroke-width="1.5" stroke-linecap="round" stroke-linejoin="round"/><path d="m15.71 15.18-3.1-1.85c-.54-.32-.98-1.09-.98-1.72v-4.1" stroke="#737373" stroke-width="1.5" stroke-linecap="round" stroke-linejoin="round"/></symbol><symbol fill="none" viewBox="0 0 24 24" id="close-circle" xmlns="http://www.w3.org/2000/svg"><path d="M12 2C6.49 2 2 6.49 2 12s4.49 10 10 10 10-4.49 10-10S17.51 2 12 2Zm3.36 12.3c.29.29.29.77 0 1.06-.15.15-.34.22-.53.22s-.38-.07-.53-.22l-2.3-2.3-2.3 2.3c-.15.15-.34.22-.53.22s-.38-.07-.53-.22a.754.754 0 0 1 0-1.06l2.3-2.3-2.3-2.3a.754.754 0 0 1 0-1.06c.29-.29.77-.29 1.06 0l2.3 2.3 2.3-2.3c.29-.29.77-.29 1.06 0 .29.29.29.77 0 1.06l-2.3 2.3 2.3 2.3Z" fill="#737373"/></symbol><symbol fill="none" viewBox="0 0 24 24" id="danger" xmlns="http://www.w3.org/2000/svg"><path d="M12 9v5M12 21.41H5.94c-3.47 0-4.92-2.48-3.24-5.51l3.12-5.62L8.76 5c1.78-3.21 4.7-3.21 6.48 0l2.94 5.29 3.12 5.62c1.68 3.03.22 5.51-3.24 5.51H12v-.01Z" stroke="#737373" stroke-width="1.5" stroke-linecap="round" stroke-linejoin="round"/><path d="M11.995 17h.009" stroke="#737373" stroke-width="2" stroke-linecap="round" stroke-linejoin="round"/></symbol><symbol fill="none" viewBox="0 0 24 24" id="document-text" xmlns="http://www.w3.org/2000/svg"><path d="M22 10v5c0 5-2 7-7 7H9c-5 0-7-2-7-7V9c0-5 2-7 7-7h5" stroke="#737373" stroke-width="1.5" stroke-linecap="round" stroke-linejoin="round"/><path d="M22 10h-4c-3 0-4-1-4-4V2l8 8ZM7 13h6M7 17h4" stroke="#737373" stroke-width="1.5" stroke-linecap="round" stroke-linejoin="round"/></symbol><symbol fill="none" viewBox="0 0 24 24" id="gift" xmlns="http://www.w3.org/2000/svg"><path d="M19.97 10h-16v8c0 3 1 4 4 4h8c3 0 4-1 4-4v-8ZM21.5 7v1c0 1.1-.53 2-2 2h-15c-1.53 0-2-.9-2-2V7c0-1.1.47-2 2-2h15c1.47 0 2 .9 2 2ZM11.64 5H6.12a.936.936 0 0 1 .03-1.3l1.42-1.42a.96.96 0 0 1 1.35 0L11.64 5ZM17.87 5h-5.52l2.72-2.72a.96.96 0 0 1 1.35 0l1.42 1.42c.36.36.37.93.03 1.3Z" stroke="#737373" stroke-width="1.5" stroke-miterlimit="10" stroke-linecap="round" stroke-linejoin="round"/><path d="M8.94 10v5.14c0 .8.88 1.27 1.55.84l.94-.62a1 1 0 0 1 1.1 0l.89.6a.997.997 0 0 0 1.55-.83V10H8.94Z" stroke="#737373" stroke-width="1.5" stroke-miterlimit="10" stroke-linecap="round" stroke-linejoin="round"/></symbol><symbol fill="none" viewBox="0 0 24 24" id="graph" xmlns="http://www.w3.org/2000/svg"><path d="M18.32 12c2.6 0 3.68-1 2.72-4.28-.65-2.21-2.55-4.11-4.76-4.76C13 2 12 3.08 12 5.68v2.88C12 11 13 12 15 12h3.32Z" stroke="#737373" stroke-width="1.5" stroke-linecap="round" stroke-linejoin="round"/><path d="M20 14.7a9.091 9.091 0 0 1-10.42 7.17c-3.79-.61-6.84-3.66-7.46-7.45A9.1 9.1 0 0 1 9.26 4.01" stroke="#737373" stroke-width="1.5" stroke-linecap="round" stroke-linejoin="round"/></symbol><symbol fill="none" viewBox="0 0 24 24" id="info-circle" xmlns="http://www.w3.org/2000/svg"><path d="M12 22c5.5 0 10-4.5 10-10S17.5 2 12 2 2 6.5 2 12s4.5 10 10 10Z" stroke="#737373" stroke-width="1.5" stroke-linecap="round" stroke-linejoin="round"/><path d="M12 13.36v-.21c0-.68.42-1.04.84-1.33.41-.28.82-.64.82-1.3 0-.92-.74-1.66-1.66-1.66-.92 0-1.66.74-1.66 1.66" stroke="#737373" stroke-width="1.5" stroke-linecap="round" stroke-linejoin="round"/><path d="M11.995 16h.009" stroke="#737373" stroke-width="2" stroke-linecap="round" stroke-linejoin="round"/></symbol><symbol fill="none" viewBox="0 0 24 24" id="like" xmlns="http://www.w3.org/2000/svg"><path d="m7.48 18.35 3.1 2.4c.4.4 1.3.6 1.9.6h3.8c1.2 0 2.5-.9 2.8-2.1l2.4-7.3c.5-1.4-.4-2.6-1.9-2.6h-4c-.6 0-1.1-.5-1-1.2l.5-3.2c.2-.9-.4-1.9-1.3-2.2-.8-.3-1.8.1-2.2.7l-4.1 6.1" stroke="#737373" stroke-width="1.5" stroke-miterlimit="10"/><path d="M2.38 18.35v-9.8c0-1.4.6-1.9 2-1.9h1c1.4 0 2 .5 2 1.9v9.8c0 1.4-.6 1.9-2 1.9h-1c-1.4 0-2-.5-2-1.9Z" stroke="#737373" stroke-width="1.5" stroke-linecap="round" stroke-linejoin="round"/></symbol><symbol fill="none" viewBox="0 0 24 24" id="location" xmlns="http://www.w3.org/2000/svg"><path d="M12 13.43a3.12 3.12 0 1 0 0-6.24 3.12 3.12 0 0 0 0 6.24Z" stroke="#737373" stroke-width="1.5"/><path d="M3.62 8.49c1.97-8.66 14.8-8.65 16.76.01 1.15 5.08-2.01 9.38-4.78 12.04a5.194 5.194 0 0 1-7.21 0c-2.76-2.66-5.92-6.97-4.77-12.05Z" stroke="#737373" stroke-width="1.5"/></symbol><symbol fill="none" viewBox="0 0 24 24" id="lock" xmlns="http://www.w3.org/2000/svg"><path d="M6 10V8c0-3.31 1-6 6-6s6 2.69 6 6v2M12 18.5a2.5 2.5 0 1 0 0-5 2.5 2.5 0 0 0 0 5Z" stroke="#737373" stroke-width="1.5" stroke-linecap="round" stroke-linejoin="round"/><path d="M17 22H7c-4 0-5-1-5-5v-2c0-4 1-5 5-5h10c4 0 5 1 5 5v2c0 4-1 5-5 5Z" stroke="#737373" stroke-width="1.5" stroke-linecap="round" stroke-linejoin="round"/></symbol><symbol fill="none" viewBox="0 0 24 24" id="login" xmlns="http://www.w3.org/2000/svg"><path d="m11.68 14.62 2.56-2.56-2.56-2.56M4 12.06h10.17" stroke="#737373" stroke-width="1.5" stroke-miterlimit="10" stroke-linecap="round" stroke-linejoin="round"/><path d="M12 4c4.42 0 8 3 8 8s-3.58 8-8 8" stroke="#737373" stroke-width="1.5" stroke-miterlimit="10" stroke-linecap="round" stroke-linejoin="round"/></symbol><symbol fill="none" viewBox="0 0 24 24" id="rotate-right" xmlns="http://www.w3.org/2000/svg"><path d="M14.89 5.08c-.87-.26-1.83-.43-2.89-.43-4.79 0-8.67 3.88-8.67 8.67C3.33 18.12 7.21 22 12 22s8.67-3.88 8.67-8.67c0-1.78-.54-3.44-1.46-4.82M16.13 5.32 13.24 2M16.13 5.32l-3.37 2.46" stroke="#737373" stroke-width="1.5" stroke-linecap="round" stroke-linejoin="round"/></symbol><symbol fill="none" viewBox="0 0 24 24" id="shield-security" xmlns="http://www.w3.org/2000/svg"><path d="M10.49 2.23 5.5 4.11c-1.15.43-2.09 1.79-2.09 3.01v7.43c0 1.18.78 2.73 1.73 3.44l4.3 3.21c1.41 1.06 3.73 1.06 5.14 0l4.3-3.21c.95-.71 1.73-2.26 1.73-3.44V7.12c0-1.23-.94-2.59-2.09-3.02l-4.99-1.87c-.85-.31-2.21-.31-3.04 0Z" stroke="#737373" stroke-width="1.5" stroke-linecap="round" stroke-linejoin="round"/><path d="M12 12.5a2 2 0 1 0 0-4 2 2 0 0 0 0 4ZM12 12.5v3" stroke="#737373" stroke-width="1.5" stroke-miterlimit="10" stroke-linecap="round" stroke-linejoin="round"/></symbol><symbol fill="none" viewBox="0 0 24 24" id="task-square" xmlns="http://www.w3.org/2000/svg"><path d="M12.37 8.88h5.25M6.38 8.88l.75.75 2.25-2.25M12.37 15.88h5.25M6.38 15.88l.75.75 2.25-2.25" stroke="#737373" stroke-width="1.5" stroke-linecap="round" stroke-linejoin="round"/><path d="M9 22h6c5 0 7-2 7-7V9c0-5-2-7-7-7H9C4 2 2 4 2 9v6c0 5 2 7 7 7Z" stroke="#737373" stroke-width="1.5" stroke-linecap="round" stroke-linejoin="round"/></symbol><symbol fill="none" viewBox="0 0 24 24" id="tick-circle" xmlns="http://www.w3.org/2000/svg"><path d="M12 2C6.49 2 2 6.49 2 12s4.49 10 10 10 10-4.49 10-10S17.51 2 12 2Zm4.78 7.7-5.67 5.67a.75.75 0 0 1-1.06 0l-2.83-2.83a.754.754 0 0 1 0-1.06c.29-.29.77-.29 1.06 0l2.3 2.3 5.14-5.14c.29-.29.77-.29 1.06 0 .29.29.29.76 0 1.06Z" fill="#737373"/></symbol><symbol fill="none" viewBox="0 0 24 24" id="tick-square" xmlns="http://www.w3.org/2000/svg"><path fill="#000" d="M5 5h13v13H5z"/><path d="M16.19 2H7.81C4.17 2 2 4.17 2 7.81v8.37C2 19.83 4.17 22 7.81 22h8.37c3.64 0 5.81-2.17 5.81-5.81V7.81C22 4.17 19.83 2 16.19 2Zm.59 7.7-5.67 5.67a.75.75 0 0 1-1.06 0l-2.83-2.83a.754.754 0 0 1 0-1.06c.29-.29.77-.29 1.06 0l2.3 2.3 5.14-5.14c.29-.29.77-.29 1.06 0 .29.29.29.76 0 1.06Z" fill="#737373"/></symbol><symbol fill="none" viewBox="0 0 24 24" id="tick-square_null" xmlns="http://www.w3.org/2000/svg"><path d="M9 22h6c5 0 7-2 7-7V9c0-5-2-7-7-7H9C4 2 2 4 2 9v6c0 5 2 7 7 7Z" stroke="#737373" stroke-width="1.5" stroke-linecap="round" stroke-linejoin="round"/></symbol><symbol fill="none" viewBox="0 0 24 24" id="timer" xmlns="http://www.w3.org/2000/svg"><path d="M20.75 13.25c0 4.83-3.92 8.75-8.75 8.75s-8.75-3.92-8.75-8.75S7.17 4.5 12 4.5s8.75 3.92 8.75 8.75ZM12 8v5" stroke="#737373" stroke-width="1.5" stroke-linecap="round" stroke-linejoin="round"/><path d="M9 2h6" stroke="#737373" stroke-width="1.5" stroke-miterlimit="10" stroke-linecap="round" stroke-linejoin="round"/></symbol></svg>