<svg width="56" height="75" viewBox="0 0 56 75" fill="none" xmlns="http://www.w3.org/2000/svg">
<g filter="url(#filter0_f_2026_6813)">
<path d="M22.3592 25.888C21.8592 25.0833 26.5592 13.918 26.5592 13.918C26.5592 13.918 21.7592 24.3791 20.3592 24.9827C18.9592 25.5862 8.65918 20.758 8.65918 20.758C8.65918 20.758 18.9592 25.4856 19.5592 26.7933C20.1592 28.1009 15.4592 38.7633 15.4592 38.7633C15.4592 38.7633 20.5592 28.2015 21.6592 27.6986C22.7592 27.1956 33.3592 31.9233 33.3592 31.9233C33.3592 31.9233 22.8592 26.6927 22.3592 25.888Z" fill="#FFFFB8"/>
<path d="M31.2592 71.354L40.7592 69.4428C51.0592 67.4311 56.4592 50.834 52.8592 32.4264C49.2592 14.1193 37.9592 0.841643 27.6592 2.85341L18.1592 4.76458L31.2592 71.354Z" fill="#FFE142"/>
<path d="M49.3592 20.9593C44.2592 8.88871 35.6592 1.34459 27.6592 2.85342L18.1592 4.76459L22.3592 26.2905L49.3592 20.9593Z" fill="#FFEA62"/>
<path d="M27.459 51.9403L31.259 71.3538L40.759 69.4427C48.259 67.9338 53.259 58.6797 53.959 46.6091L27.459 51.9403Z" fill="#FFC433"/>
<path d="M31.6693 71.2095C41.9644 69.1692 47.3937 52.6253 43.796 34.2576C40.1983 15.89 28.936 2.65406 18.6409 4.69437C8.34582 6.73468 2.91651 23.2786 6.51421 41.6462C10.1119 60.0139 21.3742 73.2498 31.6693 71.2095Z" fill="#FFD042"/>
<path d="M23.759 25.9887C29.159 24.8823 34.959 24.0776 40.359 22.9711C35.259 10.7999 26.659 3.05463 18.559 4.66404C11.059 6.17286 6.15898 15.427 5.45898 27.5982C11.159 27.7993 17.359 27.2964 23.759 25.9887Z" fill="#FFE142"/>
<path d="M30.4128 64.7949C37.511 63.3882 40.9113 50.2298 38.0075 35.4049C35.1037 20.58 26.9955 9.70239 19.8973 11.1091C12.7991 12.5159 9.3989 25.6742 12.3027 40.4991C15.2065 55.3241 23.3147 66.2017 30.4128 64.7949Z" fill="#FFA821"/>
<path d="M21.4767 48.2615L20.7415 43.8323L33.6279 41.6682L34.363 46.0974L21.4767 48.2615ZM25.6108 55.4519L19.861 20.8096L24.7604 19.9868C26.4294 19.7065 27.8618 20.3392 29.0577 21.8848C30.2537 23.4305 31.0844 25.6055 31.5498 28.4099C31.8894 30.4554 31.9756 32.2298 31.8085 33.733C31.6466 35.2185 31.2299 36.3991 30.5584 37.2749C29.8948 38.1493 28.967 38.6867 27.7749 38.8868L20.1337 40.1701L19.3985 35.7408L26.9086 34.4796C27.8225 34.3261 28.4152 33.8366 28.6866 33.011C28.9553 32.169 28.9637 30.9891 28.7118 29.4715C28.4845 28.1023 28.1132 27.0709 27.5979 26.3775C27.0904 25.6827 26.4354 25.4028 25.6327 25.5376L23.8565 25.8358L28.6864 54.9354L25.6108 55.4519Z" fill="#D68213"/>
<path d="M19.4767 51.2791L18.7415 46.8498L31.6279 44.6858L32.363 49.115L19.4767 51.2791ZM23.6108 58.4694L17.861 23.8272L22.7604 23.0044C24.4294 22.7241 25.8618 23.3568 27.0577 24.9024C28.2537 26.4481 29.0844 28.6231 29.5498 31.4274C29.8894 33.473 29.9756 35.2474 29.8085 36.7506C29.6466 38.236 29.2299 39.4166 28.5584 40.2924C27.8948 41.1669 26.967 41.7042 25.7749 41.9044L18.1337 43.1877L17.3985 38.7584L24.9086 37.4972C25.8225 37.3437 26.4152 36.8542 26.6866 36.0286C26.9553 35.1866 26.9637 34.0067 26.7118 32.489C26.4845 31.1198 26.1132 30.0885 25.5979 29.3951C25.0904 28.7003 24.4354 28.4203 23.6327 28.5551L21.8565 28.8534L26.6864 57.9529L23.6108 58.4694Z" fill="#FFE142"/>
<path d="M30.359 64.8157C30.759 64.7151 31.059 64.6145 31.459 64.5139C24.659 64.7151 17.159 54.1533 14.459 40.071C11.659 25.9886 14.659 13.4151 20.959 11.001C20.559 11.001 20.259 11.001 19.859 11.1016C12.759 12.5098 9.35902 25.6869 12.259 40.4733C15.159 55.3604 23.259 66.2239 30.359 64.8157Z" fill="#D68213"/>
</g>
<defs>
<filter id="filter0_f_2026_6813" x="3.40332" y="0.651855" width="52.5713" height="72.7651" filterUnits="userSpaceOnUse" color-interpolation-filters="sRGB">
<feFlood flood-opacity="0" result="BackgroundImageFix"/>
<feBlend mode="normal" in="SourceGraphic" in2="BackgroundImageFix" result="shape"/>
<feGaussianBlur stdDeviation="1" result="effect1_foregroundBlur_2026_6813"/>
</filter>
</defs>
</svg>
