<svg width="34" height="40" viewBox="0 0 34 40" fill="none" xmlns="http://www.w3.org/2000/svg">
<g filter="url(#filter0_f_2026_6847)">
<path d="M8.05449 36.612C10.6545 38.523 17.7545 33.2929 23.8545 24.9448C29.9545 16.5967 32.8545 8.14807 30.2545 6.23706L25.0545 2.41504L2.85449 32.79L8.05449 36.612Z" fill="#E0C224"/>
<path d="M9.45508 23.939L2.95508 32.79L8.15508 36.612C10.0551 38.0201 14.3551 35.6062 18.9551 30.8789L9.45508 23.939Z" fill="#E0A617"/>
<path d="M27.5551 19.3124C31.0551 13.0765 32.3551 7.74575 30.3551 6.23706L25.1551 2.41504L17.9551 12.2718L27.5551 19.3124Z" fill="#E0CA40"/>
<path d="M18.7547 21.1228C24.8547 12.7747 27.7547 4.32602 25.1547 2.41501C22.5547 0.504007 15.4547 5.73414 9.35469 14.0822C3.25469 22.4303 0.354694 30.879 2.95469 32.79C5.55469 34.701 12.6547 29.4709 18.7547 21.1228Z" fill="#E0B224"/>
<path d="M13.7549 8.75157C14.9549 9.85794 16.3549 11.0649 17.7549 12.0707C19.2549 13.1771 20.7549 14.384 22.3549 15.4904C25.8549 9.25446 27.1549 3.82318 25.1549 2.41506C23.1549 0.906373 18.5549 3.62202 13.7549 8.75157Z" fill="#E0C224"/>
<path d="M17.1163 19.8474C22.0607 13.0935 24.6991 6.60386 23.0093 5.35234C21.3194 4.10082 15.9412 8.56136 10.9967 15.3152C6.05225 22.0691 3.41385 28.5587 5.10371 29.8103C6.79357 31.0618 12.1718 26.6012 17.1163 19.8474Z" fill="#E08C08"/>
<path d="M10.3633 17.7624L11.4363 16.3301L16.0595 20.2071L14.9865 21.6394L10.3633 17.7624ZM9.53139 21.1037L17.9239 9.90128L19.6816 11.3753C20.2804 11.8774 20.5379 12.5407 20.4542 13.3651C20.3704 14.1895 19.9888 15.0552 19.3094 15.962C18.8139 16.6235 18.3196 17.1253 17.8265 17.4675C17.3402 17.8067 16.8646 17.9768 16.3996 17.9777C15.9375 17.9811 15.4926 17.8034 15.065 17.4448L12.3235 15.1458L13.3966 13.7135L16.091 15.973C16.4188 16.248 16.746 16.3225 17.0724 16.1967C17.4028 16.0655 17.7518 15.7546 18.1195 15.2638C18.4512 14.821 18.6391 14.4184 18.6832 14.0558C18.7302 13.6957 18.6097 13.3949 18.3217 13.1534L17.6845 12.619L10.6348 22.029L9.53139 21.1037Z" fill="#D68213"/>
<path d="M8.85842 17.874L9.93146 16.4417L14.5547 20.3186L13.4816 21.751L8.85842 17.874ZM8.0265 21.2153L16.419 10.0129L18.1768 11.4869C18.7755 11.989 19.033 12.6523 18.9493 13.4767C18.8655 14.3011 18.484 15.1667 17.8046 16.0736C17.309 16.7351 16.8147 17.2369 16.3216 17.579C15.8353 17.9183 15.3597 18.0883 14.8948 18.0893C14.4327 18.0926 13.9878 17.915 13.5601 17.5563L10.8187 15.2574L11.8917 13.8251L14.5861 16.0846C14.914 16.3595 15.2411 16.4341 15.5675 16.3083C15.8979 16.1771 16.2469 15.8661 16.6146 15.3754C16.9463 14.9326 17.1342 14.5299 17.1783 14.1674C17.2253 13.8072 17.1048 13.5064 16.8169 13.2649L16.1796 12.7306L9.12991 22.1406L8.0265 21.2153Z" fill="#FFE142"/>
<path d="M5.05487 29.8732C5.15487 29.9738 5.35487 30.0744 5.55487 30.0744C4.65487 28.1634 7.25487 22.1286 11.7549 15.9933C16.2549 9.75737 21.1549 5.53305 23.2549 5.83478C23.1549 5.63363 23.0549 5.53304 22.9549 5.43246C21.2549 4.12493 15.8549 8.65101 10.8549 15.3898C5.95487 22.0281 3.35487 28.5657 5.05487 29.8732Z" fill="#B76800"/>
</g>
<defs>
<filter id="filter0_f_2026_6847" x="0" y="0" width="33.2974" height="39.011" filterUnits="userSpaceOnUse" color-interpolation-filters="sRGB">
<feFlood flood-opacity="0" result="BackgroundImageFix"/>
<feBlend mode="normal" in="SourceGraphic" in2="BackgroundImageFix" result="shape"/>
<feGaussianBlur stdDeviation="1" result="effect1_foregroundBlur_2026_6847"/>
</filter>
</defs>
</svg>
