<svg width="111" height="82" viewBox="0 0 111 82" fill="none" xmlns="http://www.w3.org/2000/svg">
<g filter="url(#filter0_f_2043_7566)">
<path d="M72.1949 23.8902C73.4458 22.9521 91.2707 29.5191 91.2707 29.5191C91.2707 29.5191 74.6967 22.9521 73.4459 20.763C72.195 18.574 79.0747 2 79.0747 2C79.0747 2 72.5076 18.5739 70.6313 19.5121C68.755 20.4502 51.5557 13.8832 51.5557 13.8832C51.5557 13.8832 68.4423 21.0757 69.3805 22.6393C70.3186 24.2029 63.7516 41.4023 63.7516 41.4023C63.7516 41.4023 70.9441 24.8284 72.1949 23.8902Z" fill="#FFFFB8"/>
<path d="M2.14551 46.518L5.89815 61.2158C9.96348 77.1643 36.2317 84.3569 64.3762 77.1644C92.5208 69.9719 112.222 51.2088 108.469 35.2603L104.717 20.5625L2.14551 46.518Z" fill="#FFE142"/>
<path d="M82.2017 70.9107C100.652 61.8419 111.597 47.7696 108.47 35.5736L104.717 20.876L71.5693 29.3193L82.2017 70.9107Z" fill="#FFEA62"/>
<path d="M32.1664 39.0146L2.14551 46.5198L5.89815 61.2176C8.71261 72.7881 23.723 79.6679 42.486 79.9806L32.1664 39.0146Z" fill="#FFC433"/>
<path d="M60.9365 63.0923C89.081 55.8998 108.782 37.1368 105.03 21.1882C100.964 5.23959 74.696 -1.95293 46.5515 5.23957C18.4069 12.4321 -1.2943 31.1951 2.45831 47.1437C6.52363 63.0923 32.4792 70.2848 60.9365 63.0923Z" fill="#FFD042"/>
<path d="M72.194 31.1957C74.383 39.6391 75.9466 48.7079 78.1357 56.8386C96.586 47.7698 108.156 33.6975 105.029 21.1888C102.215 9.61828 87.2044 2.42578 68.4414 2.42578C68.4414 11.4946 69.6922 21.1888 72.194 31.1957Z" fill="#FFE142"/>
<path d="M58.7472 54.0237C81.5756 48.3948 97.8369 34.6352 95.0224 23.6901C92.208 12.745 71.5686 8.36698 48.7402 14.3086C25.9119 19.9375 9.65063 33.6971 12.4651 44.6422C14.9668 55.5873 35.9188 59.9654 58.7472 54.0237Z" fill="#FFA821"/>
<path d="M36.765 28.4376L41.7637 26.3036L51.9207 49.8874L46.922 52.0215L36.765 28.4376ZM30.363 37.3695L69.4591 20.6784L73.3208 29.645C74.6362 32.6994 74.6953 35.4722 73.4981 37.9635C72.3009 40.4547 70.1198 42.376 66.9549 43.7271C64.6464 44.7127 62.5225 45.1804 60.5834 45.1301C58.6691 45.0864 56.9799 44.5162 55.5157 43.4194C54.0578 42.3372 52.8591 40.7052 51.9195 38.5235L45.8967 24.5391L50.8955 22.405L56.8149 36.1495C57.5352 37.8221 58.4802 38.8392 59.6498 39.2008C60.838 39.5545 62.2885 39.3657 64.0012 38.6345C65.5465 37.9748 66.5938 37.1058 67.1433 36.0275C67.699 34.9637 67.6605 33.6973 67.0279 32.2284L65.6279 28.9777L32.7872 42.9982L30.363 37.3695Z" fill="#D47414"/>
<path d="M38.988 27.506L43.9867 25.3719L54.1436 48.9557L49.1449 51.0898L38.988 27.506ZM32.586 36.4379L71.682 19.7467L75.5437 28.7134C76.8592 31.7677 76.9183 34.5405 75.7211 37.0318C74.5238 39.5231 72.3428 41.4443 69.1778 42.7955C66.8693 43.7811 64.7455 44.2487 62.8063 44.1984C60.892 44.1548 59.2028 43.5845 57.7387 42.4878C56.2808 41.4055 55.082 39.7736 54.1424 37.5919L48.1197 23.6074L53.1184 21.4733L59.0378 35.2178C59.7581 36.8905 60.7031 37.9076 61.8727 38.2692C63.0609 38.6228 64.5114 38.434 66.2242 37.7028C67.7694 37.0431 68.8167 36.1741 69.3662 35.0958C69.9219 34.0321 69.8834 32.7657 69.2508 31.2967L67.8508 28.046L35.0101 42.0666L32.586 36.4379Z" fill="#FFD042"/>
<path d="M12.1524 44.643C12.1524 45.2684 12.4651 45.8938 12.7778 46.2065C11.8396 35.5742 27.7882 23.0655 49.3657 17.7493C70.9432 12.4331 90.9572 15.873 95.0225 25.5672C95.0225 24.9418 95.0225 24.3163 94.7098 24.0036C91.8953 13.0585 71.256 8.68046 48.4276 14.6221C25.912 20.251 9.65066 33.6979 12.1524 44.643Z" fill="#D68213"/>
</g>
<defs>
<filter id="filter0_f_2043_7566" x="0" y="0" width="111.001" height="81.9805" filterUnits="userSpaceOnUse" color-interpolation-filters="sRGB">
<feFlood flood-opacity="0" result="BackgroundImageFix"/>
<feBlend mode="normal" in="SourceGraphic" in2="BackgroundImageFix" result="shape"/>
<feGaussianBlur stdDeviation="1" result="effect1_foregroundBlur_2043_7566"/>
</filter>
</defs>
</svg>
