<svg width="61" height="50" viewBox="0 0 61 50" fill="none" xmlns="http://www.w3.org/2000/svg">
<g clip-path="url(#clip0_132_5945)">
<path d="M15.0946 43.7089V41.2174C15.1091 41.0078 15.0788 40.7976 15.0057 40.6007C14.9326 40.4038 14.8184 40.2247 14.6706 40.0754C14.5229 39.9261 14.345 39.81 14.1489 39.7348C13.9528 39.6596 13.7429 39.6271 13.5332 39.6394C13.2587 39.6214 12.9845 39.6774 12.739 39.8016C12.4936 39.9258 12.286 40.1136 12.1379 40.3453C12.0029 40.1205 11.8098 39.9363 11.5789 39.812C11.3479 39.6878 11.0877 39.6282 10.8257 39.6394C10.5973 39.6279 10.3699 39.6762 10.1659 39.7796C9.962 39.8831 9.78862 40.038 9.66299 40.2291V39.7391H8.79926V43.7089H9.6713V41.5246C9.65275 41.3889 9.66442 41.2507 9.70548 41.12C9.74653 40.9893 9.81596 40.8693 9.9088 40.7685C10.0016 40.6677 10.1156 40.5887 10.2425 40.5371C10.3694 40.4855 10.5062 40.4625 10.643 40.4699C11.2161 40.4699 11.5067 40.8436 11.5067 41.5163V43.7255H12.3788V41.5246C12.361 41.389 12.3732 41.2512 12.4145 41.1208C12.4559 40.9904 12.5253 40.8707 12.618 40.7701C12.7107 40.6695 12.8243 40.5905 12.9509 40.5386C13.0775 40.4867 13.2139 40.4633 13.3505 40.4699C13.9402 40.4699 14.2225 40.8436 14.2225 41.5163V43.7255L15.0946 43.7089ZM27.9967 39.7391H26.5765V38.5349H25.7044V39.7391H24.9155V40.5281H25.7211V42.3551C25.7211 43.277 26.0782 43.8251 27.0997 43.8251C27.4814 43.8264 27.8556 43.7199 28.1794 43.5178L27.9302 42.7787C27.6986 42.9169 27.4357 42.994 27.1662 43.0029C26.7509 43.0029 26.5931 42.7372 26.5931 42.3385V40.5281H28.005L27.9967 39.7391ZM35.3634 39.6394C35.1528 39.6332 34.9444 39.684 34.7602 39.7863C34.5761 39.8886 34.4229 40.0387 34.3169 40.2208V39.7391H33.4615V43.7089H34.3252V41.4831C34.3252 40.827 34.6076 40.4616 35.1557 40.4616C35.3405 40.4591 35.5239 40.493 35.6956 40.5613L35.9613 39.7308C35.7641 39.6602 35.5563 39.6237 35.3468 39.6228L35.3634 39.6394ZM24.2261 40.0547C23.7372 39.764 23.1751 39.6199 22.6066 39.6394C21.6017 39.6394 20.9456 40.1211 20.9456 40.9101C20.9456 41.5579 21.4273 41.9565 22.3159 42.0811L22.7312 42.1392C23.2046 42.2057 23.4288 42.3302 23.4288 42.5545C23.4288 42.8617 23.1132 43.0362 22.5236 43.0362C22.0493 43.0499 21.5841 42.9036 21.203 42.6209L20.7878 43.2936C21.2909 43.6449 21.8935 43.8254 22.507 43.8085C23.6531 43.8085 24.3175 43.2687 24.3175 42.5129C24.3175 41.7572 23.7943 41.4499 22.9305 41.3253L22.5153 41.2672C22.1415 41.2174 21.8425 41.1426 21.8425 40.8769C21.8425 40.6111 22.1249 40.4118 22.5983 40.4118C23.0359 40.4169 23.4648 40.5341 23.8441 40.7523L24.2261 40.0547ZM47.3602 39.6394C47.1496 39.6332 46.9412 39.684 46.7571 39.7863C46.5729 39.8886 46.4197 40.0387 46.3137 40.2208V39.7391H45.4583V43.7089H46.322V41.4831C46.322 40.827 46.6044 40.4616 47.1526 40.4616C47.3373 40.4591 47.5207 40.493 47.6924 40.5613L47.9582 39.7308C47.7609 39.6602 47.5531 39.6237 47.3436 39.6228L47.3602 39.6394ZM36.2313 41.7157C36.221 41.9946 36.2691 42.2727 36.3724 42.532C36.4758 42.7913 36.6321 43.0262 36.8315 43.2216C37.0308 43.4171 37.2688 43.5687 37.5301 43.6669C37.7914 43.7651 38.0704 43.8077 38.3491 43.7919C38.8677 43.8183 39.3774 43.6494 39.7776 43.3185L39.3623 42.6209C39.0637 42.8486 38.6996 42.9738 38.3242 42.978C38.0049 42.9522 37.707 42.8071 37.4899 42.5717C37.2727 42.3362 37.1521 42.0277 37.1521 41.7074C37.1521 41.3871 37.2727 41.0785 37.4899 40.843C37.707 40.6076 38.0049 40.4625 38.3242 40.4367C38.6996 40.4409 39.0637 40.5661 39.3623 40.7938L39.7776 40.0962C39.3774 39.7653 38.8677 39.5964 38.3491 39.6228C38.0704 39.607 37.7914 39.6496 37.5301 39.7478C37.2688 39.846 37.0308 39.9976 36.8315 40.1931C36.6321 40.3885 36.4758 40.6234 36.3724 40.8827C36.2691 41.142 36.221 41.4201 36.2313 41.6991V41.7157ZM44.3205 41.7157V39.7391H43.4568V40.2208C43.3101 40.032 43.1206 39.8809 42.904 39.7798C42.6874 39.6787 42.4499 39.6306 42.211 39.6394C41.6603 39.6394 41.1322 39.8582 40.7428 40.2475C40.3534 40.6369 40.1347 41.165 40.1347 41.7157C40.1347 42.2663 40.3534 42.7944 40.7428 43.1838C41.1322 43.5732 41.6603 43.7919 42.211 43.7919C42.4499 43.8007 42.6874 43.7526 42.904 43.6515C43.1206 43.5504 43.3101 43.3993 43.4568 43.2106V43.6922H44.3205V41.7157ZM41.1064 41.7157C41.1202 41.482 41.202 41.2574 41.3418 41.0697C41.4815 40.8819 41.6732 40.7391 41.8931 40.6589C42.113 40.5787 42.3516 40.5645 42.5794 40.6181C42.8073 40.6718 43.0145 40.7909 43.1755 40.9608C43.3365 41.1307 43.4443 41.344 43.4857 41.5744C43.527 41.8048 43.5 42.0422 43.4081 42.2575C43.3162 42.4728 43.1633 42.6565 42.9683 42.786C42.7733 42.9155 42.5447 42.9851 42.3106 42.9863C42.1462 42.9884 41.9832 42.9564 41.8317 42.8924C41.6802 42.8284 41.5436 42.7338 41.4305 42.6144C41.3174 42.4951 41.2302 42.3536 41.1745 42.199C41.1187 42.0443 41.0955 41.8797 41.1064 41.7157V41.7157ZM30.6834 39.6394C30.1327 39.6471 29.6077 39.8733 29.2237 40.2681C28.8398 40.6629 28.6285 41.1941 28.6362 41.7447C28.6439 42.2954 28.87 42.8204 29.2649 43.2043C29.6597 43.5883 30.1909 43.7996 30.7415 43.7919C31.339 43.8226 31.9265 43.6302 32.3901 43.2521L31.9749 42.6126C31.6469 42.8756 31.2407 43.0217 30.8204 43.0278C30.5349 43.0524 30.2511 42.9646 30.0293 42.7832C29.8075 42.6017 29.6653 42.3409 29.6328 42.0562H32.5811C32.5811 41.9482 32.5811 41.8402 32.5811 41.724C32.5811 40.4782 31.8087 39.6477 30.6959 39.6477L30.6834 39.6394ZM30.6834 40.4118C30.8126 40.409 30.9412 40.4318 31.0616 40.4787C31.1821 40.5256 31.2921 40.5958 31.3855 40.6853C31.4788 40.7747 31.5536 40.8817 31.6055 41.0001C31.6575 41.1185 31.6856 41.2459 31.6883 41.3752H29.612C29.6271 41.1086 29.7459 40.8585 29.943 40.6785C30.1402 40.4984 30.3999 40.4027 30.6668 40.4118H30.6834ZM52.3225 41.724V38.1445H51.492V40.2208C51.3453 40.032 51.1559 39.8809 50.9393 39.7798C50.7227 39.6787 50.4851 39.6306 50.2462 39.6394C49.6956 39.6394 49.1675 39.8582 48.7781 40.2475C48.3887 40.6369 48.1699 41.165 48.1699 41.7157C48.1699 42.2663 48.3887 42.7944 48.7781 43.1838C49.1675 43.5732 49.6956 43.7919 50.2462 43.7919C50.4851 43.8007 50.7227 43.7526 50.9393 43.6515C51.1559 43.5504 51.3453 43.3993 51.492 43.2106V43.6922H52.3225V41.724ZM53.7635 43.1317C53.8175 43.131 53.8711 43.1409 53.9213 43.1607C53.969 43.1802 54.0126 43.2083 54.05 43.2438C54.0865 43.2796 54.1161 43.3218 54.1372 43.3684C54.1582 43.4168 54.1691 43.4691 54.1691 43.522C54.1691 43.5748 54.1582 43.6271 54.1372 43.6756C54.1161 43.7222 54.0865 43.7644 54.05 43.8002C54.0126 43.8356 53.969 43.8638 53.9213 43.8833C53.8716 43.9052 53.8178 43.9165 53.7635 43.9165C53.6848 43.9159 53.6078 43.8929 53.5417 43.8503C53.4755 43.8076 53.4228 43.7471 53.3898 43.6756C53.369 43.6271 53.3582 43.5748 53.3582 43.522C53.3582 43.4692 53.369 43.4169 53.3898 43.3684C53.4109 43.3218 53.4405 43.2796 53.477 43.2438C53.5143 43.2083 53.558 43.1802 53.6057 43.1607C53.6598 43.1392 53.7178 43.1293 53.7759 43.1317H53.7635ZM53.7635 43.8334C53.8049 43.8337 53.846 43.8252 53.8839 43.8085C53.9196 43.7926 53.952 43.77 53.9794 43.7421C54.0314 43.6854 54.0602 43.6113 54.0602 43.5344C54.0602 43.4576 54.0314 43.3835 53.9794 43.3268C53.9521 43.2988 53.9197 43.2762 53.8839 43.2604C53.8459 43.2438 53.8049 43.2353 53.7635 43.2355C53.7221 43.2357 53.6811 43.2442 53.6431 43.2604C53.6057 43.2757 53.5719 43.2983 53.5434 43.3268C53.4915 43.3835 53.4626 43.4576 53.4626 43.5344C53.4626 43.6113 53.4915 43.6854 53.5434 43.7421C53.5719 43.7705 53.6058 43.7931 53.6431 43.8085C53.685 43.8266 53.7303 43.8351 53.7759 43.8334H53.7635ZM53.7884 43.3393C53.8272 43.3374 53.8654 43.3492 53.8964 43.3725C53.9091 43.383 53.9191 43.3964 53.9256 43.4116C53.9321 43.4268 53.9349 43.4432 53.9337 43.4597C53.9343 43.4735 53.9321 43.4873 53.9271 43.5001C53.9221 43.513 53.9144 43.5247 53.9047 43.5344C53.8806 43.5563 53.8499 43.5695 53.8175 43.5718L53.9379 43.7089H53.8424L53.7303 43.5718H53.6929V43.7089H53.614V43.3434L53.7884 43.3393ZM53.697 43.4099V43.5095H53.7884C53.8047 43.5144 53.822 43.5144 53.8382 43.5095C53.8412 43.5037 53.8427 43.4973 53.8427 43.4908C53.8427 43.4844 53.8412 43.478 53.8382 43.4722C53.8412 43.4664 53.8427 43.46 53.8427 43.4535C53.8427 43.447 53.8412 43.4406 53.8382 43.4348C53.822 43.4299 53.8047 43.4299 53.7884 43.4348L53.697 43.4099ZM49.1292 41.724C49.143 41.4903 49.2248 41.2658 49.3646 41.078C49.5043 40.8902 49.696 40.7474 49.9159 40.6672C50.1358 40.587 50.3744 40.5728 50.6022 40.6264C50.8301 40.6801 51.0373 40.7992 51.1983 40.9691C51.3593 41.139 51.4671 41.3523 51.5085 41.5827C51.5498 41.8131 51.5228 42.0505 51.4309 42.2658C51.339 42.4811 51.1861 42.6648 50.9911 42.7943C50.7961 42.9238 50.5675 42.9934 50.3334 42.9946C50.169 42.9967 50.006 42.9647 49.8545 42.9007C49.703 42.8367 49.5664 42.7421 49.4533 42.6227C49.3402 42.5034 49.253 42.3619 49.1973 42.2073C49.1415 42.0526 49.1183 41.888 49.1292 41.724V41.724ZM19.9656 41.724V39.7391H19.1018V40.2208C18.9551 40.032 18.7657 39.8809 18.5491 39.7798C18.3325 39.6787 18.0949 39.6306 17.8561 39.6394C17.3054 39.6394 16.7773 39.8582 16.3879 40.2475C15.9985 40.6369 15.7798 41.165 15.7798 41.7157C15.7798 42.2663 15.9985 42.7944 16.3879 43.1838C16.7773 43.5732 17.3054 43.7919 17.8561 43.7919C18.0949 43.8007 18.3325 43.7526 18.5491 43.6515C18.7657 43.5504 18.9551 43.3993 19.1018 43.2106V43.6922H19.9656V41.724ZM16.7515 41.724C16.7652 41.4903 16.847 41.2658 16.9868 41.078C17.1266 40.8902 17.3182 40.7474 17.5381 40.6672C17.7581 40.587 17.9966 40.5728 18.2245 40.6264C18.4523 40.6801 18.6595 40.7992 18.8205 40.9691C18.9816 41.139 19.0894 41.3523 19.1307 41.5827C19.1721 41.8131 19.1451 42.0505 19.0532 42.2658C18.9613 42.4811 18.8084 42.6648 18.6134 42.7943C18.4184 42.9238 18.1898 42.9934 17.9557 42.9946C17.7906 42.9979 17.6266 42.9668 17.4742 42.9033C17.3217 42.8398 17.1841 42.7453 17.0701 42.6258C16.9561 42.5064 16.8682 42.3645 16.8119 42.2093C16.7556 42.054 16.7322 41.8887 16.7432 41.724H16.7515Z" fill="#FEFEFF" fill-opacity="0.2"/>
<path d="M24.7702 21.2459C24.7678 18.9817 25.2806 16.7466 26.2699 14.7099C27.2591 12.6732 28.6988 10.8882 30.48 9.49026C28.2746 7.75711 25.6261 6.67936 22.8372 6.3802C20.0482 6.08104 17.2314 6.57253 14.7085 7.79851C12.1857 9.02449 10.0587 10.9355 8.57062 13.3131C7.08253 15.6907 6.29339 18.439 6.29339 21.2439C6.29339 24.0487 7.08253 26.797 8.57062 29.1746C10.0587 31.5522 12.1857 33.4632 14.7085 34.6892C17.2314 35.9152 20.0482 36.4067 22.8372 36.1075C25.6261 35.8083 28.2746 34.7306 30.48 32.9974C28.6994 31.5999 27.26 29.8156 26.2708 27.7797C25.2816 25.7437 24.7684 23.5095 24.7702 21.2459V21.2459Z" fill="#FEFEFF" fill-opacity="0.2"/>
<path d="M54.6689 21.2447C54.6688 24.0498 53.8795 26.7983 52.3911 29.176C50.9028 31.5537 48.7754 33.4646 46.2523 34.6904C43.7291 35.9162 40.912 36.4074 38.1229 36.1078C35.3338 35.8082 32.6853 34.7299 30.48 32.9962C32.2599 31.5975 33.6989 29.8127 34.6884 27.7766C35.6779 25.7406 36.192 23.5064 36.192 21.2427C36.192 18.9789 35.6779 16.7447 34.6884 14.7087C33.6989 12.6726 32.2599 10.8879 30.48 9.48906C32.6853 7.75537 35.3338 6.6771 38.1229 6.3775C40.912 6.07791 43.7291 6.56909 46.2523 7.79489C48.7754 9.02069 50.9028 10.9317 52.3911 13.3093C53.8795 15.687 54.6688 18.4355 54.6689 21.2406V21.2447Z" fill="#FEFEFF" fill-opacity="0.2"/>
<path d="M53.2404 30.5042V30.0225H53.4356V29.9229H52.9415V30.0225H53.1532V30.5042H53.2404ZM54.1997 30.5042V29.9229H54.0502L53.8758 30.3381L53.7014 29.9229H53.5685V30.5042H53.6765V30.0682L53.8384 30.4461H53.9505L54.1125 30.0682V30.5084L54.1997 30.5042Z" fill="#FEFEFF" fill-opacity="0.2"/>
</g>
<defs>
<clipPath id="clip0_132_5945">
<rect width="60.96" height="50" fill="white"/>
</clipPath>
</defs>
</svg>
