<svg width="88" height="30" viewBox="0 0 88 30" fill="none" xmlns="http://www.w3.org/2000/svg">
<path d="M74.3055 4.05918H69.8258C68.4373 4.05918 67.4002 4.46413 66.7875 5.94872L58.1792 26.8089H64.2689C64.2689 26.8089 65.2608 24.0037 65.486 23.3913C66.153 23.3913 72.0693 23.4 72.913 23.4C73.0873 24.1945 73.6184 26.8089 73.6184 26.8089H79L74.3055 4.05918ZM67.1546 18.731C67.6348 17.4231 69.4644 12.3687 69.4644 12.3687C69.4339 12.4312 69.9396 11.0524 70.2384 10.1957L70.6303 12.1588C70.6303 12.1588 71.739 17.5928 71.9733 18.731H67.1546ZM58.5892 19.3612C58.5453 24.0891 54.5844 27.1392 48.49 27.1392C45.8897 27.1114 43.3865 26.5606 42.0295 25.9274L42.8451 20.8301L43.592 21.1932C45.4969 22.0426 46.7311 22.3873 49.0515 22.3873C50.7181 22.3873 52.5038 21.6885 52.5195 20.1654C52.5293 19.1681 51.7719 18.4559 49.5157 17.3422C47.313 16.2505 44.3982 14.4249 44.435 11.1562C44.4675 6.73117 48.5044 3.64453 54.236 3.64453C56.4825 3.64453 58.2823 4.1385 59.4301 4.59967L58.6457 9.53402L58.122 9.27063C57.0551 8.81113 55.6814 8.3677 53.7822 8.39983C51.5132 8.39983 50.4584 9.41086 50.4584 10.3573C50.447 11.4232 51.6873 12.125 53.7163 13.1789C57.0645 14.8007 58.6109 16.7729 58.5892 19.3612ZM33.8824 4.0545L24.751 26.7751L18.6155 26.7841L13.4224 6.50527C17.1551 9.0618 20.3353 14.4155 21.4554 17.2357L22.0601 19.5804L27.7395 4.05785L33.8824 4.0545ZM36.2263 4.03643H42.0278L38.3992 26.7999H32.6013L36.2263 4.03643Z" fill="#FEFEFF" fill-opacity="0.2"/>
<path d="M9 3.22679L9.06024 2.86133H16.3383C17.3198 2.90082 18.1103 3.23214 18.383 4.34491L21.4026 15.2708C19.8474 11.05 14.663 4.68226 9 3.22679Z" fill="#FEFEFF" fill-opacity="0.2"/>
</svg>
