<svg width="78" height="30" viewBox="0 0 78 30" fill="none" xmlns="http://www.w3.org/2000/svg">
<g clip-path="url(#clip0_64_11243)">
<path d="M7.96447 10.8574H5.39938C2.87997 10.8574 0.742056 12.7761 0.742056 16.4995C0.742056 18.7341 1.77743 20.3817 3.62216 21.1938L0.180217 27.4225C0.0673719 27.6264 0.180217 27.7836 0.359542 27.7836H1.95676C2.09176 27.7836 2.18177 27.7386 2.22677 27.6264L5.35438 21.5098H6.47942V27.6264C6.47942 27.6932 6.54726 27.7836 6.63658 27.7836H8.03231C8.16698 27.7836 8.21198 27.7161 8.21198 27.6039V11.0838C8.21198 10.9253 8.12231 10.8574 7.96447 10.8574ZM6.47942 20.065H5.53438C4.04967 20.065 2.60962 18.9823 2.60962 16.2741C2.60962 13.4524 3.96001 12.3015 5.33188 12.3015H6.47942V20.065Z" fill="#FEFEFF" fill-opacity="0.2"/>
<path d="M16.4209 16.4688H15.0259C14.9137 16.4688 14.8459 16.5591 14.8459 16.6256V20.9367H12.2583V16.6256C12.2583 16.5131 12.2136 16.4688 12.1014 16.4688H10.7061C10.5939 16.4688 10.5267 16.5359 10.5267 16.6256V27.5947C10.5267 27.7072 10.5717 27.7747 10.6832 27.7747H12.1014C12.1915 27.7747 12.2583 27.7072 12.2583 27.5947V22.3586H14.8459V27.5943C14.8459 27.7068 14.9137 27.7743 15.0259 27.7743H16.4209C16.5331 27.7743 16.5781 27.6843 16.5781 27.5943V16.6256C16.5784 16.5359 16.5109 16.4688 16.4209 16.4688Z" fill="#FEFEFF" fill-opacity="0.2"/>
<path d="M48.2698 27.0528L48.0901 26.2854C48.0687 26.2179 48.0455 26.1957 47.9787 26.1957C47.8655 26.1957 47.258 26.4429 46.3804 26.4429C44.6707 26.4429 43.8378 24.7967 43.8378 22.1785C43.8378 19.876 44.536 17.597 45.7057 17.597C46.0207 17.597 46.4033 17.6867 47.0098 18.2515C47.0779 18.3197 47.1223 18.3422 47.1898 18.3422C47.2573 18.3422 47.3248 18.2962 47.3926 18.184L48.0001 17.1913C48.0451 17.1231 48.068 17.0549 48.068 16.9868C48.068 16.8974 47.978 16.8293 47.8426 16.7618C46.9198 16.2882 46.2908 16.1982 45.7504 16.1982C43.6353 16.1982 41.9924 18.7251 41.9924 22.6745C41.9924 26.0822 43.5675 28.0459 45.8172 28.0459C46.7633 28.0459 47.7751 27.5952 48.1808 27.301C48.2698 27.2331 48.292 27.1431 48.2698 27.0528Z" fill="#FEFEFF" fill-opacity="0.2"/>
<path d="M38.492 21.5681L41.1914 16.6259C41.2371 16.5584 41.2139 16.4688 41.1239 16.4688H39.7963C39.4145 16.4688 39.2792 16.6038 39.1448 16.8973L37.1191 21.1174C37.0069 21.3659 36.8947 21.5231 36.7822 21.5916V16.6259C36.7822 16.5362 36.7369 16.4688 36.6469 16.4688H35.1847C35.1172 16.4688 35.0497 16.5362 35.0497 16.6259V27.6165C35.0497 27.6847 35.0943 27.7743 35.1847 27.7743H36.6469C36.7369 27.7743 36.7822 27.7068 36.7822 27.6165V21.9526C36.8494 21.9976 36.8947 22.0648 36.9398 22.1558L39.5042 27.4365C39.6385 27.7068 39.841 27.7743 40.1345 27.7743H41.5749C41.6639 27.7743 41.6864 27.6847 41.6414 27.6165L38.492 21.5681Z" fill="#FEFEFF" fill-opacity="0.2"/>
<path d="M25.6009 26.3528H25.3306C24.9934 26.3528 24.9034 26.2174 24.9034 25.9464V16.6256C24.9034 16.5128 24.8584 16.4678 24.7681 16.4678H20.2683C20.1558 16.4678 20.0886 16.5356 20.0886 16.6256V17.4387C20.0886 20.169 19.9307 23.6893 18.491 26.3528H17.9957C17.8603 26.3528 17.8157 26.4203 17.8157 26.5331V29.8277C17.8157 29.9415 17.9057 29.9855 17.9732 29.9855H19.0529C19.3 29.9855 19.3897 29.8055 19.3897 29.6473V27.7744H24.2052V29.8277C24.2052 29.918 24.272 29.9855 24.3617 29.9855H25.5099C25.6446 29.9855 25.7796 29.8727 25.7796 29.6473V26.5331C25.7799 26.4203 25.7124 26.3528 25.6009 26.3528ZM23.1705 26.3528H19.9082C21.0558 24.3895 21.5058 22.1773 21.6633 19.4702C21.7083 18.8828 21.7312 18.2736 21.7312 17.8894H23.1709V26.3528H23.1705Z" fill="#FEFEFF" fill-opacity="0.2"/>
<path d="M30.1901 16.1973C27.761 16.1973 26.6807 19.2668 26.6807 22.607C26.6807 26.0148 28.21 28.0456 30.4605 28.0456C31.5627 28.0456 32.5302 27.6174 33.0245 27.3003C33.1145 27.2557 33.137 27.1871 33.1145 27.0978L32.9349 26.3304C32.912 26.2401 32.867 26.1954 32.7545 26.1954C32.6645 26.1954 32.0123 26.4426 31.0891 26.4426C29.3569 26.4426 28.5472 24.9314 28.5472 22.9449V22.411C28.5472 22.411 29.4247 22.5167 29.9423 22.5167H33.2274V21.5686C33.2277 18.0712 31.9895 16.1973 30.1901 16.1973ZM29.9426 21.0951C29.4251 21.0951 28.615 21.1854 28.615 21.1854C28.615 21.1854 28.615 20.8469 28.6601 20.4852C28.8622 18.5676 29.3347 17.5967 30.1226 17.5967C30.8426 17.5967 31.292 18.5891 31.4045 20.327C31.427 20.6884 31.427 21.0951 31.427 21.0951H29.9426Z" fill="#FEFEFF" fill-opacity="0.2"/>
<path d="M56.0579 14.2384C56.0579 12.6266 56.1929 11.6035 59.5308 9.11216C62.2947 7.04932 71.1528 0 71.1528 0V11.7672H77.8887V28.7032H58.1624C57.0049 28.7032 56.0579 27.7561 56.0579 26.5991V14.2384Z" fill="#FEFEFF" fill-opacity="0.2"/>
<path d="M58.7736 27.0178L74.4239 21.926V11.7676H71.1524V18.5861L58.7736 27.0178Z" fill="#030819"/>
<path d="M65.4956 11.4148C66.2193 10.5526 67.2765 10.2479 67.8568 10.735C68.4374 11.2222 68.3211 12.3165 67.5974 13.1787C66.8739 14.0412 65.8164 14.3449 65.2358 13.8581C64.6562 13.3713 64.7718 12.2773 65.4956 11.4148Z" fill="#030819"/>
</g>
<defs>
<clipPath id="clip0_64_11243">
<rect width="77.73" height="30" fill="white" transform="translate(0.13501)"/>
</clipPath>
</defs>
</svg>
