<svg width="69" height="69" viewBox="0 0 69 69" fill="none" xmlns="http://www.w3.org/2000/svg">
<g filter="url(#filter0_f_2043_7581)">
<path d="M49.9506 52.0909C59.9342 43.2892 60.8923 28.0607 52.0906 18.0772C43.289 8.09357 28.0605 7.13546 18.0769 15.9372C8.0933 24.7388 7.13517 39.9673 15.9369 49.9509C24.7386 59.9345 39.967 60.8926 49.9506 52.0909Z" fill="#FFD042"/>
<path d="M13.3438 21.5194C18.8108 23.9739 26.0629 25.4244 33.8729 25.4244C41.7944 25.4244 49.1581 23.9739 54.6251 21.5194C50.3854 14.602 42.7985 9.91601 33.9845 9.91601C25.2819 9.80444 17.5835 14.4904 13.3438 21.5194Z" fill="#FFE142"/>
<path d="M51.9126 41.5478C56.0951 31.6753 51.4825 20.2814 41.61 16.0989C31.7374 11.9164 20.3436 16.529 16.161 26.4015C11.9785 36.2741 16.5911 47.668 26.4637 51.8505C36.3362 56.033 47.7301 51.4204 51.9126 41.5478Z" fill="#D68213"/>
<path d="M48.6201 45.2178C54.8211 37.1604 53.3161 25.6017 45.2586 19.4008C37.2012 13.1998 25.6425 14.7048 19.4416 22.7623C13.2406 30.8197 14.7457 42.3784 22.8031 48.5793C30.8605 54.7803 42.4192 53.2752 48.6201 45.2178Z" fill="#FFA821"/>
<path d="M25.275 41.2329L25.2557 38.3993L42.3675 38.2827L42.3868 41.1162L25.275 41.2329ZM29.1075 46.1142L28.9565 23.9526L35.4625 23.9083C37.6786 23.8932 39.3972 24.425 40.6182 25.5037C41.8392 26.5824 42.4559 28.0187 42.4681 29.8127C42.477 31.1213 42.2155 32.2365 41.6835 33.1583C41.1621 34.0695 40.3753 34.7661 39.3232 35.2482C38.2817 35.7302 36.9695 35.9766 35.3865 35.9874L25.2397 36.0566L25.2204 33.223L35.1931 33.1551C36.4067 33.1468 37.2756 32.8981 37.8 32.4091C38.3243 31.9095 38.5831 31.1743 38.5765 30.2034C38.5705 29.3275 38.3073 28.6486 37.7869 28.1666C37.277 27.6846 36.4892 27.4473 35.4233 27.4545L33.0647 27.4706L33.1916 46.0863L29.1075 46.1142Z" fill="#D47414"/>
<path d="M25.2759 39.977L25.2566 37.1435L42.3685 37.0268L42.3878 39.8604L25.2759 39.977ZM29.1085 44.8583L28.9574 22.6968L35.4634 22.6524C37.6796 22.6373 39.3982 23.1691 40.6192 24.2478C41.8402 25.3265 42.4568 26.7629 42.4691 28.5569C42.478 29.8655 42.2165 30.9807 41.6845 31.9025C41.1631 32.8136 40.3763 33.5102 39.3242 33.9923C38.2827 34.4743 36.9704 34.7207 35.3875 34.7315L25.2407 34.8007L25.2213 31.9672L35.194 31.8992C36.4076 31.8909 37.2766 31.6423 37.801 31.1532C38.3252 30.6536 38.5841 29.9184 38.5775 28.9475C38.5715 28.0716 38.3083 27.3927 37.7879 26.9108C37.278 26.4288 36.4902 26.1914 35.4243 26.1987L33.0657 26.2148L33.1926 44.8305L29.1085 44.8583Z" fill="#FFD042"/>
</g>
<defs>
<filter id="filter0_f_2043_7581" x="7.91455" y="7.91406" width="52.1984" height="52.1992" filterUnits="userSpaceOnUse" color-interpolation-filters="sRGB">
<feFlood flood-opacity="0" result="BackgroundImageFix"/>
<feBlend mode="normal" in="SourceGraphic" in2="BackgroundImageFix" result="shape"/>
<feGaussianBlur stdDeviation="1" result="effect1_foregroundBlur_2043_7581"/>
</filter>
</defs>
</svg>
