<svg width="53" height="54" viewBox="0 0 53 54" fill="none" xmlns="http://www.w3.org/2000/svg">
<g filter="url(#filter0_f_2026_6829)">
<path d="M32.1696 32.6832C32.7317 32.9659 34.1369 41.447 34.1369 41.447C34.1369 41.447 33.0127 33.3899 33.7154 32.5418C34.418 31.6937 42.2874 30.7043 42.2874 30.7043C42.2874 30.7043 34.418 31.8351 33.5748 31.2697C32.7317 30.7043 31.6075 22.5059 31.6075 22.5059C31.6075 22.5059 32.4506 30.7043 32.0291 31.411C31.6075 32.1178 23.457 33.2486 23.457 33.2486C23.457 33.2486 31.467 32.4005 32.1696 32.6832Z" fill="#FFFFB8"/>
<path d="M9.82638 9.07739L4.908 13.742C-0.431948 18.8307 2.51907 30.7042 11.5127 40.3161C20.5063 49.928 32.1699 53.6032 37.5098 48.5145L42.4282 43.8499L9.82638 9.07739Z" fill="#FFE142"/>
<path d="M17.8359 45.829C25.4243 51.059 33.2937 52.3312 37.5094 48.3734L42.4278 43.7088L31.8884 32.542L17.8359 45.829Z" fill="#FFEA62"/>
<path d="M19.3815 19.1136L9.82577 8.93628L4.9074 13.6009C0.972699 17.276 1.5348 24.6263 5.61002 32.1179L19.3815 19.1136Z" fill="#FFC433"/>
<path d="M42.3035 43.9675C47.6665 38.8785 44.718 26.9733 35.7178 17.3765C26.7176 7.77978 15.0738 4.12556 9.7107 9.21463C4.34763 14.3037 7.29616 26.2089 16.2964 35.8057C25.2966 45.4024 36.9404 49.0566 42.3035 43.9675Z" fill="#FFD042"/>
<path d="M31.1861 33.1073C28.3756 35.793 25.1435 38.4787 22.333 41.1644C29.9214 46.5357 37.9313 47.8079 42.147 43.85C46.0817 40.1749 45.5196 32.6833 41.4444 25.1917C38.0718 27.3119 34.5587 29.9976 31.1861 33.1073Z" fill="#FFE142"/>
<path d="M19.2408 32.966C26.5481 40.7404 35.4012 44.1328 39.0549 40.599C42.7085 37.0652 39.898 28.0187 32.5907 20.2444C25.2834 12.47 16.4304 9.07756 12.7767 12.6114C9.12306 16.0038 12.0741 25.1917 19.2408 32.966Z" fill="#FFA821"/>
<path d="M25.7577 32.6706L24.0746 30.7868L33.3164 24.604L34.9995 26.4878L25.7577 32.6706ZM30.7244 34.5605L17.5606 19.8263L21.0744 17.4756C22.2713 16.6748 23.5203 16.4166 24.8214 16.7007C26.1225 16.9849 27.3059 17.7234 28.3715 18.9162C29.1488 19.7862 29.6648 20.6236 29.9194 21.4285C30.1736 22.2226 30.1567 22.9681 29.8688 23.6652C29.5866 24.3584 29.0181 24.991 28.1631 25.5629L22.683 29.2291L21 27.3453L26.386 23.742C27.0415 23.3035 27.3675 22.8275 27.3641 22.3141C27.3545 21.7937 27.0613 21.2107 26.4846 20.5652C25.9643 19.9829 25.4204 19.6238 24.8528 19.4878C24.2908 19.3481 23.722 19.4708 23.1464 19.8559L21.8725 20.7081L32.9301 33.0849L30.7244 34.5605Z" fill="#D68213"/>
<path d="M25.0048 34.9475L23.3217 33.0636L32.5635 26.8808L34.2466 28.7647L25.0048 34.9475ZM29.9715 36.8374L16.8077 22.1031L20.3215 19.7524C21.5184 18.9517 22.7674 18.6934 24.0685 18.9776C25.3696 19.2618 26.5529 20.0003 27.6186 21.193C28.3959 22.0631 28.9118 22.9005 29.1665 23.7054C29.4206 24.4994 29.4037 25.245 29.1159 25.942C28.8337 26.6352 28.2651 27.2678 27.4102 27.8398L21.9301 31.506L20.247 29.6221L25.6331 26.0188C26.2885 25.5803 26.6146 25.1044 26.6112 24.591C26.6016 24.0706 26.3084 23.4876 25.7317 22.8421C25.2114 22.2597 24.6675 21.9006 24.0998 21.7647C23.5379 21.625 22.9691 21.7477 22.3935 22.1328L21.1196 22.985L32.1772 35.3618L29.9715 36.8374Z" fill="#FFE142"/>
<path d="M12.777 12.6113C12.6364 12.7527 12.3554 13.0354 12.2148 13.1768C16.1495 10.4911 24.5811 14.0249 31.4668 21.3751C38.3525 28.7254 41.3035 37.3479 38.493 41.1644C38.7741 41.023 38.9146 40.8817 39.0551 40.7403C42.7088 37.2065 39.8983 28.16 32.591 20.3857C25.4242 12.47 16.5711 9.07754 12.777 12.6113Z" fill="#D68213"/>
</g>
<defs>
<filter id="filter0_f_2026_6829" x="0.236328" y="4.9187" width="46.7441" height="47.8865" filterUnits="userSpaceOnUse" color-interpolation-filters="sRGB">
<feFlood flood-opacity="0" result="BackgroundImageFix"/>
<feBlend mode="normal" in="SourceGraphic" in2="BackgroundImageFix" result="shape"/>
<feGaussianBlur stdDeviation="1" result="effect1_foregroundBlur_2026_6829"/>
</filter>
</defs>
</svg>
