<svg width="128" height="95" viewBox="0 0 128 95" fill="none" xmlns="http://www.w3.org/2000/svg">
<g filter="url(#filter0_f_2043_7554)">
<path d="M2.62606 35.1461C-1.87394 44.3461 18.5261 63.5461 48.2261 77.9461C77.9261 92.3461 105.526 96.5461 110.026 87.3461L118.926 69.0461L11.5261 16.7461L2.62606 35.1461Z" fill="#FFE142"/>
<path d="M42.9261 32.0467L11.5261 16.8467L2.62606 35.1467C-0.673936 41.9467 9.32607 53.9467 26.6261 65.6467L42.9261 32.0467Z" fill="#FFC433"/>
<path d="M67.7256 86.1465C89.2256 93.6465 106.626 94.5465 110.026 87.3465L118.926 69.0465L84.2256 52.1465L67.7256 86.1465Z" fill="#FFEA62"/>
<path d="M118.941 68.907C123.43 59.6679 103.029 40.4977 73.3748 26.0892C43.7203 11.6807 16.0414 7.49009 11.5524 16.7292C7.06328 25.9683 27.4639 45.1384 57.1184 59.5469C86.7728 73.9554 114.452 78.1461 118.941 68.907Z" fill="#FFD042"/>
<path d="M92.6258 36.9473C89.7258 41.4473 87.0258 46.3473 84.5258 51.4473C81.9258 56.8473 79.1258 62.3473 76.4258 67.7473C97.9258 75.2473 115.426 76.1473 118.926 69.0473C122.426 61.9473 111.326 49.0473 92.6258 36.9473Z" fill="#FFE142"/>
<path d="M108.598 63.8807C111.542 57.8206 94.5205 43.4776 70.5783 31.8446C46.6362 20.2116 24.8403 15.6938 21.8959 21.7539C18.9514 27.8139 35.9734 42.157 59.9155 53.79C83.8577 65.423 105.654 69.9407 108.598 63.8807Z" fill="#FFA821"/>
<path d="M51.4539 28.4792L57.3474 31.5997L50.9523 44.1919L45.0589 41.0713L51.4539 28.4792ZM39.8276 25.8705L85.9216 50.2771L83.4902 55.0647C82.662 56.6955 80.8907 57.3589 78.1763 57.0549C75.462 56.7509 72.2391 55.611 68.5077 53.6352C65.7859 52.194 63.5708 50.7699 61.8623 49.3627C60.1719 47.9749 59.03 46.6312 58.4366 45.3316C57.8394 44.0398 57.8365 42.8115 58.4281 41.6466L62.2202 34.1798L68.1136 37.3004L64.3866 44.639C63.9331 45.5321 64.1125 46.4401 64.925 47.363C65.7595 48.2975 67.1864 49.2994 69.2057 50.3687C71.0275 51.3333 72.5399 51.8927 73.7428 52.0468C74.9418 52.2086 75.7405 51.8974 76.1388 51.1131L77.0203 49.3774L38.3013 28.8759L39.8276 25.8705Z" fill="#D47414"/>
<path d="M54.0635 29.8698L59.9569 32.9903L53.5619 45.5825L47.6684 42.462L54.0635 29.8698ZM42.4371 27.2611L88.5312 51.6677L86.0998 56.4553C85.2715 58.0861 83.5002 58.7495 80.7859 58.4455C78.0715 58.1415 74.8486 57.0016 71.1172 55.0258C68.3955 53.5847 66.1804 52.1605 64.4719 50.7533C62.7814 49.3655 61.6395 48.0218 61.0462 46.7223C60.4489 45.4304 60.4461 44.2021 61.0377 43.0372L64.8297 35.5705L70.7232 38.691L66.9962 46.0297C66.5426 46.9227 66.7221 47.8307 67.5346 48.7536C68.369 49.6882 69.7959 50.69 71.8153 51.7593C73.6371 52.7239 75.1495 53.2833 76.3524 53.4374C77.5514 53.5993 78.35 53.288 78.7484 52.5037L79.6298 50.768L40.9108 30.2665L42.4371 27.2611Z" fill="#FFD042"/>
<path d="M21.9261 21.8469C21.6261 22.3469 21.6261 22.9469 21.6261 23.5469C27.1261 19.6469 47.2261 24.3469 69.1261 34.9469C91.0261 45.5469 107.126 58.4469 107.526 65.2469C108.026 64.8469 108.426 64.4469 108.726 63.9469C111.626 57.8469 94.6261 43.5469 70.7261 31.9469C46.6261 20.2469 24.8261 15.7469 21.9261 21.8469Z" fill="#D68213"/>
</g>
<defs>
<filter id="filter0_f_2043_7554" x="0" y="9.82227" width="121.568" height="84.4648" filterUnits="userSpaceOnUse" color-interpolation-filters="sRGB">
<feFlood flood-opacity="0" result="BackgroundImageFix"/>
<feBlend mode="normal" in="SourceGraphic" in2="BackgroundImageFix" result="shape"/>
<feGaussianBlur stdDeviation="1" result="effect1_foregroundBlur_2043_7554"/>
</filter>
</defs>
</svg>
