<svg width="51" height="39" viewBox="0 0 51 39" fill="none" xmlns="http://www.w3.org/2000/svg">
<g filter="url(#filter0_f_64_9170)">
<path d="M33.1392 14.1765C33.6782 13.7723 41.3593 16.6021 41.3593 16.6021C41.3593 16.6021 34.2173 13.7723 33.6782 12.829C33.1392 11.8857 36.1038 4.74365 36.1038 4.74365C36.1038 4.74365 33.2739 11.8857 32.4654 12.2899C31.6569 12.6942 24.2454 9.86434 24.2454 9.86434C24.2454 9.86434 31.5221 12.9637 31.9264 13.6375C32.3307 14.3112 29.5008 21.7228 29.5008 21.7228C29.5008 21.7228 32.6002 14.5808 33.1392 14.1765Z" fill="#FFFFB8"/>
<path d="M2.95435 21.7228L4.57143 28.0563C6.32324 34.9288 17.6427 38.0282 29.7706 34.9288C41.8986 31.8294 50.3882 23.7441 48.7711 16.8716L47.1541 10.5381L2.95435 21.7228Z" fill="#FFE142"/>
<path d="M37.4519 32.2337C45.4025 28.3258 50.1189 22.2618 48.7713 17.0063L47.1543 10.6729L32.8702 14.3112L37.4519 32.2337Z" fill="#FFEA62"/>
<path d="M15.8909 18.4885L2.95435 21.7226L4.57143 28.0562C5.78422 33.0421 12.2525 36.0067 20.3378 36.1415L15.8909 18.4885Z" fill="#FFC433"/>
<path d="M28.2886 28.8647C40.4166 25.7653 48.9061 17.68 47.2891 10.8075C45.5372 3.93495 34.2178 0.835569 22.0898 3.93494C9.96187 7.03431 1.47228 15.1196 3.08934 21.9921C4.84116 28.8647 16.0259 31.964 28.2886 28.8647Z" fill="#FFD042"/>
<path d="M33.1397 15.1196C34.083 18.758 34.7568 22.6659 35.7001 26.1696C43.6507 22.2617 48.6366 16.1977 47.2891 10.8075C46.0763 5.82154 39.608 2.72217 31.5227 2.72217C31.5227 6.63007 32.0617 10.8075 33.1397 15.1196Z" fill="#FFE142"/>
<path d="M27.3451 24.9568C37.1823 22.5312 44.1895 16.602 42.9767 11.8855C41.7639 7.16911 32.8701 5.28254 23.0329 7.84289C13.1958 10.2685 6.18854 16.1977 7.40134 20.9142C8.47939 25.6306 17.508 27.5172 27.3451 24.9568Z" fill="#FFA821"/>
<path d="M21.0774 14.075L23.4653 13.1102L26.1984 23.72L23.8104 24.6849L21.0774 14.075ZM17.5487 18.1016L36.2252 10.5553L37.2643 14.5891C37.6182 15.9632 37.4341 17.2116 36.7119 18.3342C35.9897 19.4568 34.8726 20.3235 33.3607 20.9344C32.2579 21.38 31.2767 21.5922 30.417 21.5712C29.5679 21.553 28.8589 21.2977 28.2902 20.8051C27.7231 20.319 27.3131 19.5852 27.0603 18.6037L25.4397 12.3124L27.8276 11.3476L29.4204 17.5309C29.6143 18.2834 29.9579 18.7406 30.4512 18.9024C30.9535 19.0607 31.6138 18.9745 32.432 18.6439C33.1701 18.3457 33.7025 17.9536 34.029 17.4677C34.3572 16.9883 34.4362 16.4182 34.2659 15.7573L33.8892 14.2949L18.201 20.6338L17.5487 18.1016Z" fill="#D68213"/>
<path d="M19.1554 12.6402L21.5433 11.6754L24.2764 22.2852L21.8884 23.25L19.1554 12.6402ZM15.6267 16.6668L34.3032 9.12045L35.3423 13.1543C35.6962 14.5284 35.5121 15.7767 34.7899 16.8993C34.0677 18.0219 32.9507 18.8887 31.4387 19.4996C30.3359 19.9452 29.3547 20.1574 28.495 20.1364C27.6459 20.1182 26.9369 19.8629 26.3682 19.3702C25.8011 18.8842 25.3911 18.1504 25.1383 17.1689L23.5177 10.8776L25.9056 9.91278L27.4984 16.0961C27.6923 16.8486 28.0359 17.3057 28.5292 17.4676C29.0315 17.6259 29.6918 17.5397 30.51 17.2091C31.2481 16.9108 31.7805 16.5188 32.107 16.0328C32.4352 15.5535 32.5142 14.9833 32.3439 14.3225L31.9672 12.8601L16.279 19.199L15.6267 16.6668Z" fill="#FFE142"/>
<path d="M7.26668 20.9142C7.26668 21.1837 7.40141 21.4532 7.53617 21.5879C7.1319 17.0063 14.0044 11.616 23.3026 9.32521C32.6007 7.03437 41.225 8.51668 42.9768 12.6941C42.9768 12.4246 42.9768 12.1551 42.8421 12.0203C41.6293 7.30388 32.7354 5.4173 22.8983 7.97765C13.1959 10.4033 6.18864 16.1977 7.26668 20.9142Z" fill="#D68213"/>
</g>
<defs>
<filter id="filter0_f_64_9170" x="0.891846" y="0.722168" width="50.1082" height="37.4194" filterUnits="userSpaceOnUse" color-interpolation-filters="sRGB">
<feFlood flood-opacity="0" result="BackgroundImageFix"/>
<feBlend mode="normal" in="SourceGraphic" in2="BackgroundImageFix" result="shape"/>
<feGaussianBlur stdDeviation="1" result="effect1_foregroundBlur_64_9170"/>
</filter>
</defs>
</svg>
