<svg width="50" height="50" viewBox="0 0 50 50" fill="none" xmlns="http://www.w3.org/2000/svg">
<g clip-path="url(#clip0_64_11193)">
<path d="M29.7121 35.3029C29.7121 34.8743 29.5378 34.5533 29.1906 34.3375C28.8435 34.1236 28.3547 34.0161 27.7257 34.0161H25.8392V38.6856H28.0296C28.6122 38.6856 29.0668 38.5735 29.3919 38.3487C29.7171 38.1242 29.88 37.7934 29.88 37.3569C29.88 37.1031 29.7968 36.8778 29.6305 36.6809C29.4641 36.4844 29.232 36.3493 28.9354 36.2773C29.1823 36.1886 29.3737 36.0581 29.5093 35.8872C29.6441 35.716 29.7121 35.5213 29.7121 35.3029ZM26.7094 34.685H27.7257C28.093 34.685 28.371 34.7412 28.5594 34.8528C28.7478 34.9637 28.8424 35.1297 28.8424 35.35C28.8424 35.5643 28.7482 35.7246 28.5617 35.8295C28.3752 35.9359 28.0976 35.9883 27.7291 35.9883H26.7094V34.685ZM29.0053 37.3351C29.0053 37.5603 28.9229 37.7315 28.7584 37.8515C28.5936 37.9711 28.3509 38.0307 28.0296 38.0307H26.7094V36.6402H28.0296C28.3509 36.6402 28.5936 36.7017 28.7584 36.822C28.9229 36.9431 29.0053 37.1144 29.0053 37.3351ZM31.9397 35.0799C32.1361 34.7593 32.4619 34.5993 32.9177 34.5993C33.2326 34.5993 33.4935 34.6989 33.699 34.8992C33.906 35.0992 34.0081 35.3417 34.0081 35.6262H34.7943L34.8027 35.6009C34.8149 35.132 34.6436 34.7363 34.2884 34.4141C33.9341 34.092 33.4772 33.9305 32.9177 33.9305C32.2257 33.9305 31.6947 34.1531 31.3259 34.5975C30.9564 35.0426 30.7718 35.5971 30.7718 36.2611V36.4429C30.7718 37.1125 30.956 37.6697 31.3233 38.1129C31.6917 38.5558 32.2234 38.7776 32.9177 38.7776C33.424 38.7776 33.8676 38.6211 34.2497 38.3076C34.6303 37.9937 34.8133 37.6357 34.7989 37.2324L34.7906 37.2068H34.0081C34.0081 37.4595 33.8991 37.6734 33.68 37.8473C33.4605 38.022 33.2067 38.108 32.9177 38.108C32.4585 38.108 32.1315 37.9496 31.9374 37.6323C31.7433 37.3147 31.6465 36.9171 31.6465 36.4403V36.2596C31.6469 35.7929 31.7437 35.4002 31.9397 35.0799ZM12.6374 28.5545H37.2794C38.4139 28.5545 39.3331 27.6412 39.3331 26.5152V6.79893C39.3331 5.67212 38.4139 4.75921 37.2794 4.75921L25.129 0L12.637 4.75921C11.5022 4.75921 10.5834 5.67212 10.5834 6.79893V26.5152C10.5838 27.6412 11.5026 28.5545 12.6374 28.5545ZM24.9584 4.07905L36.1468 12.2315H13.7689L24.9584 4.07905ZM15.5589 14.3482L15.1115 13.5733H20.482L20.0346 14.3482H19.1398V23.1332H16.4545V14.3482H15.5589ZM35.2042 23.7372V24.4555H14.7127V23.7372H35.2042ZM22.7202 14.3482L22.2732 13.5733H27.6437L27.1963 14.3482H26.3007V23.1332H23.6154V14.3482H22.7202ZM29.8815 14.3482L29.4333 13.5733H34.805L34.3568 14.3482H33.4616V23.1332H30.7767V14.3482H29.8815ZM13.3215 25.1168H36.595V25.8354H13.3215V25.1168ZM47.6494 33.2526C48.0523 33.2526 48.3733 33.1481 48.6118 32.938C48.8507 32.7275 48.9635 32.4563 48.9517 32.1217L48.943 32.096H48.2764C48.2764 32.2835 48.2248 32.4359 48.1222 32.5555C48.0185 32.6747 47.8613 32.735 47.6497 32.735C47.4321 32.735 47.273 32.6762 47.1723 32.5585C47.0717 32.4404 47.0223 32.2865 47.0223 32.096H46.355L46.3466 32.1217C46.3318 32.4563 46.4435 32.7275 46.6824 32.938C46.9205 33.1481 47.243 33.2526 47.6494 33.2526ZM24.9584 7.18748C23.9694 7.18748 23.168 7.98194 23.168 8.96313C23.168 9.94432 23.9694 10.7395 24.9584 10.7395C25.9471 10.7395 26.7485 9.94432 26.7485 8.96313C26.7485 7.98194 25.9471 7.18748 24.9584 7.18748ZM2.87215 34.8887H1.28683V33.0712H4.35986V32.4031H0.416687V38.6859H2.87215C3.55505 38.6859 4.0883 38.5094 4.47077 38.1555C4.85324 37.8017 5.04428 37.3403 5.04428 36.7703C5.04428 36.2033 4.85362 35.748 4.47267 35.4044C4.0921 35.0599 3.55809 34.8887 2.87215 34.8887ZM3.84826 37.6534C3.63025 37.896 3.30513 38.0171 2.87215 38.0171H1.28683V35.5571H2.87215C3.30779 35.5571 3.63405 35.6718 3.85054 35.9016C4.06665 36.1313 4.1749 36.4169 4.1749 36.7586C4.17528 37.1132 4.06589 37.4105 3.84826 37.6534ZM34.6884 43.4485C34.0321 43.4485 33.5125 43.6722 33.1293 44.1193C32.7476 44.567 32.5565 45.1359 32.5565 45.8266V45.9209C32.5565 46.6147 32.7479 47.1836 33.1323 47.6283C33.5163 48.0723 34.0385 48.2953 34.6975 48.2953C35.3568 48.2953 35.8776 48.0731 36.2608 47.6298C36.6429 47.1873 36.8351 46.6173 36.8351 45.9209V45.8266C36.8351 45.1329 36.6425 44.5636 36.2585 44.1178C35.8745 43.6715 35.3511 43.4485 34.6884 43.4485ZM35.9649 45.9198C35.9649 46.414 35.8574 46.821 35.6425 47.1439C35.4279 47.4657 35.1126 47.6261 34.6975 47.6261C34.2774 47.6261 33.9591 47.4654 33.7461 47.1439C33.5322 46.821 33.4255 46.4136 33.4255 45.9198V45.8248C33.4255 45.3359 33.5319 44.9292 33.7461 44.6051C33.9591 44.28 34.2732 44.1181 34.6884 44.1181C35.1073 44.1181 35.4241 44.28 35.6406 44.6051C35.8571 44.9292 35.9649 45.3362 35.9649 45.8248V45.9198ZM30.7186 45.7957C30.9655 45.7071 31.1577 45.5765 31.2929 45.4053C31.4285 45.2344 31.4961 45.0393 31.4961 44.8213C31.4961 44.392 31.3221 44.071 30.975 43.8556C30.6275 43.6421 30.139 43.5342 29.5089 43.5342H27.6232V48.2036H29.8135C30.3965 48.2036 30.8504 48.0912 31.1759 47.8667C31.5014 47.6423 31.664 47.3118 31.664 46.8746C31.664 46.6215 31.5808 46.3959 31.4144 46.199C31.2481 46.0032 31.016 45.8685 30.7186 45.7957ZM28.4933 44.2038H29.5089C29.8773 44.2038 30.155 44.2596 30.343 44.3713C30.5317 44.4825 30.6263 44.6485 30.6263 44.8681C30.6263 45.0823 30.5325 45.2427 30.3456 45.3479C30.1592 45.4539 29.8811 45.5071 29.5131 45.5071H28.4933V44.2038ZM30.542 47.3692C30.3768 47.4887 30.1345 47.5487 29.8131 47.5487H28.4929V46.1582H29.8131C30.1345 46.1582 30.3768 46.2193 30.542 46.3401C30.7072 46.4608 30.7893 46.632 30.7893 46.8531C30.7896 47.0779 30.7072 47.25 30.542 47.3692ZM24.6865 43.4485C24.1335 43.4485 23.6538 43.6692 23.2489 44.111C22.8448 44.5531 22.642 45.1057 22.642 45.7708V45.9606C22.642 46.6509 22.8387 47.2126 23.2314 47.646C23.6245 48.0787 24.154 48.2956 24.8194 48.2956C25.2163 48.2956 25.5555 48.2402 25.8347 48.1304C26.1146 48.0203 26.339 47.8822 26.5107 47.7181L26.17 47.1643C26.0082 47.3088 25.8168 47.4212 25.5939 47.5027C25.372 47.5849 25.113 47.6261 24.8194 47.6261C24.4157 47.6261 24.102 47.4823 23.8783 47.1937C23.6545 46.9052 23.5379 46.5373 23.5296 46.0892L23.5425 46.0681H26.6425V45.5369C26.6425 44.9047 26.4773 44.3977 26.1476 44.0182C25.8187 43.6383 25.3314 43.4485 24.6865 43.4485ZM25.7735 45.3988H23.5691L23.5607 45.3773C23.6078 45.0167 23.7347 44.7164 23.9405 44.4765C24.1472 44.237 24.3959 44.1178 24.6869 44.1178C25.0462 44.1178 25.317 44.2294 25.4997 44.4527C25.6816 44.6768 25.7739 44.9548 25.7739 45.2872V45.3988H25.7735ZM39.9396 38.6859L39.9525 38.6644L37.93 36.252L39.8025 34.0384L39.7892 34.0161H38.7687L37.1928 35.9887H36.6896V34.0161H35.8191V38.6856H36.6896V36.7051H37.2589L38.8712 38.6856H39.9396V38.6859ZM41.463 37.34L41.4361 37.3309V34.0165H40.5705V38.6859H41.4361L43.5474 35.3629L43.5729 35.3719V38.6856H44.4434V34.0161H43.5729L41.463 37.34ZM48.7132 34.0165L46.6022 37.3403L46.576 37.3313V34.0169H45.7112V38.6863H46.576L48.687 35.3632L48.7132 35.3723V38.6859H49.5834V34.0165H48.7132ZM14.0047 38.6859H14.8745V34.0165H14.0047V36.0362H11.8763V34.0165H11.0058V38.6859H11.8763V36.7054H14.0047V38.6859ZM24.7704 36.4033V36.3082C24.7704 35.6152 24.579 35.0452 24.1943 34.5993C23.8095 34.1534 23.2869 33.9301 22.6241 33.9301C21.9678 33.9301 21.4479 34.1538 21.0654 34.602C20.6825 35.049 20.4915 35.6175 20.4915 36.3082V36.4033C20.4915 37.0963 20.6833 37.6655 21.068 38.1099C21.452 38.5543 21.9739 38.7769 22.6332 38.7769C23.2922 38.7769 23.8141 38.555 24.1962 38.1122C24.5794 37.6689 24.7704 37.0997 24.7704 36.4033ZM23.901 36.401C23.901 36.8952 23.7932 37.303 23.5786 37.6251C23.3636 37.9469 23.0484 38.1073 22.6332 38.1073C22.2124 38.1073 21.8957 37.9466 21.6814 37.6251C21.468 37.303 21.362 36.8948 21.362 36.401V36.3063C21.362 35.8178 21.468 35.4104 21.6814 35.0867C21.8953 34.7612 22.2094 34.5993 22.6241 34.5993C23.0423 34.5993 23.3602 34.7612 23.5759 35.0867C23.7924 35.4104 23.9007 35.8178 23.9007 36.3063V36.401H23.901ZM14.764 43.4485C14.2106 43.4485 13.7313 43.6692 13.3268 44.111C12.9215 44.5531 12.7195 45.1057 12.7195 45.7708V45.9606C12.7195 46.6509 12.9162 47.2126 13.3085 47.646C13.7013 48.0787 14.2311 48.2956 14.8961 48.2956C15.2938 48.2956 15.6322 48.2402 15.9121 48.1304C16.1917 48.0203 16.4169 47.8822 16.5874 47.7181L16.2475 47.1643C16.0861 47.3088 15.8931 47.4212 15.6713 47.5027C15.4488 47.5849 15.1909 47.6261 14.8958 47.6261C14.4924 47.6261 14.1794 47.4823 13.9554 47.1937C13.7313 46.9052 13.6154 46.5373 13.6063 46.0892L13.62 46.0681H16.72V45.5369C16.72 44.9047 16.5548 44.3977 16.2255 44.0182C15.8958 43.6383 15.4093 43.4485 14.764 43.4485ZM15.8506 45.3988H13.6473L13.639 45.3773C13.6857 45.0167 13.8126 44.7164 14.0188 44.4765C14.2246 44.237 14.4734 44.1178 14.7647 44.1178C15.1237 44.1178 15.3952 44.2294 15.5779 44.4527C15.7602 44.6768 15.8514 44.9548 15.8514 45.2872V45.3988H15.8506ZM8.8739 37.9865C8.87655 38.0959 8.88605 38.205 8.90276 38.3128C8.91871 38.4204 8.9415 38.5448 8.97075 38.6856H9.86709C9.82 38.5362 9.78772 38.3834 9.77024 38.228C9.75239 38.0725 9.74366 37.9118 9.74366 37.7447V35.4968C9.74366 34.9902 9.57882 34.6031 9.24877 34.3334C8.91909 34.0648 8.48345 33.9297 7.94184 33.9297C7.39492 33.9297 6.94712 34.0716 6.60188 34.3534C6.25625 34.6348 6.09217 34.946 6.10927 35.2859L6.11876 35.3108H6.94902C6.94902 35.1154 7.03638 34.9479 7.21147 34.8083C7.38694 34.6688 7.61407 34.599 7.89361 34.599C8.20543 34.599 8.44699 34.6789 8.61791 34.8381C8.78844 34.9981 8.8739 35.2146 8.8739 35.4881V35.9502H7.92855C7.29541 35.9502 6.79406 36.0758 6.42527 36.3278C6.05533 36.5795 5.87113 36.9284 5.87113 37.3747C5.87113 37.8115 6.0014 38.1544 6.26157 38.4038C6.5225 38.652 6.90117 38.7769 7.39872 38.7769C7.69952 38.7769 7.97983 38.701 8.24037 38.5501C8.50092 38.3989 8.71172 38.211 8.8739 37.9865ZM6.93915 37.8798C6.80659 37.7598 6.74051 37.5957 6.74051 37.389C6.74051 37.1566 6.8461 36.9544 7.05689 36.782C7.26692 36.6096 7.5476 36.5236 7.89779 36.5236H8.8739V37.2819C8.79717 37.4844 8.63234 37.6663 8.37938 37.8232C8.12605 37.9813 7.84158 38.0605 7.52709 38.0605C7.2673 38.0605 7.07208 37.9997 6.93915 37.8798ZM19.8952 43.4485C19.5868 43.4485 19.3156 43.5074 19.0832 43.6255C18.8507 43.7432 18.6559 43.9148 18.5002 44.1389L18.3634 43.5346H17.6961V50H18.5666V47.7166C18.7223 47.909 18.9115 48.0542 19.1341 48.15C19.3559 48.2466 19.6149 48.2953 19.9089 48.2953C20.4888 48.2953 20.9435 48.0882 21.2731 47.6751C21.6032 47.2628 21.7677 46.7196 21.7677 46.0466V45.9557C21.7677 45.2019 21.6036 44.5957 21.2754 44.1366C20.9476 43.6779 20.4869 43.4485 19.8952 43.4485ZM20.8983 46.0447C20.8983 46.5098 20.7919 46.8893 20.58 47.1843C20.3677 47.4782 20.0559 47.6264 19.6438 47.6264C19.3882 47.6264 19.1713 47.5729 18.995 47.4642C18.8181 47.3563 18.6756 47.2062 18.5666 47.0142V44.7598C18.6756 44.567 18.8181 44.4154 18.995 44.3049C19.1713 44.1951 19.3844 44.1393 19.635 44.1393C20.0505 44.1393 20.3646 44.3098 20.5777 44.6504C20.7912 44.9899 20.8983 45.4249 20.8983 45.9545V46.0447ZM20.3103 38.6859L20.324 38.6644L18.3019 36.252L20.1736 34.0384L20.1607 34.0161H19.1405L17.5635 35.9887H17.0603V34.0161H16.1905V38.6856H17.0603V36.7051H17.63L19.2427 38.6856H20.3103V38.6859ZM7.77435 48.204H8.64373V44.2038H10.7767V48.204H11.6465V43.5346H7.77435V48.204ZM41.8596 43.5346H38.7379L38.6669 45.2891C38.6228 45.91 38.5358 46.3706 38.4063 46.6709C38.2768 46.9708 38.09 47.2594 37.845 47.5355H37.4701L37.5533 49.576H38.3395V48.2036H41.6248V49.576H42.411L42.4954 47.5355H41.8588V43.5346H41.8596ZM40.9902 47.5359H38.8477C39.0364 47.2858 39.1903 46.978 39.3091 46.6139C39.4288 46.248 39.5047 45.8074 39.5378 45.2902L39.5769 44.2902H40.9906V47.5359H40.9902Z" fill="#FEFEFF" fill-opacity="0.2"/>
</g>
<defs>
<clipPath id="clip0_64_11193">
<rect width="49.1667" height="50" fill="white" transform="translate(0.416687)"/>
</clipPath>
</defs>
</svg>
