<svg width="72" height="30" viewBox="0 0 72 30" fill="none" xmlns="http://www.w3.org/2000/svg">
<g clip-path="url(#clip0_64_11259)">
<path fill-rule="evenodd" clip-rule="evenodd" d="M35.9651 22.5658L33.4807 27.9443C28.4194 27.9244 24.497 27.8956 23.5706 27.8554C20.4408 27.7171 21.8011 25.235 21.8011 25.235L39.8977 0L28.7409 22.5658H35.9651ZM40.1416 22.5658H67.2494L63.9833 27.9905C63.9833 27.9905 48.0849 27.9918 36.1798 27.954L40.1416 22.5658Z" fill="#FEFEFF" fill-opacity="0.2"/>
<path fill-rule="evenodd" clip-rule="evenodd" d="M52.605 4.76465L33.1481 29.9997L45.6652 7.57699H37.5621L39.8611 2.17438C45.3616 2.18368 49.7269 2.19523 50.8359 2.20935C53.9682 2.24818 52.605 4.76465 52.605 4.76465ZM33.1135 7.57699H6.34131L9.60648 2.14453C9.60648 2.14453 24.9196 2.15255 36.9422 2.16988L33.1135 7.57699Z" fill="#FEFEFF" fill-opacity="0.2"/>
<path d="M4.08669 17.9241C2.75559 17.9241 2.32302 16.6964 2.98375 15.1031C3.65027 13.4948 5.09336 12.2815 6.4251 12.2815C7.20682 12.2815 7.63618 12.9258 7.58388 13.6998L9.82281 12.6624C9.82377 11.3907 9.31289 10.0605 7.34609 10.0605C4.84177 10.0605 2.09389 12.0928 0.845909 15.1034C-0.395659 18.1003 0.662354 20.1467 3.16603 20.1467C5.13219 20.1467 6.76494 18.7726 7.8053 17.5301L6.42125 16.5074C5.83143 17.282 4.86809 17.9241 4.08669 17.9241ZM15.7495 10.0605C13.2574 10.0605 10.5285 12.1364 9.29877 15.1034C8.06844 18.0711 9.07767 20.1467 11.5695 20.1467C14.0613 20.1467 16.7783 18.0711 18.008 15.1034C19.2384 12.1361 18.2417 10.0605 15.7495 10.0605ZM15.8712 15.1031C15.2168 16.6819 13.8341 17.9241 12.4908 17.9241C11.1468 17.9241 10.7826 16.6819 11.4366 15.1031C12.0964 13.5099 13.4853 12.2815 14.8285 12.2815C16.1728 12.2815 16.5306 13.5099 15.8712 15.1031ZM24.3311 15.5857L23.2561 10.2213H21.0938L17.0537 19.9711H19.1546L21.4927 14.3285L22.5998 19.9711H24.6273L28.6681 10.2213H26.5549L24.3311 15.5857ZM43.9988 19.9711H46.3809L47.3654 18.5669H50.5782L50.3998 19.9711H52.7816L53.7561 10.2213H51.1048L43.9988 19.9711ZM50.9123 16.3748H48.8483L51.4071 12.7057L50.9123 16.3748ZM57.8319 17.9241C56.5005 17.9241 56.0685 16.6964 56.729 15.1031C57.3945 13.4948 58.8379 12.2815 60.1697 12.2815C60.9514 12.2815 61.3814 12.9258 61.3291 13.6998L63.5674 12.6624C63.5693 11.3907 63.0571 10.0605 61.091 10.0605C58.586 10.0605 55.8391 12.0928 54.5911 15.1034C53.3492 18.1003 54.4066 20.1467 56.9106 20.1467C58.8777 20.1467 60.5098 18.7726 61.5499 17.5301L60.1658 16.5074C59.576 17.282 58.6136 17.9241 57.8319 17.9241ZM65.0178 10.2213L64.109 12.414H66.3939L63.2616 19.9711H65.3622L68.4948 12.414H70.7665L71.6749 10.2213H65.0178ZM35.4413 12.414H37.7255L34.5938 19.9711H36.6944L39.8264 12.414H42.0987L43.0075 10.2213H36.3495L35.4413 12.414Z" fill="#FEFEFF" fill-opacity="0.2"/>
</g>
<defs>
<clipPath id="clip0_64_11259">
<rect width="71.35" height="30" fill="white" transform="translate(0.324951)"/>
</clipPath>
</defs>
</svg>
