<svg width="70" height="36" viewBox="0 0 70 36" fill="none" xmlns="http://www.w3.org/2000/svg">
<g clip-path="url(#clip0_64_11198)">
<path d="M3.70936 0.5H66.2906C67.9301 0.5 69.27 1.83961 69.27 3.47939V32.5203C69.27 34.1601 67.9301 35.5 66.2906 35.5H3.70936C2.06959 35.5 0.72998 34.1601 0.72998 32.5203V3.4797C0.72998 1.83992 2.06989 0.5 3.70936 0.5Z" fill="#FEFEFF" fill-opacity="0.2"/>
<path d="M18.2349 28.1808H15.0885L12.1396 23.6502H11.4272V28.1808H8.47839V16.979H11.4272V21.5405C11.8398 21.5197 12.1943 21.4207 12.3952 21.247C12.5964 21.0733 12.9748 20.6879 13.2542 20.0912C13.336 19.9175 13.4279 19.7095 13.5336 19.471C13.6426 19.2289 13.7348 19.0176 13.8167 18.8405C14.1232 18.1656 14.4949 17.6847 14.9379 17.3983C15.3776 17.1118 15.9572 16.9653 16.68 16.9653C16.9151 16.9653 17.1093 16.9686 17.2663 16.9756C17.4196 16.9824 17.5423 16.9891 17.6278 16.9891V19.3858H17.0174C16.7176 19.3858 16.4549 19.4845 16.2299 19.6823C16.0052 19.8802 15.7801 20.2723 15.5483 20.8653C15.3642 21.3359 15.1905 21.6904 15.0302 21.9325C14.8665 22.1744 14.7132 22.3377 14.5733 22.4229L18.2346 28.1875V28.1808H18.2349ZM26.2084 13.9483C26.3687 14.0949 26.4948 14.2756 26.5901 14.4937C26.6857 14.7086 26.7333 14.9746 26.7333 15.2846C26.7333 16.0449 26.4606 16.6379 25.9152 17.0642C25.3699 17.4905 24.5857 17.7051 23.5667 17.7051C23.1029 17.7051 22.6598 17.6606 22.2372 17.572C21.8146 17.4834 21.4292 17.364 21.0784 17.2105V15.5096H21.2384C21.4769 15.687 21.7905 15.8574 22.1792 16.0211C22.5676 16.1881 22.9496 16.2733 23.3212 16.2733C23.8019 16.2733 24.1836 16.1814 24.4666 15.9973C24.7494 15.8131 24.8892 15.5334 24.8892 15.1517C24.8892 14.821 24.7869 14.5792 24.579 14.4189C24.371 14.2585 23.9994 14.1801 23.4644 14.1801H22.4452V12.82H23.4131C23.8562 12.82 24.1802 12.7485 24.3881 12.605C24.5927 12.4621 24.695 12.2471 24.695 11.9574C24.695 11.7018 24.5824 11.5176 24.3576 11.4016C24.1292 11.2856 23.8293 11.2279 23.4507 11.2279C23.2394 11.2279 23.0382 11.2517 22.844 11.2959C22.6531 11.3436 22.4656 11.4016 22.2818 11.4734C22.1111 11.5415 21.9511 11.6132 21.8079 11.6951C21.6613 11.7769 21.5523 11.8349 21.4772 11.8758H21.3101V10.2938C21.5181 10.2018 21.8555 10.0962 22.3227 9.97344C22.7933 9.85435 23.284 9.79297 23.7985 9.79297C24.7121 9.79297 25.3974 9.95664 25.8542 10.2803C26.3076 10.6043 26.5357 11.0578 26.5357 11.637C26.5357 12.07 26.413 12.4417 26.1607 12.7553C25.9119 13.0692 25.5916 13.2768 25.1995 13.3828V13.4579C25.3461 13.4851 25.5164 13.5428 25.7107 13.6283C25.9052 13.7135 26.0685 13.8191 26.205 13.9455L26.2084 13.9483ZM32.8829 14.6915C32.8829 15.6327 32.6411 16.3759 32.1601 16.9179C31.6761 17.4596 30.9943 17.7323 30.1115 17.7323C29.2354 17.7323 28.5535 17.4596 28.0662 16.9179C27.5788 16.3759 27.3367 15.6327 27.3367 14.6915C27.3367 13.7407 27.5785 12.9941 28.0662 12.4554C28.5538 11.9167 29.232 11.6474 30.1115 11.6474C30.9909 11.6474 31.6728 11.9201 32.1568 12.4621C32.6411 13.0041 32.8829 13.7474 32.8829 14.6915ZM31.1717 14.7016C31.1717 14.3642 31.1442 14.0811 31.0932 13.8564C31.0422 13.6313 30.9668 13.4506 30.8752 13.3144C30.7762 13.1712 30.6639 13.0722 30.5378 13.0176C30.415 12.9629 30.2718 12.9324 30.1115 12.9324C29.9615 12.9324 29.825 12.9562 29.7023 13.0041C29.5795 13.0518 29.4672 13.1473 29.3649 13.2869C29.2693 13.4197 29.1911 13.6005 29.1365 13.8289C29.0784 14.0607 29.0513 14.3505 29.0513 14.6983C29.0513 15.0494 29.0784 15.3322 29.1331 15.5438C29.1878 15.7585 29.2592 15.9289 29.3444 16.0583C29.4333 16.1915 29.5456 16.2867 29.6818 16.3481C29.815 16.4095 29.9649 16.44 30.1286 16.44C30.2614 16.44 30.3976 16.4095 30.5411 16.3481C30.681 16.2867 30.79 16.1982 30.8752 16.0754C30.9741 15.9289 31.0489 15.7551 31.1002 15.5502C31.1512 15.3459 31.175 15.0595 31.175 14.698L31.1717 14.7016ZM39.0633 17.5552H37.2193V13.093H35.9001C35.8894 13.3382 35.8827 13.5327 35.8797 13.6826C35.8766 13.8326 35.8696 13.9999 35.8626 14.1874C35.8388 14.7328 35.7942 15.1792 35.7331 15.5236C35.6681 15.8678 35.5865 16.1509 35.4907 16.3722C35.3954 16.5903 35.2964 16.7643 35.1978 16.8871C35.0958 17.0098 34.9865 17.1292 34.8705 17.2349C34.7578 17.3375 34.6011 17.4224 34.3966 17.4871C34.192 17.5518 34.0081 17.586 33.8374 17.586C33.6942 17.586 33.551 17.5793 33.4112 17.5689C33.268 17.5555 33.1861 17.5485 33.1556 17.5485V16.0895H33.2032C33.217 16.0895 33.2371 16.0928 33.268 16.0962C33.2988 16.0999 33.3293 16.1029 33.3565 16.1029C33.4316 16.1029 33.5132 16.0925 33.595 16.0757C33.6768 16.0553 33.7449 16.0177 33.7996 15.9597C34.0213 15.7209 34.1608 15.4043 34.2225 15.0085C34.2839 14.6097 34.3282 14.1666 34.3486 13.6756C34.3624 13.4063 34.3758 13.1098 34.3862 12.7791C34.3996 12.4484 34.41 12.1314 34.417 11.8248H39.0667V17.5515L39.0633 17.5552ZM45.3189 14.6915C45.3189 15.6327 45.0771 16.3759 44.5961 16.9179C44.1121 17.4596 43.4309 17.7323 42.5475 17.7323C41.6717 17.7323 40.6897 17.4596 40.2057 16.9179C39.7183 16.3759 39.4759 15.6327 39.4759 14.6915C39.4759 13.7407 39.7183 12.9941 40.2057 12.4554C40.6897 11.9167 41.6717 11.6474 42.5475 11.6474C43.4269 11.6474 44.1088 11.9201 44.5928 12.4621C45.0771 13.0041 45.3189 13.7474 45.3189 14.6915ZM43.6074 14.7016C43.6074 14.3642 43.5802 14.0811 43.5292 13.8564C43.4782 13.6313 43.4031 13.4506 43.3109 13.3144C43.2119 13.1712 43.0996 13.0722 42.9738 13.0176C42.8507 12.9629 42.7078 12.9324 42.5475 12.9324C42.3978 12.9324 41.9612 12.9562 41.8421 13.0041C41.719 13.0518 41.6067 13.1473 41.5044 13.2869C41.4088 13.4197 41.3306 13.6005 41.276 13.8289C41.2183 14.0607 41.1908 14.3505 41.1908 14.6983C41.1908 15.0494 41.2183 15.3322 41.2729 15.5438C41.3276 15.7585 41.399 15.9322 41.4842 16.0583C41.5728 16.1915 41.6854 16.2867 41.8216 16.3481C41.9545 16.4095 42.4043 16.44 42.5646 16.44C42.698 16.44 42.8342 16.4095 42.9774 16.3481C43.117 16.2867 43.226 16.1982 43.3115 16.0754C43.4101 15.9289 43.4852 15.7551 43.5362 15.5502C43.5875 15.3459 43.6116 15.0595 43.6116 14.698L43.6074 14.7016ZM50.6129 13.0692H48.9493V17.5555H47.064V13.0692H45.23V11.8248H50.6129V13.0692ZM54.0763 16.0553V14.8552C53.7972 14.8861 53.5681 14.9129 53.3947 14.9371C53.221 14.9575 53.0506 15.0018 52.8832 15.0665C52.74 15.1212 52.624 15.203 52.5458 15.3154C52.464 15.4244 52.4267 15.5743 52.4267 15.7585C52.4267 16.0278 52.4948 16.2153 52.6276 16.3142C52.7638 16.4162 52.9617 16.4642 53.2243 16.4642C53.3706 16.4642 53.5174 16.4266 53.6707 16.3551C53.8207 16.2834 53.9605 16.1814 54.0833 16.0553H54.0763ZM54.0763 16.9448C53.9639 17.0471 53.8619 17.1424 53.7697 17.2208C53.6772 17.3027 53.5584 17.3842 53.4051 17.466C53.2582 17.5445 53.1119 17.6059 52.9684 17.6471C52.8289 17.688 52.6313 17.7082 52.3751 17.7082C51.9015 17.7082 51.2538 17.5378 50.9436 17.197C50.6297 16.8559 50.473 16.4266 50.473 15.9081C50.473 15.4821 50.5552 15.138 50.7115 14.8754C50.8685 14.6128 51.3525 14.4048 51.652 14.2515C51.9555 14.0946 52.3137 13.9852 52.7327 13.9242C53.1519 13.8625 53.6026 13.8152 54.0863 13.781V13.7501C54.0863 13.4332 53.9776 13.2151 53.7593 13.0957C53.541 12.9763 53.2173 12.9153 52.7812 12.9153C52.5834 12.9153 52.355 12.9528 52.092 13.031C51.83 13.1061 51.3186 13.2051 51.0663 13.3241H50.9231V11.9366C51.0902 11.8856 51.612 11.8242 51.9797 11.7561C52.3479 11.688 52.7232 11.6502 53.0979 11.6502C54.0219 11.6502 54.6934 11.8138 55.1157 12.1445C55.5386 12.4752 55.7499 12.9763 55.7499 13.6512V17.5586H54.0763V16.9518V16.9448ZM61.825 17.5515H60.0246V15.5643H59.6567L58.3711 17.5515H56.2886L57.8224 15.3087C57.4444 15.1212 57.1646 14.8931 56.9906 14.6268C56.8168 14.3575 56.7283 14.003 56.7283 13.5565C56.7283 13.2393 56.7863 12.9736 56.902 12.7586C57.0178 12.544 57.1747 12.3598 57.3723 12.2099C57.546 12.0801 57.7506 11.9812 57.9894 11.9198C58.2282 11.8554 58.7058 11.8209 58.9956 11.8209H61.8214V17.5479L61.825 17.5515ZM60.0249 14.436V13.0142H59.3947C59.1629 13.0142 58.9818 13.0722 58.8527 13.1849C58.7235 13.2976 58.6581 13.4609 58.6581 13.6793C58.6581 13.9452 58.7232 14.1391 58.849 14.2585C58.9788 14.3779 59.1696 14.436 59.4252 14.436H60.0249ZM26.2423 23.9604C26.2423 25.3513 25.7583 26.4457 25.0422 27.2433C24.3265 28.0409 23.3139 28.4434 22.0048 28.4434C20.7061 28.4434 19.6936 28.0412 18.9745 27.2433C18.2553 26.4454 17.7674 25.3513 17.7674 23.9604C17.7674 22.5591 18.255 21.4586 18.9745 20.6638C19.6936 19.8695 20.7028 19.471 22.0048 19.471C23.3105 19.471 24.3197 19.8729 25.0355 20.6711C25.7513 21.4684 26.2423 22.5665 26.2423 23.9574V23.9604ZM23.5765 23.9778C23.5765 23.4798 23.5389 23.0642 23.4571 22.7335C23.3786 22.3994 23.2696 22.1335 23.1331 21.9359C22.9866 21.7243 22.8229 21.578 22.6354 21.4962C22.4513 21.414 22.2403 21.3737 22.0015 21.3737C21.7798 21.3737 21.5755 21.4113 21.3981 21.4824C21.2173 21.5539 21.0503 21.6937 20.897 21.8983C20.7571 22.0928 20.6414 22.3622 20.5559 22.6993C20.4707 23.0404 20.4264 23.4667 20.4264 23.9812C20.4264 24.4957 20.4674 24.9116 20.5458 25.2289C20.624 25.5455 20.7333 25.7981 20.8594 25.9889C20.9926 26.1834 21.1559 26.3263 21.3572 26.4152C21.5547 26.5041 21.7764 26.5514 22.0186 26.5514C22.2161 26.5514 22.4207 26.5041 22.6287 26.4152C22.8333 26.3267 22.9969 26.1905 23.123 26.0127C23.2696 25.7984 23.3823 25.5391 23.4605 25.2356C23.5356 24.9327 23.5728 24.5131 23.5728 23.9815L23.5765 23.9778ZM35.2317 23.8481C35.2317 25.1983 34.9077 26.2854 34.2637 27.1139C33.6161 27.942 32.8182 28.3545 31.8706 28.3545C31.4752 28.3545 31.1274 28.3066 30.8343 28.2113C30.5411 28.1158 30.2275 27.9692 29.8968 27.768V31.2829H27.122V19.7404H29.8968V20.6198C30.2617 20.2928 30.6333 20.0201 31.0117 19.8152C31.39 19.6109 31.8297 19.5083 32.3238 19.5083C33.2475 19.5083 33.9636 19.8967 34.468 20.6738C34.9761 21.4513 35.2283 22.5084 35.2283 23.8481H35.2317ZM32.6954 23.9058C32.6954 23.0843 32.5763 22.4843 32.3342 22.1164C32.0954 21.7444 31.7207 21.5606 31.2126 21.5606C30.9909 21.5606 30.7695 21.5982 30.5478 21.673C30.3261 21.7481 30.1081 21.8608 29.8965 22.0107V26.2613C30.0296 26.3224 30.1728 26.3673 30.3329 26.3911C30.4929 26.4186 30.6807 26.4286 30.9023 26.4286C31.5091 26.4286 31.9589 26.2173 32.252 25.7981C32.5452 25.3788 32.6954 24.7513 32.6954 23.9058ZM44.521 23.9641C44.521 25.3547 44.1634 26.4494 43.4471 27.2467C42.7313 28.0446 41.548 28.4468 40.2393 28.4468C38.9406 28.4468 37.928 28.0449 37.2086 27.2467C36.4895 26.4494 36.1279 25.3547 36.1279 23.9641C36.1279 22.5631 36.4895 21.462 37.2086 20.6674C37.9277 19.8729 38.9369 19.4747 40.2393 19.4747C41.5447 19.4747 42.7246 19.8765 43.44 20.6741C44.1558 21.4721 44.5173 22.5698 44.5173 23.9607L44.521 23.9641ZM41.8146 23.9809C41.8146 23.4831 41.7734 23.0676 41.6949 22.7368C41.6167 22.4025 41.5077 22.1365 41.3709 21.9389C41.2277 21.7276 41.0573 21.5811 40.8735 21.4992C40.6891 21.4174 40.4778 21.3771 40.2393 21.3771C40.0176 21.3771 39.813 21.414 39.6359 21.4861C39.4551 21.5572 39.2847 21.6937 39.1345 21.9017C38.9913 22.0962 38.8789 22.3649 38.794 22.7026C38.7085 23.0434 38.6642 23.4697 38.6642 23.9842C38.6642 24.4994 38.7052 24.915 38.7833 25.2319C38.8621 25.5489 38.9678 25.8014 39.0972 25.992C39.2301 26.1865 39.3937 26.3297 39.5947 26.4183C39.7925 26.5065 40.0142 26.5545 40.2561 26.5545C40.4539 26.5545 40.6582 26.5099 40.8662 26.4183C41.0711 26.3297 41.2378 26.1935 41.3605 26.0158C41.5071 25.8014 41.6201 25.5419 41.6946 25.2387C41.7694 24.9351 41.807 24.5159 41.807 23.9842L41.8146 23.9809ZM53.3095 28.1845H50.5347V24.5641H47.9679V28.1845H45.4041V19.7404H47.9679V22.6684H50.5347V19.7404H53.3095V28.1845ZM59.2783 25.9785V24.2093C58.8627 24.2569 58.2691 24.2942 58.0132 24.3287C57.7546 24.3592 57.5054 24.4276 57.2535 24.5195C57.0385 24.6014 56.8272 24.7208 56.7078 24.8841C56.5887 25.0478 56.5307 25.2658 56.5307 25.5388C56.5307 25.9379 56.6297 26.2103 56.8272 26.3572C57.0285 26.5068 57.3628 26.5819 57.7509 26.5819C57.9656 26.5819 58.4435 26.5273 58.6649 26.4219C58.8896 26.316 59.0908 26.1663 59.275 25.9789H59.2783V25.9785ZM59.2783 27.2876C59.1079 27.4379 58.9577 27.5774 58.8249 27.6968C58.692 27.8162 58.2557 27.9356 58.0276 28.055C57.8093 28.1707 57.5909 28.2596 57.3833 28.321C57.175 28.382 56.8819 28.4129 56.5072 28.4129C55.8046 28.4129 55.0546 28.1606 54.5914 27.6595C54.1279 27.1548 53.9813 26.5242 53.9813 25.7605C53.9813 25.13 54.0155 24.6221 54.2506 24.2371C54.486 23.8484 54.8235 23.5418 55.2665 23.3164C55.713 23.088 56.4184 22.9243 57.0391 22.8321C57.6593 22.7436 58.5836 22.6721 59.2957 22.6211V22.5735C59.2957 22.1093 59.136 21.786 58.8117 21.6085C58.4914 21.4317 58.0074 21.3426 57.3668 21.3426C57.0736 21.3426 56.7329 21.4006 56.3442 21.5136C55.9554 21.626 55.1471 21.7692 54.7758 21.9463H54.5642V19.901C54.8097 19.8262 55.6314 19.7373 56.1768 19.6353C56.7222 19.5327 57.2746 19.4817 57.83 19.4817C59.1974 19.4817 60.1926 19.7236 60.8195 20.2076C61.4473 20.6919 61.7572 21.432 61.7572 22.4303V28.1878H59.2783V27.2913V27.2876Z" fill="#030819"/>
<path d="M8.37277 14.8615H18.0987V15.9867H8.37277V14.8615ZM11.9998 5.51106L13.2374 4.27344L14.4747 5.51106L13.2374 6.74838L11.9998 5.51106ZM18.1021 14.3057H16.8987L18.6441 10.0957C18.5146 9.97297 18.3748 9.85022 18.2178 9.73449L16.2678 14.3057H13.5577V7.21222C16.0974 7.3652 18.2621 8.17685 20.0209 9.71097L18.1085 14.3027L18.1021 14.3057ZM17.2223 9.24011C16.4211 8.83429 15.5826 8.57198 14.7233 8.40831V13.1606H15.5792L17.2223 9.24347V9.24011ZM8.3969 14.3057H9.60001L7.85489 10.0957C7.98436 9.97297 8.12391 9.85022 8.28086 9.73449L10.2309 14.3057H12.9409V7.21222C10.4013 7.3652 8.23658 8.17685 6.47742 9.71097L8.38987 14.3027L8.3969 14.3057ZM9.27633 9.24011C10.0776 8.83429 10.9158 8.57198 11.7751 8.40831V13.1606H10.9195L9.27663 9.24347V9.24011H9.27633Z" fill="#030819"/>
</g>
<defs>
<clipPath id="clip0_64_11198">
<rect width="68.54" height="35" fill="white" transform="translate(0.72998 0.5)"/>
</clipPath>
</defs>
</svg>
