<svg width="62" height="50" viewBox="0 0 62 50" fill="none" xmlns="http://www.w3.org/2000/svg">
<g clip-path="url(#clip0_64_11204)">
<path d="M15.6146 43.7089V41.2174C15.6291 41.0078 15.5988 40.7976 15.5257 40.6007C15.4526 40.4038 15.3384 40.2247 15.1907 40.0754C15.0429 39.9261 14.8651 39.81 14.6689 39.7348C14.4728 39.6596 14.2629 39.6271 14.0532 39.6394C13.7788 39.6214 13.5045 39.6774 13.2591 39.8016C13.0136 39.9258 12.806 40.1136 12.658 40.3453C12.523 40.1205 12.3298 39.9363 12.0989 39.812C11.8679 39.6878 11.6077 39.6282 11.3457 39.6394C11.1174 39.6279 10.8899 39.6762 10.686 39.7796C10.482 39.8831 10.3086 40.038 10.183 40.2291V39.7391H9.31927V43.7089H10.1913V41.5246C10.1728 41.3889 10.1844 41.2507 10.2255 41.12C10.2666 40.9893 10.336 40.8693 10.4288 40.7685C10.5217 40.6677 10.6356 40.5887 10.7625 40.5371C10.8894 40.4855 11.0262 40.4625 11.163 40.4699C11.7361 40.4699 12.0268 40.8436 12.0268 41.5163V43.7255H12.8988V41.5246C12.881 41.389 12.8932 41.2512 12.9346 41.1208C12.9759 40.9904 13.0454 40.8707 13.138 40.7701C13.2307 40.6695 13.3443 40.5905 13.4709 40.5386C13.5975 40.4867 13.7339 40.4633 13.8705 40.4699C14.4602 40.4699 14.7426 40.8436 14.7426 41.5163V43.7255L15.6146 43.7089ZM28.5167 39.7391H27.0965V38.5349H26.2245V39.7391H25.4355V40.5281H26.2411V42.3551C26.2411 43.277 26.5982 43.8251 27.6197 43.8251C28.0014 43.8264 28.3756 43.7199 28.6994 43.5178L28.4503 42.7787C28.2186 42.9169 27.9557 42.994 27.6862 43.0029C27.2709 43.0029 27.1131 42.7372 27.1131 42.3385V40.5281H28.525L28.5167 39.7391ZM35.8834 39.6394C35.6728 39.6332 35.4644 39.684 35.2803 39.7863C35.0961 39.8886 34.9429 40.0387 34.8369 40.2208V39.7391H33.9815V43.7089H34.8452V41.4831C34.8452 40.827 35.1276 40.4616 35.6758 40.4616C35.8605 40.4591 36.0439 40.493 36.2156 40.5613L36.4814 39.7308C36.2841 39.6602 36.0763 39.6237 35.8668 39.6228L35.8834 39.6394ZM24.7461 40.0547C24.2572 39.764 23.6951 39.6199 23.1266 39.6394C22.1217 39.6394 21.4656 40.1211 21.4656 40.9101C21.4656 41.5579 21.9473 41.9565 22.836 42.0811L23.2512 42.1392C23.7246 42.2057 23.9488 42.3302 23.9488 42.5545C23.9488 42.8617 23.6333 43.0362 23.0436 43.0362C22.5693 43.0499 22.1041 42.9036 21.7231 42.6209L21.3078 43.2936C21.8109 43.6449 22.4136 43.8254 23.027 43.8085C24.1731 43.8085 24.8375 43.2687 24.8375 42.5129C24.8375 41.7572 24.3143 41.4499 23.4505 41.3253L23.0353 41.2672C22.6615 41.2174 22.3626 41.1426 22.3626 40.8769C22.3626 40.6111 22.6449 40.4118 23.1183 40.4118C23.5559 40.4169 23.9848 40.5341 24.3641 40.7523L24.7461 40.0547ZM47.8802 39.6394C47.6696 39.6332 47.4613 39.684 47.2771 39.7863C47.0929 39.8886 46.9398 40.0387 46.8338 40.2208V39.7391H45.9783V43.7089H46.8421V41.4831C46.8421 40.827 47.1244 40.4616 47.6726 40.4616C47.8573 40.4591 48.0408 40.493 48.2124 40.5613L48.4782 39.7308C48.2809 39.6602 48.0731 39.6237 47.8636 39.6228L47.8802 39.6394ZM36.7513 41.7157C36.741 41.9946 36.7891 42.2727 36.8924 42.532C36.9958 42.7913 37.1521 43.0262 37.3515 43.2216C37.5508 43.4171 37.7888 43.5687 38.0501 43.6669C38.3114 43.7651 38.5904 43.8077 38.8691 43.7919C39.3877 43.8183 39.8974 43.6494 40.2976 43.3185L39.8823 42.6209C39.5837 42.8486 39.2197 42.9738 38.8442 42.978C38.5249 42.9522 38.2271 42.8071 38.0099 42.5717C37.7927 42.3362 37.6721 42.0277 37.6721 41.7074C37.6721 41.3871 37.7927 41.0785 38.0099 40.843C38.2271 40.6076 38.5249 40.4625 38.8442 40.4367C39.2197 40.4409 39.5837 40.5661 39.8823 40.7938L40.2976 40.0962C39.8974 39.7653 39.3877 39.5964 38.8691 39.6228C38.5904 39.607 38.3114 39.6496 38.0501 39.7478C37.7888 39.846 37.5508 39.9976 37.3515 40.1931C37.1521 40.3885 36.9958 40.6234 36.8924 40.8827C36.7891 41.142 36.741 41.4201 36.7513 41.6991V41.7157ZM44.8405 41.7157V39.7391H43.9768V40.2208C43.8301 40.032 43.6406 39.8809 43.424 39.7798C43.2074 39.6787 42.9699 39.6306 42.731 39.6394C42.1803 39.6394 41.6522 39.8582 41.2628 40.2475C40.8735 40.6369 40.6547 41.165 40.6547 41.7157C40.6547 42.2663 40.8735 42.7944 41.2628 43.1838C41.6522 43.5732 42.1803 43.7919 42.731 43.7919C42.9699 43.8007 43.2074 43.7526 43.424 43.6515C43.6406 43.5504 43.8301 43.3993 43.9768 43.2106V43.6922H44.8405V41.7157ZM41.6264 41.7157C41.6402 41.482 41.722 41.2574 41.8618 41.0697C42.0016 40.8819 42.1932 40.7391 42.4131 40.6589C42.633 40.5787 42.8716 40.5645 43.0994 40.6181C43.3273 40.6718 43.5345 40.7909 43.6955 40.9608C43.8565 41.1307 43.9643 41.344 44.0057 41.5744C44.047 41.8048 44.0201 42.0422 43.9281 42.2575C43.8362 42.4728 43.6834 42.6565 43.4884 42.786C43.2934 42.9155 43.0647 42.9851 42.8307 42.9863C42.6662 42.9884 42.5032 42.9564 42.3517 42.8924C42.2002 42.8284 42.0637 42.7338 41.9506 42.6144C41.8374 42.4951 41.7503 42.3536 41.6945 42.199C41.6387 42.0443 41.6155 41.8797 41.6264 41.7157ZM31.2034 39.6394C30.6528 39.6471 30.1277 39.8733 29.7438 40.2681C29.3598 40.6629 29.1485 41.1941 29.1562 41.7447C29.1639 42.2954 29.39 42.8204 29.7849 43.2043C30.1797 43.5883 30.7109 43.7996 31.2616 43.7919C31.859 43.8226 32.4465 43.6302 32.9101 43.2521L32.4949 42.6126C32.167 42.8756 31.7607 43.0217 31.3405 43.0278C31.0549 43.0524 30.7711 42.9646 30.5493 42.7832C30.3275 42.6017 30.1853 42.3409 30.1528 42.0562H33.1012C33.1012 41.9482 33.1012 41.8402 33.1012 41.724C33.1012 40.4782 32.3288 39.6477 31.2159 39.6477L31.2034 39.6394ZM31.2034 40.4118C31.3327 40.409 31.4612 40.4318 31.5817 40.4787C31.7021 40.5256 31.8121 40.5958 31.9055 40.6853C31.9988 40.7747 32.0736 40.8817 32.1255 41.0001C32.1775 41.1185 32.2056 41.2459 32.2083 41.3752H30.132C30.1471 41.1086 30.2659 40.8585 30.463 40.6785C30.6602 40.4984 30.92 40.4027 31.1868 40.4118H31.2034ZM52.8426 41.724V38.1445H52.012V40.2208C51.8654 40.032 51.6759 39.8809 51.4593 39.7798C51.2427 39.6787 51.0051 39.6306 50.7663 39.6394C50.2156 39.6394 49.6875 39.8582 49.2981 40.2475C48.9087 40.6369 48.69 41.165 48.69 41.7157C48.69 42.2663 48.9087 42.7944 49.2981 43.1838C49.6875 43.5732 50.2156 43.7919 50.7663 43.7919C51.0051 43.8007 51.2427 43.7526 51.4593 43.6515C51.6759 43.5504 51.8654 43.3993 52.012 43.2106V43.6922H52.8426V41.724ZM54.2835 43.1317C54.3375 43.131 54.3911 43.1409 54.4413 43.1607C54.489 43.1802 54.5326 43.2083 54.57 43.2438C54.6065 43.2796 54.6361 43.3218 54.6572 43.3684C54.6783 43.4168 54.6891 43.4691 54.6891 43.522C54.6891 43.5748 54.6783 43.6271 54.6572 43.6756C54.6361 43.7222 54.6065 43.7644 54.57 43.8002C54.5326 43.8356 54.489 43.8638 54.4413 43.8833C54.3916 43.9052 54.3378 43.9165 54.2835 43.9165C54.2048 43.9159 54.1279 43.8929 54.0617 43.8503C53.9955 43.8076 53.9428 43.7471 53.9098 43.6756C53.889 43.6271 53.8783 43.5748 53.8783 43.522C53.8783 43.4692 53.889 43.4169 53.9098 43.3684C53.9309 43.3218 53.9605 43.2796 53.997 43.2438C54.0344 43.2083 54.078 43.1802 54.1257 43.1607C54.1798 43.1392 54.2378 43.1293 54.296 43.1317H54.2835ZM54.2835 43.8334C54.325 43.8337 54.366 43.8252 54.4039 43.8085C54.4397 43.7926 54.4721 43.77 54.4994 43.7421C54.5514 43.6854 54.5802 43.6113 54.5802 43.5344C54.5802 43.4576 54.5514 43.3835 54.4994 43.3268C54.4721 43.2988 54.4397 43.2762 54.4039 43.2604C54.3659 43.2438 54.3249 43.2353 54.2835 43.2355C54.2421 43.2357 54.2012 43.2442 54.1631 43.2604C54.1258 43.2757 54.0919 43.2983 54.0634 43.3268C54.0115 43.3835 53.9827 43.4576 53.9827 43.5344C53.9827 43.6113 54.0115 43.6854 54.0634 43.7421C54.092 43.7705 54.1258 43.7931 54.1631 43.8085C54.205 43.8266 54.2504 43.8351 54.296 43.8334H54.2835ZM54.3084 43.3393C54.3472 43.3374 54.3854 43.3492 54.4164 43.3725C54.4291 43.383 54.4391 43.3964 54.4456 43.4116C54.4521 43.4268 54.4549 43.4432 54.4538 43.4597C54.4544 43.4735 54.4521 43.4873 54.4471 43.5001C54.4421 43.513 54.4345 43.5247 54.4247 43.5344C54.4006 43.5563 54.3699 43.5695 54.3375 43.5718L54.4579 43.7089H54.3624L54.2503 43.5718H54.2129V43.7089H54.134V43.3434L54.3084 43.3393ZM54.2171 43.4099V43.5095H54.3084C54.3247 43.5144 54.342 43.5144 54.3582 43.5095C54.3612 43.5037 54.3627 43.4973 54.3627 43.4908C54.3627 43.4844 54.3612 43.478 54.3582 43.4722C54.3612 43.4664 54.3627 43.46 54.3627 43.4535C54.3627 43.447 54.3612 43.4406 54.3582 43.4348C54.342 43.4299 54.3247 43.4299 54.3084 43.4348L54.2171 43.4099ZM49.6492 41.724C49.663 41.4903 49.7448 41.2658 49.8846 41.078C50.0244 40.8902 50.216 40.7474 50.4359 40.6672C50.6558 40.587 50.8944 40.5728 51.1222 40.6264C51.3501 40.6801 51.5573 40.7992 51.7183 40.9691C51.8793 41.139 51.9871 41.3523 52.0285 41.5827C52.0698 41.8131 52.0429 42.0505 51.9509 42.2658C51.859 42.4811 51.7062 42.6648 51.5112 42.7943C51.3162 42.9238 51.0875 42.9934 50.8535 42.9946C50.689 42.9967 50.526 42.9647 50.3745 42.9007C50.223 42.8367 50.0865 42.7421 49.9734 42.6227C49.8602 42.5034 49.7731 42.3619 49.7173 42.2073C49.6615 42.0526 49.6383 41.888 49.6492 41.724ZM20.4856 41.724V39.7391H19.6218V40.2208C19.4752 40.032 19.2857 39.8809 19.0691 39.7798C18.8525 39.6787 18.6149 39.6306 18.3761 39.6394C17.8254 39.6394 17.2973 39.8582 16.9079 40.2475C16.5185 40.6369 16.2998 41.165 16.2998 41.7157C16.2998 42.2663 16.5185 42.7944 16.9079 43.1838C17.2973 43.5732 17.8254 43.7919 18.3761 43.7919C18.6149 43.8007 18.8525 43.7526 19.0691 43.6515C19.2857 43.5504 19.4752 43.3993 19.6218 43.2106V43.6922H20.4856V41.724ZM17.2715 41.724C17.2853 41.4903 17.3671 41.2658 17.5068 41.078C17.6466 40.8902 17.8383 40.7474 18.0582 40.6672C18.2781 40.587 18.5166 40.5728 18.7445 40.6264C18.9724 40.6801 19.1795 40.7992 19.3406 40.9691C19.5016 41.139 19.6094 41.3523 19.6507 41.5827C19.6921 41.8131 19.6651 42.0505 19.5732 42.2658C19.4813 42.4811 19.3284 42.6648 19.1334 42.7943C18.9384 42.9238 18.7098 42.9934 18.4757 42.9946C18.3106 42.9979 18.1466 42.9668 17.9942 42.9033C17.8417 42.8398 17.7041 42.7453 17.5901 42.6258C17.4761 42.5064 17.3882 42.3645 17.3319 42.2093C17.2756 42.054 17.2522 41.8887 17.2632 41.724H17.2715Z" fill="#FEFEFF" fill-opacity="0.2"/>
<path d="M37.5404 9.48926H24.4598V32.9964H37.5404V9.48926Z" fill="#030819"/>
<path d="M25.2902 21.2459C25.2878 18.9817 25.8007 16.7466 26.7899 14.7099C27.7791 12.6732 29.2189 10.8882 31 9.49026C28.7947 7.75711 26.1461 6.67936 23.3572 6.3802C20.5682 6.08104 17.7514 6.57253 15.2286 7.79851C12.7057 9.02449 10.5787 10.9355 9.09065 13.3131C7.60256 15.6907 6.81342 18.439 6.81342 21.2439C6.81342 24.0487 7.60256 26.797 9.09065 29.1746C10.5787 31.5522 12.7057 33.4632 15.2286 34.6892C17.7514 35.9152 20.5682 36.4067 23.3572 36.1075C26.1461 35.8083 28.7947 34.7306 31 32.9974C29.2194 31.5999 27.78 29.8156 26.7908 27.7797C25.8016 25.7437 25.2885 23.5095 25.2902 21.2459Z" fill="#FEFEFF" fill-opacity="0.2"/>
<path d="M55.1889 21.2447C55.1888 24.0498 54.3995 26.7983 52.9111 29.176C51.4228 31.5537 49.2955 33.4646 46.7723 34.6904C44.2492 35.9162 41.4321 36.4074 38.6429 36.1078C35.8538 35.8082 33.2053 34.7299 31.0001 32.9962C32.78 31.5975 34.219 29.8127 35.2084 27.7766C36.1979 25.7406 36.7121 23.5064 36.7121 21.2427C36.7121 18.9789 36.1979 16.7447 35.2084 14.7087C34.219 12.6726 32.78 10.8879 31.0001 9.48906C33.2053 7.75537 35.8538 6.6771 38.6429 6.3775C41.4321 6.07791 44.2492 6.56909 46.7723 7.79489C49.2955 9.02069 51.4228 10.9317 52.9111 13.3093C54.3995 15.687 55.1888 18.4355 55.1889 21.2406V21.2447Z" fill="#FEFEFF" fill-opacity="0.2"/>
<path d="M53.7604 30.5042V30.0225H53.9556V29.9229H53.4614V30.0225H53.6732V30.5042H53.7604ZM54.7197 30.5042V29.9229H54.5702L54.3958 30.3381L54.2214 29.9229H54.0885V30.5042H54.1964V30.0682L54.3584 30.4461H54.4705L54.6325 30.0682V30.5084L54.7197 30.5042Z" fill="#FEFEFF" fill-opacity="0.2"/>
</g>
<defs>
<clipPath id="clip0_64_11204">
<rect width="60.96" height="50" fill="white" transform="translate(0.52002)"/>
</clipPath>
</defs>
</svg>
