<svg width="70" height="30" viewBox="0 0 70 30" fill="none" xmlns="http://www.w3.org/2000/svg">
<g clip-path="url(#clip0_64_11215)">
<path d="M65.3402 30H4.65985C2.58914 30 0.910034 28.3211 0.910034 26.2501V3.74988C0.910034 1.67913 2.58914 -5.72205e-06 4.65985 -5.72205e-06H65.3402C67.4109 -5.72205e-06 69.09 1.67913 69.09 3.74988V26.2501C69.09 28.3211 67.4109 30 65.3402 30Z" fill="#FEFEFF" fill-opacity="0.2"/>
<path d="M38.0188 9.08486L34.6597 16.3636H34.318V7.50047H29.5452V22.5H33.5965C34.6597 22.5 35.6258 21.8818 36.0721 20.9156L39.4324 13.6368H39.7729V22.5H44.5456V7.50047H40.4953C39.4312 7.50047 38.4649 8.11867 38.0188 9.08486Z" fill="#030819"/>
<path d="M20.1136 9.47126L18.1255 16.3638H17.7849L15.7968 9.47126C15.4595 8.30366 14.3909 7.49953 13.1766 7.49953H8.4104V22.5H13.182V13.6357H13.5236L16.2506 22.5H19.6597L22.3868 13.6357H22.7273V22.5H27.5V7.49953H22.7339C21.5195 7.49953 20.4509 8.30366 20.1136 9.47126Z" fill="#030819"/>
<path d="M46.5908 14.3189V22.501H51.3536V17.7282H56.4767C58.702 17.7282 60.59 16.3038 61.293 14.3189H46.5908Z" fill="#030819"/>
<path d="M45.9088 7.50036C46.5507 10.9912 49.6051 13.6367 53.2809 13.6367H61.4879C61.5542 13.3059 61.5901 12.9641 61.5901 12.6136C61.5901 9.79005 59.3006 7.50036 56.477 7.50036H45.9088Z" fill="#030819"/>
</g>
<defs>
<clipPath id="clip0_64_11215">
<rect width="68.18" height="30" fill="white" transform="translate(0.910034)"/>
</clipPath>
</defs>
</svg>
