<svg width="69" height="30" viewBox="0 0 69 30" fill="none" xmlns="http://www.w3.org/2000/svg">
<g clip-path="url(#clip0_132_5955)">
<path fill-rule="evenodd" clip-rule="evenodd" d="M3.74979 30H64.4302C66.5009 30 68.18 28.3211 68.18 26.2501V3.74988C68.18 1.67913 66.5009 -5.72205e-06 64.4302 -5.72205e-06H3.74979C1.67907 -5.72205e-06 -3.05176e-05 1.67913 -3.05176e-05 3.74988V26.2501C-3.05176e-05 28.3211 1.67907 30 3.74979 30ZM45.6808 22.501V14.3189H60.383C59.6799 16.3038 57.792 17.7282 55.5666 17.7282H50.4436V22.501H45.6808ZM19.2035 9.47126L17.2154 16.3638H16.8749L14.8868 9.47126C14.5494 8.30367 13.4809 7.49953 12.2665 7.49953H7.50034V22.5H12.2719V13.6357H12.6135L15.3405 22.5H18.7496L21.4767 13.6357H21.8173V22.5H26.5899V7.49953H21.8238C20.6094 7.49953 19.5409 8.30367 19.2035 9.47126ZM37.1087 9.08486L33.7496 16.3636H33.408V7.50047H28.6351V22.5H32.6865C33.7496 22.5 34.7158 21.8818 35.162 20.9156L38.5223 13.6368H38.8628V22.5H43.6355V7.50047H39.5853C38.5212 7.50047 37.5548 8.11867 37.1087 9.08486ZM44.9987 7.50036C45.6406 10.9912 48.695 13.6367 52.3708 13.6367H60.5778C60.6442 13.3059 60.68 12.9641 60.68 12.6136C60.68 9.79005 58.3905 7.50036 55.5669 7.50036H44.9987Z" fill="#FEFEFF" fill-opacity="0.2"/>
</g>
<defs>
<clipPath id="clip0_132_5955">
<rect width="68.18" height="30" fill="white"/>
</clipPath>
</defs>
</svg>
