<svg width="84" height="30" viewBox="0 0 84 30" fill="none" xmlns="http://www.w3.org/2000/svg">
<g clip-path="url(#clip0_64_11233)">
<path d="M21.0374 26.3033C23.5945 26.3033 26.3688 27.1798 29.4396 29.9005C29.7472 30.1732 30.1567 29.8345 29.8885 29.496C26.8708 25.6861 24.0796 24.9603 21.2959 24.3471C17.8911 23.5969 16.1397 21.6813 14.9192 19.578C14.6763 19.1593 14.5675 19.2331 14.5456 19.7709C14.5189 20.4289 14.5642 21.2995 14.7115 22.1561C14.5741 22.1625 14.4358 22.1605 14.297 22.1605C9.42589 22.1605 5.47725 18.212 5.47725 13.3414C5.47725 8.47051 9.42589 4.52205 14.297 4.52205C19.168 4.52205 23.117 8.47051 23.117 13.3414C23.117 13.6878 23.1001 14.0304 23.0612 14.3666C22.4168 14.2505 21.1493 14.2375 20.26 14.3144C19.9254 14.3432 19.9724 14.499 20.2253 14.5447C23.1409 15.0715 25.1441 16.8783 25.6019 20.1568C25.6125 20.2324 25.7111 20.2548 25.7502 20.1896C26.9499 18.1879 27.639 15.8449 27.639 13.3414C27.639 5.97323 21.6657 0 14.297 0C6.92837 0 0.954956 5.97323 0.954956 13.3414C0.954956 20.7096 6.92837 26.6834 14.297 26.6834C16.2519 26.6834 18.1912 26.3033 21.0374 26.3033ZM22.0306 21.4592C22.6242 21.9612 22.8049 22.5577 22.4909 22.9787C22.3163 23.2093 22.0333 23.3365 21.694 23.3365C21.3609 23.3365 21.0216 23.2132 20.7861 23.0078C20.2464 22.5361 20.0879 21.7715 20.4402 21.3371C20.5779 21.1671 20.8017 21.0735 21.0699 21.0735C21.3956 21.0735 21.7368 21.2107 22.0306 21.4592ZM24.7695 20.1849C24.8567 20.7695 24.6718 21.0117 24.4863 21.0117C24.2839 21.0117 24.0299 20.7745 23.73 20.307C23.4343 19.8453 23.3261 19.3155 23.4727 19.048C23.5696 18.8708 23.7722 18.7939 24.028 18.8905C24.523 19.0777 24.7173 19.8356 24.7695 20.1849ZM43.2642 17.1295L41.726 15.2797C41.565 15.0856 41.703 14.7916 41.9551 14.7916H45.173C45.3263 14.3354 45.4129 13.8481 45.4129 13.342C45.4129 11.0247 43.6879 9.02661 41.3204 9.02661C38.9529 9.02661 37.2279 11.0247 37.2279 13.342C37.2279 15.6595 38.9529 17.6293 41.3204 17.6293C42.0378 17.6293 42.695 17.446 43.2642 17.1295ZM50.224 20.2559C50.3911 20.4408 50.254 20.7384 50.0021 20.7384H46.4905C46.3477 20.7384 46.212 20.6749 46.1206 20.5649L45.5254 19.8492C44.3131 20.6352 42.8697 21.0938 41.3204 21.0938C37.0457 21.0938 33.5682 17.6165 33.5682 13.342C33.5682 9.0677 37.0457 5.59009 41.3204 5.59009C45.595 5.59009 49.0726 9.0677 49.0726 13.342C49.0726 14.883 48.6189 16.3189 47.8407 17.5268L50.224 20.2559ZM82.6637 5.94685H79.7979C79.5874 5.94685 79.4166 6.1176 79.4166 6.32832V20.3559C79.4166 20.5663 79.5874 20.7371 79.7979 20.7371H82.6637C82.8742 20.7371 83.0449 20.5663 83.0449 20.3559V6.32832C83.0449 6.1176 82.8742 5.94685 82.6637 5.94685ZM77.8413 5.94685H74.6347C74.467 5.94685 74.319 6.0554 74.2702 6.21476L71.7328 14.5045L68.9441 6.2056C68.8922 6.05096 68.7467 5.94685 68.5826 5.94685H66.345C66.1809 5.94685 66.0352 6.05096 65.9832 6.2056L63.1945 14.5045L60.6571 6.21476C60.6083 6.0554 60.4603 5.94685 60.2926 5.94685H57.086C56.9636 5.94685 56.8484 6.00543 56.7767 6.10399C56.7051 6.20283 56.6857 6.32943 56.7245 6.44464L61.434 20.48C61.4859 20.6343 61.6317 20.7384 61.7958 20.7384H64.3407C64.5048 20.7384 64.6503 20.6343 64.7025 20.4803L67.4637 12.2804L70.2249 20.4803C70.2771 20.6343 70.4225 20.7384 70.5866 20.7384H73.1316C73.2956 20.7384 73.4414 20.6343 73.4933 20.48L78.2028 6.44464C78.2416 6.32943 78.2222 6.20283 78.1506 6.10399C78.0789 6.00543 77.9637 5.94685 77.8413 5.94685ZM55.5107 6.32832V20.3559C55.5107 20.5663 55.3399 20.7371 55.1294 20.7371H52.2636C52.0531 20.7371 51.8824 20.5663 51.8824 20.3559V6.32832C51.8824 6.1176 52.0531 5.94685 52.2636 5.94685H55.1294C55.3399 5.94685 55.5107 6.1176 55.5107 6.32832Z" fill="#FEFEFF" fill-opacity="0.2"/>
</g>
<defs>
<clipPath id="clip0_64_11233">
<rect width="82.09" height="30" fill="white" transform="translate(0.954956)"/>
</clipPath>
</defs>
</svg>
